<svg width="44" height="25" viewBox="0 0 44 25" fill="none" xmlns="http://www.w3.org/2000/svg">
<g clipPath="url(#clip0_33_150)">
<path d="M12.5425 17.0795C12.5425 17.594 12.5999 18.0111 12.7003 18.317C12.815 18.6229 12.9584 18.9566 13.1592 19.3181C13.2309 19.4294 13.2596 19.5406 13.2596 19.6379C13.2596 19.777 13.1735 19.916 12.9871 20.0551L12.0836 20.639C11.9546 20.7225 11.8255 20.7642 11.7108 20.7642C11.5674 20.7642 11.424 20.6947 11.2806 20.5695C11.0798 20.361 10.9077 20.1385 10.7643 19.916C10.6209 19.6796 10.4775 19.4155 10.3198 19.0957C9.20122 20.3749 7.79587 21.0145 6.1037 21.0145C4.89911 21.0145 3.93831 20.6808 3.23563 20.0134C2.53295 19.3459 2.17444 18.4561 2.17444 17.3437C2.17444 16.1618 2.60465 15.2024 3.47941 14.4794C4.35418 13.7564 5.51575 13.3949 6.99281 13.3949C7.48038 13.3949 7.98229 13.4366 8.51289 13.5061C9.04348 13.5756 9.58842 13.6869 10.162 13.812V12.797C10.162 11.7403 9.93258 11.0033 9.48803 10.5723C9.02914 10.1413 8.25476 9.9327 7.15055 9.9327C6.64864 9.9327 6.13238 9.98832 5.60179 10.1135C5.0712 10.2386 4.55494 10.3915 4.05303 10.5862C3.82358 10.6835 3.6515 10.7392 3.55112 10.767C3.45073 10.7948 3.37903 10.8087 3.32167 10.8087C3.1209 10.8087 3.02052 10.6696 3.02052 10.3776V9.69633C3.02052 9.47386 3.0492 9.30701 3.1209 9.20968C3.19261 9.11235 3.32167 9.01502 3.52243 8.91769C4.02435 8.66741 4.62664 8.45884 5.32932 8.29199C6.032 8.11123 6.7777 8.02781 7.56642 8.02781C9.27293 8.02781 10.5205 8.40323 11.3236 9.15406C12.1123 9.90489 12.5139 11.0451 12.5139 12.5745V17.0795H12.5425ZM6.72034 19.193C7.19357 19.193 7.68114 19.1096 8.1974 18.9427C8.71365 18.7759 9.17254 18.47 9.55973 18.0528C9.78918 17.7887 9.96127 17.4967 10.0473 17.163C10.1333 16.8293 10.1907 16.426 10.1907 15.9533V15.3693C9.77484 15.272 9.33029 15.1885 8.8714 15.1329C8.4125 15.0773 7.96795 15.0495 7.5234 15.0495C6.5626 15.0495 5.85992 15.2303 5.38668 15.6057C4.91345 15.9811 4.68401 16.5095 4.68401 17.2047C4.68401 17.8582 4.85609 18.3448 5.2146 18.6785C5.55877 19.0261 6.06068 19.193 6.72034 19.193ZM18.2357 20.6947C17.9775 20.6947 17.8055 20.653 17.6907 20.5556C17.576 20.4722 17.4756 20.2775 17.3896 20.0134L14.0196 9.26529C13.9335 8.98721 13.8905 8.80645 13.8905 8.70912C13.8905 8.48665 14.0053 8.36151 14.2347 8.36151H15.6401C15.9125 8.36151 16.0989 8.40323 16.1993 8.50056C16.3141 8.58398 16.4001 8.77864 16.4861 9.04283L18.8953 18.2475L21.1324 9.04283C21.2041 8.76474 21.2902 8.58398 21.4049 8.50056C21.5196 8.41713 21.7204 8.36151 21.9785 8.36151H23.1257C23.3982 8.36151 23.5846 8.40323 23.6993 8.50056C23.8141 8.58398 23.9145 8.77864 23.9718 9.04283L26.2376 18.3587L28.7185 9.04283C28.8045 8.76474 28.9049 8.58398 29.0053 8.50056C29.12 8.41713 29.3064 8.36151 29.5646 8.36151H30.8982C31.1277 8.36151 31.2567 8.47275 31.2567 8.70912C31.2567 8.77864 31.2424 8.84816 31.228 8.93159C31.2137 9.01502 31.185 9.12625 31.1277 9.2792L27.6716 20.0273C27.5856 20.3053 27.4852 20.4861 27.3705 20.5695C27.2558 20.653 27.0693 20.7086 26.8256 20.7086H25.5923C25.3198 20.7086 25.1334 20.6669 25.0187 20.5695C24.9039 20.4722 24.8036 20.2914 24.7462 20.0134L22.5234 11.0451L20.315 19.9994C20.2433 20.2775 20.1573 20.4583 20.0426 20.5556C19.9278 20.653 19.7271 20.6947 19.4689 20.6947H18.2357ZM36.6631 21.0701C35.9174 21.0701 35.1716 20.9867 34.4546 20.8198C33.7376 20.653 33.1783 20.4722 32.8055 20.2636C32.576 20.1385 32.4183 19.9994 32.3609 19.8743C32.3036 19.7492 32.2749 19.6101 32.2749 19.485V18.7759C32.2749 18.4839 32.3896 18.3448 32.6047 18.3448C32.6908 18.3448 32.7768 18.3587 32.8629 18.3865C32.9489 18.4144 33.078 18.47 33.2214 18.5256C33.7089 18.7342 34.2395 18.901 34.7988 19.0122C35.3724 19.1235 35.9317 19.1791 36.5053 19.1791C37.4088 19.1791 38.1114 19.0261 38.599 18.7202C39.0866 18.4144 39.3447 17.9694 39.3447 17.3993C39.3447 17.01 39.2156 16.6902 38.9575 16.426C38.6994 16.1618 38.2118 15.9255 37.5091 15.703L35.4298 15.0773C34.3829 14.7575 33.6086 14.2848 33.1353 13.6591C32.6621 13.0473 32.4183 12.366 32.4183 11.6429C32.4183 11.059 32.5474 10.5445 32.8055 10.0996C33.0636 9.65462 33.4078 9.2653 33.838 8.9594C34.2682 8.6396 34.7558 8.40323 35.3294 8.23637C35.903 8.06952 36.5053 8 37.1363 8C37.4518 8 37.7816 8.0139 38.0971 8.05562C38.4269 8.09733 38.7281 8.15295 39.0292 8.20857C39.316 8.27809 39.5885 8.34761 39.8466 8.43103C40.1047 8.51446 40.3055 8.59789 40.4489 8.68131C40.6497 8.79255 40.7931 8.90378 40.8791 9.02892C40.9652 9.14016 41.0082 9.2931 41.0082 9.48776V10.1413C41.0082 10.4333 40.8935 10.5862 40.6784 10.5862C40.5636 10.5862 40.3772 10.5306 40.1334 10.4194C39.316 10.0578 38.3982 9.87709 37.3801 9.87709C36.5627 9.87709 35.9174 10.0022 35.4728 10.2664C35.0282 10.5306 34.7988 10.9338 34.7988 11.5039C34.7988 11.8932 34.9422 12.2269 35.229 12.4911C35.5158 12.7553 36.0464 13.0195 36.8065 13.2558L38.8428 13.8815C39.8753 14.2013 40.621 14.6463 41.0655 15.2164C41.5101 15.7864 41.7252 16.4399 41.7252 17.163C41.7252 17.7608 41.5961 18.3031 41.3524 18.7759C41.0942 19.2486 40.7501 19.6657 40.3055 19.9994C39.861 20.3471 39.3304 20.5973 38.7137 20.7781C38.0684 20.9727 37.3944 21.0701 36.6631 21.0701Z" fill="#252F3E"/>
</g>
<defs>
<clipPath id="clip0_33_150">
<rect width="44" height="25" fill="white"/>
</clipPath>
</defs>
</svg>
