<svg width="27" height="28" viewBox="0 0 27 28" fill="none" xmlns="http://www.w3.org/2000/svg">
<path d="M26.8054 14.3094C26.8054 13.1584 26.7141 12.3185 26.5167 11.4475H13.6763V16.6424H21.2133C21.0614 17.9334 20.2408 19.8777 18.4173 21.1841L18.3917 21.358L22.4516 24.5773L22.7329 24.606C25.3161 22.164 26.8054 18.5711 26.8054 14.3094" fill="#4285F4"/>
<path d="M13.6764 27.9967C17.3689 27.9967 20.4688 26.7523 22.733 24.606L18.4174 21.184C17.2626 22.0084 15.7126 22.5839 13.6764 22.5839C10.0598 22.5839 6.99031 20.142 5.89611 16.7668L5.73573 16.7808L1.51419 20.1249L1.45898 20.2819C3.70793 24.8547 8.32744 27.9967 13.6764 27.9967" fill="#34A853"/>
<path d="M5.89588 16.767C5.60717 15.896 5.44008 14.9627 5.44008 13.9984C5.44008 13.034 5.60717 12.1008 5.88069 11.2298L5.87304 11.0443L1.59861 7.64648L1.45875 7.71457C0.531856 9.61216 0 11.7431 0 13.9984C0 16.2537 0.531856 18.3845 1.45875 20.2821L5.89588 16.767" fill="#FBBC05"/>
<path d="M13.6764 5.41268C16.2444 5.41268 17.9767 6.54811 18.9645 7.49695L22.8242 3.63959C20.4537 1.38429 17.3689 0 13.6764 0C8.32744 0 3.70793 3.14184 1.45898 7.71462L5.88092 11.2298C6.99031 7.85466 10.0598 5.41268 13.6764 5.41268" fill="#EB4335"/>
</svg>
