<svg width="52" height="52" viewBox="0 0 52 52" fill="none" xmlns="http://www.w3.org/2000/svg">
<circle cx="25.5769" cy="25.5769" r="25.5769" fill="#00B2D6"/>
<path d="M21.9213 20.2405C23.2933 20.2498 24.3433 20.6325 25.0713 21.3885C25.7993 22.1351 26.1679 23.2225 26.1773 24.6505V29.1585C26.1586 29.6251 25.9393 29.8631 25.5193 29.8725C25.0899 29.8538 24.8659 29.6158 24.8473 29.1585V26.9325H18.9673V29.1725C18.9486 29.6298 18.7293 29.8631 18.3093 29.8725C17.8986 29.8631 17.6839 29.6298 17.6653 29.1725V24.6505C17.6653 23.9505 17.7586 23.3205 17.9453 22.7605C18.0479 22.4618 18.1646 22.2098 18.2953 22.0045C18.4446 21.7525 18.7433 21.4025 19.1913 20.9545C19.6579 20.4971 20.5679 20.2591 21.9213 20.2405ZM24.8473 25.7145V24.5945C24.8473 23.5678 24.5953 22.7885 24.0913 22.2565C23.5966 21.7245 22.8686 21.4585 21.9073 21.4585C20.9459 21.4585 20.2133 21.7245 19.7093 22.2565C19.2146 22.7885 18.9673 23.5678 18.9673 24.5945V25.7145H24.8473ZM31.4101 26.4005L33.6361 28.7665C33.7761 28.9065 33.8461 29.0698 33.8461 29.2565C33.8181 29.6578 33.6081 29.8631 33.2161 29.8725C33.0294 29.8725 32.8661 29.7885 32.7261 29.6205L30.5841 27.1705L28.4421 29.6345C28.3114 29.8025 28.1434 29.8818 27.9381 29.8725C27.5554 29.8445 27.3594 29.6438 27.3501 29.2705C27.3501 29.0931 27.4108 28.9438 27.5321 28.8225L29.7721 26.4285L27.6301 24.1185C27.4901 23.9785 27.4201 23.8151 27.4201 23.6285C27.4481 23.2271 27.6581 23.0218 28.0501 23.0125C28.2461 23.0125 28.4094 23.0965 28.5401 23.2645L30.5981 25.6445L32.6841 23.2505C32.8148 23.0825 32.9828 23.0031 33.1881 23.0125C33.5708 23.0405 33.7668 23.2411 33.7761 23.6145C33.7761 23.7825 33.7154 23.9318 33.5941 24.0625L31.4101 26.4005Z" fill="white"/>
</svg>
