<svg width="44" height="48" viewBox="0 0 44 48" fill="none" xmlns="http://www.w3.org/2000/svg">
<path d="M26.3399 6.04087C26.2712 6.06337 25.9103 6.19462 25.5287 6.32962C23.4868 7.05712 22.0396 7.90087 21.6821 8.57212C21.5446 8.82712 21.5206 9.03712 21.5996 9.24337C21.689 9.47587 21.854 9.65587 22.3078 10.0046C22.5209 10.1696 22.8818 10.5071 23.119 10.7621C24.2431 11.9846 24.7862 13.4846 24.7243 15.1796C24.6556 17.0884 23.834 18.9971 22.2665 20.9021C21.7199 21.5696 21.1562 22.1246 20.0803 23.0659C19.1831 23.8496 18.6949 24.3596 18.3615 24.8509C17.3406 26.3659 17.6156 27.7159 19.1693 28.8446C20.5409 29.8421 22.9574 30.6709 25.8106 31.1209C26.7662 31.2709 27.8456 31.3684 28.1068 31.3271L28.289 31.2971L28.5743 30.7346C30.0215 27.8959 30.7503 25.2146 30.8396 22.4434C30.8774 21.2059 30.7365 19.7434 30.4924 18.8884C30.4478 18.7346 30.4168 18.6034 30.4203 18.5996C30.4237 18.5959 30.8293 18.4609 31.3174 18.3034C33.8921 17.4671 36.3843 16.8071 38.4434 16.4171C38.8456 16.3421 39.1859 16.2634 39.2031 16.2446C39.3131 16.1284 38.9934 15.5809 38.4709 14.9959C36.5459 12.8284 33.1427 11.1784 29.1484 10.4734C28.3784 10.3384 28.2856 10.2896 28.0003 9.87712C27.5465 9.22087 27.1203 8.10337 26.5393 6.05212C26.5221 5.98462 26.5049 5.98462 26.3399 6.04087ZM26.6046 6.81337C26.8281 7.48087 26.9656 8.00212 26.9656 8.18587V8.33212L26.7765 8.30962C25.7487 8.17837 24.1056 7.90087 23.7549 7.79962C23.6656 7.77337 23.614 7.73587 23.6312 7.70587C23.6587 7.66087 24.0059 7.47712 25.044 6.96337C26.0099 6.48337 26.3778 6.30712 26.4087 6.30337C26.4224 6.29962 26.5084 6.53212 26.6046 6.81337ZM24.4287 8.21962C25.6834 8.50837 26.6012 8.68837 26.8006 8.68837C26.9965 8.68837 26.9759 8.70712 26.0512 9.32212C25.3396 9.79462 25.2571 9.83962 25.0784 9.83962H24.8824L24.3531 9.25837C23.7137 8.55337 23.2806 8.03587 23.2806 7.97587C23.2806 7.95337 23.2943 7.94587 23.3115 7.95712C23.3287 7.96087 23.834 8.08087 24.4287 8.21962ZM23.5006 8.86837C23.8099 9.26212 24.0471 9.59212 24.0334 9.60337C24.0059 9.62962 23.1259 9.39337 22.5896 9.21337C22.1187 9.05587 22.0637 9.00337 22.1874 8.82712C22.2699 8.71087 22.8749 8.15962 22.9196 8.15587C22.9334 8.15587 23.1912 8.47462 23.5006 8.86837ZM27.5087 9.67837C27.6324 9.99712 27.7253 10.2559 27.7218 10.2596C27.7149 10.2634 26.0649 9.98587 25.9206 9.95587C25.8896 9.94837 26.1681 9.74212 26.5462 9.49087C26.9243 9.23962 27.2406 9.05212 27.2577 9.07087C27.2749 9.08962 27.3849 9.35962 27.5087 9.67837ZM23.9096 10.2859C23.9406 10.3196 24.3359 11.7034 24.3187 11.7221C24.3118 11.7296 24.1262 11.4934 23.9028 11.1934C23.6793 10.8934 23.3424 10.4696 23.1465 10.2521L22.7959 9.85087L23.339 10.0571C23.6415 10.1659 23.8959 10.2709 23.9096 10.2859ZM25.4874 10.4696C26.1715 10.5746 26.7387 10.6721 26.749 10.6834C26.7593 10.6946 26.3434 11.0471 25.8312 11.4634C25.3156 11.8796 24.8928 12.2171 24.8859 12.2096C24.879 12.2021 24.8274 12.0296 24.769 11.8196C24.7106 11.6134 24.5662 11.1821 24.4459 10.8596C24.3256 10.5371 24.2293 10.2746 24.2362 10.2746C24.2396 10.2746 24.8034 10.3646 25.4874 10.4696ZM27.2062 11.0659C27.3574 11.4521 27.4159 11.8196 27.4399 12.5584C27.4537 12.9559 27.4537 13.2784 27.4434 13.2784C27.4296 13.2784 27.2131 13.1959 26.9621 13.0984C26.4603 12.8996 25.4771 12.5471 25.3603 12.5209C25.3087 12.5096 25.5459 12.2621 26.1715 11.6771C26.6562 11.2196 27.0687 10.8484 27.0893 10.8484C27.1065 10.8484 27.1581 10.9459 27.2062 11.0659ZM28.9696 11.1596C29.7259 11.3284 30.3893 11.4784 30.4409 11.4934C30.5165 11.5121 30.3343 11.6359 29.5334 12.1159C28.9834 12.4459 28.3578 12.8209 28.1446 12.9521C27.9315 13.0834 27.7528 13.1846 27.7493 13.1809C27.7459 13.1771 27.7665 13.0534 27.7974 12.9071C27.9109 12.3709 27.8387 11.7034 27.6118 11.1709C27.5465 11.0171 27.4915 10.8784 27.4915 10.8709C27.4949 10.8296 27.6324 10.8596 28.9696 11.1596ZM31.0356 12.1684C30.9978 12.3559 30.9118 12.6746 30.8465 12.8809C30.7021 13.3346 30.1728 14.5159 30.1006 14.5459C30.0731 14.5571 29.8221 14.4334 29.5506 14.2684C29.279 14.1034 28.8837 13.8859 28.6774 13.7846L28.2993 13.6009L29.6846 12.6296C30.8328 11.8271 31.0734 11.6734 31.0871 11.7446C31.0974 11.7934 31.0734 11.9809 31.0356 12.1684ZM32.0496 11.8234C33.4865 12.2734 35.0059 12.8809 34.9165 12.9709C34.8993 12.9896 34.7103 13.0571 34.5006 13.1209C33.4143 13.4546 31.9053 14.0246 31.2006 14.3659C30.9806 14.4709 30.7915 14.5496 30.7812 14.5346C30.7709 14.5234 30.8568 14.1784 30.9737 13.7659C31.2006 12.9559 31.4653 11.8646 31.4653 11.7259C31.4653 11.6659 31.4859 11.6434 31.5374 11.6584C31.5718 11.6734 31.8021 11.7484 32.0496 11.8234ZM25.8656 13.4509C26.1921 13.5671 26.5771 13.7284 26.7181 13.8071C26.9724 13.9459 26.9759 13.9496 26.9037 14.0359C26.7731 14.1934 25.3465 15.6446 25.3053 15.6596C25.2846 15.6671 25.2674 15.4496 25.2674 15.1309C25.2674 14.5796 25.209 13.5821 25.1643 13.3609C25.1299 13.1921 25.1574 13.1959 25.8656 13.4509ZM34.9956 13.7396C34.6828 14.3059 34.1637 15.1121 33.7924 15.6221C33.4109 16.1434 32.6031 17.1221 32.5549 17.1221C32.5378 17.1221 32.4209 16.9646 32.2937 16.7696C31.8331 16.0534 31.3003 15.4346 30.8328 15.0746C30.7881 15.0409 30.7606 15.0034 30.7709 14.9921C30.7812 14.9809 31.5478 14.6734 32.4724 14.3059C34.3424 13.5671 35.1674 13.2671 35.219 13.3046C35.2259 13.3084 35.1262 13.5034 34.9956 13.7396ZM36.1643 13.6421C37.4568 14.6246 38.3334 15.4196 38.6496 15.8959C38.7287 16.0159 38.7871 16.1171 38.7803 16.1246C38.7734 16.1321 38.3574 16.1809 37.8556 16.2371C35.8515 16.4509 34.4249 16.6721 33.6687 16.8821C33.4659 16.9384 33.2974 16.9796 33.294 16.9759C33.2906 16.9721 33.4246 16.7921 33.5931 16.5709C34.4662 15.4271 35.2568 14.2384 35.549 13.6196C35.6281 13.4546 35.7037 13.3234 35.7174 13.3234C35.7346 13.3234 35.934 13.4659 36.1643 13.6421ZM28.9318 14.8609C29.1793 15.0071 29.3684 15.1384 29.3581 15.1609C29.3374 15.2021 27.1615 16.5034 27.1409 16.4846C27.1374 16.4809 27.2474 16.0909 27.3918 15.6146C27.5362 15.1384 27.6737 14.6209 27.7012 14.4634L27.7493 14.1746L28.1171 14.3884C28.3199 14.5046 28.6843 14.7146 28.9318 14.8609ZM27.1065 14.9359C26.8968 15.7309 26.4706 16.7584 26.2746 16.9346C26.2299 16.9759 26.1406 16.9196 25.8553 16.6646C25.6524 16.4884 25.4462 16.3121 25.3912 16.2709C25.3396 16.2296 25.2984 16.1884 25.3087 16.1771C25.4599 16.0159 27.1924 14.4896 27.2028 14.5121C27.2062 14.5271 27.1649 14.7184 27.1065 14.9359ZM31.0527 16.3196C31.3793 16.5596 32.1081 17.2684 32.0702 17.3134C32.0599 17.3246 31.3209 17.5871 30.4306 17.8946C29.5403 18.2021 28.5468 18.5509 28.2237 18.6671C27.9006 18.7871 27.6324 18.8771 27.629 18.8734C27.6256 18.8696 27.8524 18.5884 28.1309 18.2471C28.8596 17.3584 29.609 16.4096 29.8771 16.0346L30.1074 15.7121L30.4065 15.8884C30.5681 15.9859 30.8603 16.1809 31.0527 16.3196ZM29.3649 15.8096C29.3443 15.8396 29.1484 16.1096 28.9284 16.4134C28.7084 16.7171 28.179 17.4559 27.7528 18.0559L26.9759 19.1471L26.9518 18.9634C26.9037 18.6071 26.7284 17.9059 26.6287 17.6696L26.529 17.4296L27.024 17.1596C27.5328 16.8821 28.5984 16.2521 29.0968 15.9334C29.4028 15.7384 29.4234 15.7271 29.3649 15.8096ZM25.2399 17.1296C25.4428 17.2421 25.6318 17.3921 25.6318 17.4371C25.6318 17.5084 24.3153 18.6184 24.2774 18.5771C24.2706 18.5659 24.3874 18.3109 24.5421 18.0071C24.6968 17.7034 24.8515 17.3621 24.8893 17.2459C24.9271 17.1296 24.9821 17.0359 25.0131 17.0359C25.044 17.0321 25.1437 17.0771 25.2399 17.1296ZM26.3606 18.4946C26.4499 18.6896 26.5462 19.2334 26.4981 19.2821C26.4774 19.3009 25.9343 19.5821 25.2881 19.9084C24.6418 20.2309 23.7996 20.6659 23.4146 20.8759C23.0296 21.0859 22.7374 21.2321 22.7684 21.2059C22.7959 21.1796 23.2187 20.7896 23.7103 20.3471C24.659 19.4884 25.7384 18.4609 25.9343 18.2321L26.0546 18.0934L26.1715 18.2134C26.2334 18.2809 26.3193 18.4084 26.3606 18.4946ZM25.2984 18.4834C25.2056 18.5771 24.6968 19.0571 24.1743 19.5521C23.6518 20.0471 23.0228 20.6434 22.7787 20.8759C22.2837 21.3446 22.2837 21.3446 22.9162 20.4484C23.4043 19.7546 23.6587 19.4959 24.3599 18.9821C24.7003 18.7346 25.3774 18.3146 25.4462 18.3146C25.4565 18.3146 25.3912 18.3896 25.2984 18.4834ZM30.2037 18.9559C30.2278 19.1021 30.2621 19.5559 30.2759 19.9609L30.2999 20.6996L30.1418 20.6209C29.5987 20.3471 28.0724 19.4096 28.1309 19.3834C28.4643 19.2371 30.1109 18.6409 30.1315 18.6634C30.1453 18.6784 30.1796 18.8096 30.2037 18.9559ZM28.9112 20.2796C29.5471 20.6884 30.0731 21.0259 30.0799 21.0334C30.0868 21.0409 30.0043 21.1159 29.9012 21.1984C29.6984 21.3596 27.5465 22.5746 27.5156 22.5446C27.5053 22.5334 27.5362 22.3309 27.5809 22.0984C27.6703 21.6259 27.7459 20.2159 27.7115 19.7696C27.6978 19.6121 27.7046 19.4996 27.7253 19.5146C27.739 19.5259 28.2753 19.8709 28.9112 20.2796ZM27.1546 19.9796C27.2028 20.4184 27.1443 21.2996 27.0343 21.7609C26.9071 22.3009 26.8315 22.5259 26.7765 22.5446C26.7009 22.5709 26.2299 22.1059 25.9446 21.7159C25.6559 21.3221 25.2743 20.5834 25.3328 20.5234C25.3671 20.4859 27.0446 19.7321 27.0996 19.7321C27.1134 19.7284 27.1374 19.8409 27.1546 19.9796ZM25.0956 21.0821C25.2743 21.4834 25.6799 22.0609 26.1234 22.5521C26.4087 22.8671 26.4809 22.9684 26.4362 23.0021C26.2368 23.1484 25.3431 23.6059 24.7793 23.8459C24.0953 24.1384 23.2049 24.4759 23.1843 24.4459C23.1774 24.4346 23.3803 24.0296 23.6381 23.5459C24.1949 22.4921 24.8996 20.9959 24.8996 20.8721C24.9031 20.7184 24.9615 20.7821 25.0956 21.0821ZM24.0403 21.1084C24.0299 21.1384 23.944 21.3709 23.8512 21.6259C23.4559 22.7209 22.6859 24.2096 22.514 24.2096C22.3799 24.2096 22.184 23.3434 22.129 22.5109L22.1015 22.0909L23.0434 21.5734C23.5624 21.2884 24.0024 21.0559 24.0231 21.0559C24.0437 21.0521 24.0506 21.0784 24.0403 21.1084ZM30.3274 22.1209C30.3309 22.7509 30.0903 24.2771 29.9596 24.4309C29.9046 24.4946 29.3099 24.2546 28.7703 23.9509C28.289 23.6809 27.4949 23.1446 27.4949 23.0884C27.4949 23.0734 27.6153 23.0059 27.7665 22.9384C28.0518 22.8071 29.3821 22.0309 29.9459 21.6671L30.269 21.4571L30.2965 21.6184C30.3103 21.7084 30.324 21.9371 30.3274 22.1209ZM21.4553 22.8484C21.5103 23.3471 21.6512 23.9584 21.8265 24.4421C21.8987 24.6409 21.9503 24.8134 21.9399 24.8209C21.8712 24.8884 19.0421 25.7396 18.6674 25.8034L18.4887 25.8334L18.5162 25.6834C18.554 25.4696 18.829 24.8621 19.0318 24.5321C19.2862 24.1234 19.9118 23.4371 20.3243 23.1184C20.6337 22.8821 21.3762 22.4059 21.3968 22.4359C21.4106 22.4396 21.4312 22.6234 21.4553 22.8484ZM27.8731 23.9021C28.7462 24.3596 29.0762 24.5171 29.4956 24.6746L29.8153 24.7946L29.6124 24.9071C28.4678 25.5409 26.4396 26.4409 25.9171 26.5534C25.8003 26.5796 25.7831 26.5721 25.8071 26.5084C25.8965 26.2534 27.1065 23.5271 27.1306 23.5271C27.1443 23.5271 27.4812 23.6959 27.8731 23.9021ZM26.3365 23.8009C26.2746 24.1234 25.9412 25.1621 25.7487 25.6346C25.5802 26.0471 25.1918 26.8459 25.1231 26.9209C25.0921 26.9546 24.4012 26.5309 24.0746 26.2759C23.7068 25.9909 22.9024 25.1434 22.9265 25.0646C22.9368 25.0346 23.4249 24.8284 24.0162 24.6071C25.2606 24.1384 25.9549 23.8571 26.1578 23.7409C26.3503 23.6284 26.3674 23.6359 26.3365 23.8009ZM29.8153 25.2334C29.8049 25.3271 29.7328 25.7359 29.6571 26.1521C29.4199 27.4496 29.1312 28.3384 28.949 28.3384C28.6946 28.3384 26.9621 27.8809 26.4018 27.6634C26.0203 27.5171 25.6937 27.3484 25.5837 27.2471C25.5149 27.1834 25.5528 27.1609 26.0478 26.9396C27.6496 26.2271 29.499 25.3159 29.6984 25.1434C29.8187 25.0384 29.8359 25.0534 29.8153 25.2334ZM21.7028 25.6309C21.5206 25.9871 21.1493 26.5721 20.4378 27.6184L19.8328 28.5109L19.6506 28.3684C19.3962 28.1696 18.9906 27.6896 18.8221 27.3859C18.6399 27.0596 18.5162 26.6546 18.5024 26.3471L18.4921 26.1071L18.7912 26.0734C19.1968 26.0284 20.3346 25.7734 21.1424 25.5409C21.5103 25.4359 21.8162 25.3571 21.8231 25.3609C21.8265 25.3721 21.7749 25.4921 21.7028 25.6309ZM23.4662 26.5496C23.669 26.7071 23.9474 26.9096 24.0884 26.9996L24.3462 27.1646L24.2293 27.2171C24.164 27.2471 23.2221 27.6221 22.1324 28.0496C20.2728 28.7809 20.1524 28.8259 20.1009 28.7509C20.0699 28.7059 20.0493 28.6609 20.0528 28.6459C20.0562 28.6309 20.5581 27.9221 21.1699 27.0709L22.2803 25.5221L22.6893 25.8934C22.9196 26.0996 23.2634 26.3921 23.4662 26.5496ZM23.9234 28.8784C23.5178 29.5421 23.174 30.1009 23.1603 30.1159C23.1293 30.1609 22.4796 29.9959 21.9949 29.8159C21.4862 29.6284 20.8571 29.2834 20.6096 29.0509L20.4309 28.8821L20.8331 28.7621C22.4728 28.2746 24.6418 27.6484 24.6521 27.6559C24.659 27.6634 24.329 28.2146 23.9234 28.8784ZM25.8724 27.8734C26.7421 28.1996 27.5328 28.3834 28.5606 28.5034L28.8424 28.5371L28.0759 28.8371C26.1646 29.5909 24.6143 30.1196 23.8374 30.2846C23.6174 30.3296 23.4181 30.3709 23.3974 30.3709C23.3768 30.3709 23.5315 30.1384 23.7446 29.8534C24.329 29.0771 24.9615 28.1921 25.1299 27.9184C25.2124 27.7871 25.2949 27.6746 25.3121 27.6746C25.3328 27.6784 25.5837 27.7646 25.8724 27.8734ZM28.7221 29.6284C28.3921 30.5546 28.1515 31.1209 28.069 31.1546C27.9074 31.2221 25.649 30.8621 24.9581 30.6559C24.5009 30.5209 24.2087 30.3896 24.2946 30.3559C24.329 30.3446 24.6556 30.2584 25.0234 30.1684C26.2162 29.8759 28.0381 29.2721 28.7943 28.9196C28.8906 28.8746 28.9765 28.8409 28.9834 28.8484C28.9903 28.8559 28.8734 29.2046 28.7221 29.6284ZM15.3674 30.4121C15.2059 30.4871 15.1303 30.6334 15.1131 30.9071C15.0959 31.1621 15.0959 31.1659 14.979 31.1659C14.8621 31.1659 14.8587 31.1734 14.8724 31.3534C14.8828 31.5221 14.8965 31.5409 14.9962 31.5559L15.1062 31.5709V32.9434L15.2953 32.9246L15.4878 32.9096L15.5015 32.2346L15.5153 31.5596H16.079V32.0546C16.079 32.6696 16.1374 32.8309 16.3815 32.9209C16.4915 32.9621 16.5946 32.9696 16.7046 32.9434C16.8593 32.9096 16.8662 32.8984 16.8799 32.7184L16.8937 32.5271L16.7596 32.5534C16.5259 32.5984 16.5121 32.5684 16.519 31.9459L16.5224 31.5634H16.6393C16.8421 31.5634 16.8868 31.5221 16.8868 31.3384V31.1659H16.5224V31.0009C16.5224 30.7571 16.4846 30.7159 16.2749 30.7309L16.0962 30.7421L16.0824 30.9521L16.0687 31.1621H15.5084V31.0121C15.5084 30.8059 15.6081 30.7046 15.7799 30.7421C15.9106 30.7684 15.914 30.7684 15.914 30.6221C15.914 30.5434 15.8899 30.4496 15.8659 30.4196C15.8109 30.3671 15.4878 30.3596 15.3674 30.4121ZM6.40931 30.4834C6.234 30.6184 6.31994 30.8996 6.53994 30.8996C6.76681 30.8996 6.80806 30.8659 6.80806 30.6746C6.80463 30.4309 6.60525 30.3334 6.40931 30.4834ZM3.43244 30.6034C3.37056 30.6521 3.36369 30.7646 3.374 31.7846L3.38431 32.9096L3.57681 32.9246L3.76931 32.9396V31.9609C3.76931 31.4209 3.77963 30.9896 3.78994 31.0009C3.80369 31.0121 3.92056 31.3684 4.05463 31.7921C4.18869 32.2159 4.32619 32.6471 4.36056 32.7521L4.42588 32.9434L4.62869 32.9246L4.8315 32.9096L5.14088 31.9721L5.45025 31.0346L5.47088 31.9721C5.48463 32.4896 5.49838 32.9171 5.50181 32.9246C5.50525 32.9321 5.59806 32.9321 5.70119 32.9246L5.89369 32.9096L5.904 31.7884C5.91088 30.9971 5.90056 30.6484 5.86619 30.6034C5.794 30.5059 5.33681 30.5246 5.25431 30.6259C5.21994 30.6709 5.07556 31.0346 4.93806 31.4321C4.80056 31.8296 4.67681 32.1709 4.66306 32.1896C4.64931 32.2084 4.529 31.8896 4.39494 31.4846C4.26088 31.0721 4.11306 30.7046 4.0615 30.6484C3.98931 30.5696 3.92744 30.5471 3.73494 30.5471C3.60775 30.5471 3.47025 30.5734 3.43244 30.6034ZM7.59869 31.1659C7.30306 31.2709 7.12775 31.6046 7.12775 32.0734C7.12775 32.5984 7.30994 32.8834 7.69494 32.9546C7.87025 32.9884 8.16931 32.9134 8.27244 32.8121C8.34119 32.7446 8.37213 32.4934 8.31713 32.4371C8.30338 32.4221 8.22775 32.4484 8.14869 32.4971C7.8565 32.6696 7.63994 32.5721 7.57119 32.2384C7.5265 32.0171 7.57463 31.7321 7.68119 31.6084C7.76713 31.5071 7.98025 31.4996 8.14525 31.5934C8.29994 31.6796 8.34463 31.6496 8.34463 31.4546C8.34463 31.3459 8.32056 31.2859 8.24838 31.2371C8.12463 31.1434 7.76025 31.1096 7.59869 31.1659ZM9.1765 31.2559C9.03556 31.3909 9.03556 31.3909 9.02181 31.2896C9.0115 31.2034 8.984 31.1846 8.83619 31.1734L8.66431 31.1584V32.9284H9.06994V32.3809C9.06994 31.8334 9.06994 31.8334 9.19025 31.6909C9.28994 31.5746 9.33463 31.5521 9.45494 31.5671C9.60619 31.5859 9.63713 31.5484 9.63713 31.3421C9.63713 31.0871 9.40338 31.0421 9.1765 31.2559ZM10.2971 31.1734C9.97056 31.2784 9.77119 31.6946 9.81244 32.1859C9.85025 32.6396 10.0634 32.8984 10.4484 32.9584C11.129 33.0596 11.5724 32.4521 11.3799 31.6871C11.2631 31.2371 10.7956 31.0121 10.2971 31.1734ZM10.7715 31.5184C10.9846 31.6421 11.0396 32.1821 10.8643 32.4371C10.7543 32.5946 10.5103 32.6246 10.3624 32.4971C10.2731 32.4184 10.2662 32.3809 10.2662 32.0509C10.2662 31.7096 10.2731 31.6834 10.3796 31.5821C10.4965 31.4696 10.6478 31.4471 10.7715 31.5184ZM11.9678 31.1846C11.7615 31.2821 11.6859 31.4134 11.6859 31.6571C11.6859 31.9196 11.7615 32.0171 12.1224 32.2046C12.3287 32.3134 12.3734 32.3546 12.3734 32.4484C12.3734 32.5271 12.3424 32.5721 12.2599 32.6021C12.1568 32.6396 12.0606 32.6209 11.734 32.5084C11.6721 32.4859 11.6618 32.5046 11.6721 32.6546C11.6824 32.7971 11.7065 32.8384 11.8062 32.8909C11.9746 32.9809 12.3803 32.9734 12.5487 32.8759C12.7928 32.7334 12.8684 32.3021 12.6896 32.0846C12.6484 32.0359 12.5006 31.9346 12.3528 31.8596C12.0846 31.7209 12.0193 31.6196 12.1121 31.4996C12.174 31.4209 12.3562 31.4209 12.5384 31.5034C12.6587 31.5596 12.6828 31.5596 12.7034 31.5071C12.7446 31.3871 12.6965 31.2446 12.5968 31.1884C12.4628 31.1096 12.119 31.1096 11.9678 31.1846ZM13.6074 31.1546C13.2499 31.2934 13.0884 31.5296 13.054 31.9496C13.0128 32.4671 13.1846 32.7971 13.5559 32.9171C14.1781 33.1159 14.6628 32.7221 14.6593 32.0209C14.6559 31.5971 14.4806 31.2859 14.1781 31.1734C14.0371 31.1209 13.7174 31.1096 13.6074 31.1546ZM14.0784 31.5821C14.1849 31.6796 14.1918 31.7096 14.1918 32.0209C14.1918 32.3134 14.1815 32.3659 14.0921 32.4671C13.9649 32.6134 13.7243 32.6246 13.604 32.4934C13.5009 32.3809 13.4699 32.2346 13.494 31.9309C13.5078 31.7321 13.5353 31.6646 13.6212 31.5784C13.7656 31.4434 13.934 31.4471 14.0784 31.5821ZM6.36806 32.0359L6.37838 32.9134H6.784V31.1884L6.57088 31.1771L6.35775 31.1621L6.36806 32.0359ZM4.43275 34.0159C3.91369 34.1396 3.52181 34.4509 3.31556 34.9121C3.18838 35.1934 3.1815 35.2346 3.1815 35.6921C3.1815 36.1346 3.19181 36.2021 3.2915 36.4271C3.50806 36.9109 3.90681 37.2521 4.73869 37.6646C5.64619 38.1146 5.89369 38.3921 5.89369 38.9659C5.89369 39.4871 5.67025 39.7984 5.17869 39.9634C4.69056 40.1284 4.20244 40.0496 3.56994 39.7046C3.36025 39.5884 3.17119 39.4871 3.15744 39.4796C3.14025 39.4721 3.10244 39.4984 3.06463 39.5359C2.989 39.6221 2.97525 40.0496 3.04744 40.1921C3.19869 40.5034 3.99275 40.7921 4.68369 40.7921C5.98306 40.7921 6.82181 39.9484 6.75306 38.7071C6.73931 38.4371 6.70838 38.3059 6.60525 38.0809C6.40244 37.6346 6.14119 37.4021 5.34713 36.9784C4.97931 36.7834 4.57713 36.5471 4.44994 36.4534C3.94806 36.0859 3.83119 35.4596 4.18525 35.0246C4.38119 34.7809 4.58056 34.7021 4.98963 34.6984C5.37806 34.6984 5.53619 34.7434 5.98306 34.9909C6.36806 35.2046 6.40244 35.1859 6.40244 34.7696C6.40244 34.3946 6.38181 34.3609 6.03119 34.1846C5.56713 33.9634 4.94494 33.8959 4.43275 34.0159ZM9.85025 33.9896C9.08369 34.1246 8.49244 34.5296 8.09713 35.1934C7.89775 35.5309 7.78775 35.8459 7.68463 36.3784C7.57119 36.9596 7.59869 38.2534 7.73275 38.7859C8.06275 40.0946 8.80181 40.7246 10.0668 40.7846C10.7337 40.8146 10.9915 40.7621 11.6446 40.4584C11.6687 40.4471 11.7787 40.5221 11.8887 40.6234C12.3081 41.0209 13.2293 41.5909 13.5524 41.6584C13.7518 41.6996 13.8068 41.6284 13.8068 41.3209C13.8068 41.1784 13.7965 41.0321 13.7828 40.9909C13.769 40.9496 13.5765 40.8184 13.3496 40.6946C13.0024 40.5071 12.3081 40.0196 12.3081 39.9634C12.3081 39.9521 12.3734 39.8546 12.449 39.7421C12.7756 39.2771 12.9715 38.6284 13.0403 37.7884C13.0918 37.1471 13.0437 36.4609 12.9096 35.9284C12.6656 34.9646 12.0709 34.3009 11.2321 34.0534C10.9537 33.9784 10.1562 33.9371 9.85025 33.9896ZM11.0671 34.8334C11.5484 35.0284 11.8681 35.4259 12.0537 36.0446C12.1465 36.3559 12.1637 36.4984 12.1809 37.1584C12.2049 38.0434 12.1431 38.4709 11.9299 38.9659C11.5896 39.7609 10.8437 40.1584 9.974 40.0121C8.89463 39.8321 8.42025 38.9434 8.47525 37.1996C8.50619 36.1984 8.67119 35.6734 9.09744 35.2309C9.34838 34.9684 9.53056 34.8521 9.82275 34.7734C10.1596 34.6759 10.7578 34.7059 11.0671 34.8334ZM20.8056 34.0196C20.3071 34.1509 19.8843 34.4884 19.7021 34.8934C19.4959 35.3584 19.489 36.0146 19.6849 36.4384C19.9153 36.9371 20.2246 37.1959 21.1871 37.6946C21.9159 38.0734 22.1599 38.2946 22.2596 38.6659C22.3765 39.1046 22.2253 39.5621 21.8884 39.8021C21.3624 40.1734 20.6131 40.1134 19.8121 39.6371C19.4512 39.4234 19.3996 39.4459 19.3996 39.8246C19.3996 40.1771 19.4443 40.2821 19.6643 40.4209C20.3415 40.8559 21.469 40.9121 22.1703 40.5521C23.0159 40.1171 23.3974 38.9734 22.9987 38.0659C22.9471 37.9496 22.8028 37.7471 22.6721 37.6084C22.4728 37.3946 22.3146 37.2896 21.6478 36.9334C20.5409 36.3409 20.3209 36.0859 20.3862 35.4821C20.4206 35.1821 20.5649 34.9609 20.8193 34.8221C20.9946 34.7246 21.0909 34.7059 21.359 34.7059C21.7578 34.7059 21.9193 34.7509 22.3215 34.9759C22.6653 35.1671 22.7374 35.1821 22.7753 35.0771C22.8234 34.9459 22.7993 34.5071 22.7409 34.4134C22.6618 34.2934 22.2596 34.0984 21.9193 34.0196C21.579 33.9409 21.1115 33.9371 20.8056 34.0196ZM14.5046 34.0909C14.4668 34.1321 14.4565 34.9084 14.4565 37.3159V40.4884L14.5562 40.5971L14.6559 40.7059H16.0928C17.1928 40.7059 17.5365 40.6909 17.5709 40.6496C17.6328 40.5634 17.6603 40.3046 17.6259 40.1321L17.5949 39.9784L16.4434 39.9559L15.2918 39.9334L15.2815 37.0196C15.2746 34.7584 15.2609 34.0984 15.2231 34.0721C15.1371 34.0196 14.5596 34.0309 14.5046 34.0909ZM25.3087 35.7484C25.1128 35.7821 24.7209 35.9509 24.5593 36.0709C24.1709 36.3596 23.8959 36.8209 23.7412 37.4396C23.6449 37.8334 23.6449 38.8046 23.7412 39.2059C23.9406 40.0271 24.3806 40.5259 25.0818 40.7284C25.3878 40.8146 26.1612 40.8146 26.5393 40.7284C26.8968 40.6459 27.2681 40.4959 27.3368 40.4096C27.4021 40.3271 27.3987 39.8809 27.3334 39.8096C27.299 39.7721 27.1924 39.7984 26.9071 39.9034C25.8106 40.3084 24.9649 40.1321 24.6384 39.4309C24.5421 39.2246 24.4528 38.8121 24.4528 38.5796V38.4559H25.8449C26.7249 38.4559 27.2818 38.4371 27.3609 38.4071C27.5396 38.3396 27.5878 38.1709 27.5568 37.7359C27.4949 36.8734 27.2303 36.3334 26.7112 35.9921C26.3812 35.7746 25.7693 35.6659 25.3087 35.7484ZM26.0512 36.4421C26.4637 36.5771 26.7181 36.9596 26.7559 37.4884L26.7765 37.7921H24.4459L24.4734 37.6084C24.5456 37.1509 24.7209 36.8096 24.9924 36.6071C25.2984 36.3784 25.6799 36.3184 26.0512 36.4421ZM30.0353 35.7596C29.8428 35.8271 29.5643 36.0709 29.3649 36.3446L29.1724 36.6146L29.1518 36.2209L29.1312 35.8271L28.8906 35.8121C28.7565 35.8046 28.6087 35.8084 28.5571 35.8234L28.4643 35.8459V38.2496C28.4643 40.4021 28.4712 40.6534 28.5296 40.6796C28.6121 40.7134 29.0899 40.7134 29.169 40.6796C29.2274 40.6571 29.2343 40.4734 29.2343 39.0859V37.5184L29.4131 37.2446C29.6571 36.8696 29.9734 36.5659 30.1556 36.5284C30.2518 36.5096 30.4031 36.5246 30.5818 36.5734C30.7571 36.6221 30.874 36.6334 30.8981 36.6071C30.9187 36.5846 30.9324 36.4046 30.9256 36.2171C30.9153 35.8796 30.9084 35.8646 30.7949 35.8084C30.654 35.7334 30.1899 35.7034 30.0353 35.7596ZM37.0065 35.7634C36.6868 35.8234 36.2331 36.0784 35.9993 36.3334C35.5559 36.8171 35.3703 37.4846 35.4012 38.4746C35.4287 39.3671 35.5799 39.8096 36.0096 40.2484C36.4187 40.6721 36.8518 40.8109 37.6356 40.7846C38.2096 40.7621 38.7253 40.6384 38.9624 40.4659C39.0793 40.3796 39.0931 40.3459 39.1034 40.1284C39.1102 39.9971 39.0965 39.8584 39.0759 39.8209C39.0346 39.7496 39.069 39.7421 38.3849 39.9784C38.1065 40.0721 37.9587 40.0946 37.6149 40.0984C36.9343 40.1021 36.5837 39.9034 36.3534 39.3934C36.2571 39.1796 36.2228 39.0296 36.2056 38.7821L36.1849 38.4559L37.6424 38.4446C39.3921 38.4296 39.2753 38.4709 39.2718 37.8821C39.2684 36.8471 38.8593 36.1271 38.1203 35.8459C37.8521 35.7484 37.3124 35.7071 37.0065 35.7634ZM37.7696 36.4459C38.1718 36.5771 38.4365 36.9671 38.4915 37.5184L38.519 37.7921H36.1884L36.2124 37.5709C36.2709 37.0309 36.6112 36.5659 37.0512 36.4196C37.2196 36.3634 37.5496 36.3784 37.7696 36.4459ZM41.7846 35.7559C41.5234 35.8496 41.1624 36.1796 40.9631 36.5059C40.8978 36.6146 40.8943 36.6071 40.8943 36.2621C40.8943 36.0446 40.8771 35.8871 40.8462 35.8571C40.7809 35.7859 40.279 35.7859 40.2137 35.8571C40.1449 35.9321 40.1449 40.5784 40.2137 40.6534C40.279 40.7246 40.8599 40.7246 40.9253 40.6534C40.9596 40.6159 40.9734 40.1959 40.9734 39.0521V37.5034L41.1246 37.2596C41.3481 36.8959 41.6299 36.6109 41.8259 36.5471C41.9943 36.4909 42.0596 36.4984 42.5099 36.6259C42.6371 36.6634 42.6749 36.5846 42.6749 36.2884C42.6749 35.9584 42.6474 35.8684 42.5203 35.8046C42.3896 35.7409 41.9187 35.7071 41.7846 35.7559ZM31.0184 35.8721C30.9771 35.9284 31.1009 36.3409 31.7265 38.2459C32.1424 39.5134 32.5171 40.5896 32.5584 40.6384C32.7131 40.8109 33.4796 40.7696 33.5484 40.5859C33.5999 40.4396 35.0196 36.1384 35.0471 36.0371C35.0953 35.8609 35.0093 35.8084 34.6621 35.8084C34.4593 35.8084 34.3321 35.8271 34.3081 35.8646C34.2874 35.8946 33.9987 36.7909 33.6687 37.8559C33.3387 38.9209 33.0568 39.7759 33.0396 39.7534C33.0224 39.7346 32.7406 38.8646 32.414 37.8184C32.0874 36.7721 31.7987 35.8946 31.7746 35.8609C31.7127 35.7746 31.0803 35.7859 31.0184 35.8721Z" fill="black"/>
</svg>
