<svg width="43" height="30" viewBox="0 0 43 30" fill="none" xmlns="http://www.w3.org/2000/svg">
<g clipPath="url(#clip0_33_159)">
<path d="M10.7833 26.9169H9.18744C9.13132 24.1476 8.97575 21.5435 8.72148 19.1042H8.70742L6.27767 26.9169H5.06261L2.64758 19.1042H2.63336C2.45416 21.4468 2.34142 24.0509 2.29441 26.9169H0.839355C0.933384 23.4314 1.1687 20.1641 1.54531 17.1141H3.52325L5.8256 24.3169H5.83973L8.1562 17.1141H10.0488C10.4632 20.6861 10.7079 23.9545 10.7831 26.9169" fill="#00758F"/>
<path d="M17.7057 19.6845C17.0558 23.3097 16.1986 25.9441 15.1346 27.5875C14.3056 28.8538 13.3975 29.4869 12.4086 29.4869C12.1449 29.4869 11.8198 29.4053 11.4341 29.2431V28.3692C11.6225 28.3976 11.8437 28.4127 12.098 28.4127C12.5593 28.4127 12.9312 28.2816 13.214 28.02C13.5528 27.7012 13.7223 27.3428 13.7223 26.9457C13.7223 26.6745 13.5901 26.1179 13.3268 25.276L11.5754 19.6845H13.1432L14.4002 23.8664C14.6825 24.8159 14.8003 25.4787 14.7532 25.8565C15.4407 23.9686 15.921 21.9112 16.1942 19.6845H17.7056" fill="#00758F"/>
<path d="M24.6963 24.1997C24.6963 25.031 24.3992 25.7135 23.807 26.2475C23.2142 26.7792 22.4179 27.0457 21.4208 27.0457C20.4881 27.0457 19.5843 26.7389 18.7087 26.1304L19.1183 25.2884C19.8718 25.6756 20.5536 25.8689 21.1658 25.8689C21.7401 25.8689 22.1895 25.7375 22.5147 25.478C22.8391 25.2165 23.0336 24.8518 23.0336 24.3893C23.0336 23.8072 22.6387 23.3097 21.9143 22.8923C21.2455 22.515 19.909 21.7272 19.909 21.7272C19.1848 21.1841 18.8217 20.6014 18.8217 19.6413C18.8217 18.8472 19.0925 18.2053 19.6333 17.717C20.1753 17.2276 20.8746 16.983 21.7309 16.983C22.6161 16.983 23.421 17.2258 24.1459 17.7098L23.7777 18.5511C23.1574 18.2807 22.5457 18.145 21.9426 18.145C21.4533 18.145 21.0762 18.2658 20.8133 18.5088C20.5489 18.7497 20.3855 19.0597 20.3855 19.4375C20.3855 20.0181 20.7889 20.5216 21.5338 20.9471C22.2109 21.3246 23.5803 22.1276 23.5803 22.1276C24.3251 22.6697 24.6963 23.2477 24.6963 24.1997Z" fill="#F29111"/>
<path fillRule="evenodd" clipRule="evenodd" d="M27.5491 24.9559C27.1629 24.3169 26.9694 23.2915 26.9694 21.8776C26.9694 19.4092 27.6995 18.1742 29.1589 18.1742C29.922 18.1742 30.482 18.4696 30.8401 19.0597C31.2258 19.699 31.4193 20.7155 31.4193 22.1097C31.4193 24.5978 30.6892 25.8424 29.2298 25.8424C28.467 25.8424 27.9068 25.5473 27.5491 24.956M33.2272 27.1533L31.4747 26.2648C31.6307 26.1332 31.7789 25.9913 31.9131 25.827C32.6572 24.9276 33.0296 23.5964 33.0296 21.8341C33.0296 18.5911 31.7912 16.9687 29.3147 16.9687C28.1 16.9687 27.1533 17.3799 26.4754 18.2035C25.7311 19.104 25.3594 20.4301 25.3594 22.1825C25.3594 23.9056 25.6887 25.1697 26.3479 25.9726C26.9485 26.6984 27.8568 27.0618 29.0728 27.0618C29.5264 27.0618 29.9427 27.0044 30.321 26.8896L32.6033 28.255L33.2255 27.1532" fill="#F29111"/>
<path d="M38.9482 26.9169H34.4144V17.1141H35.9401V25.711H38.9482V26.9168" fill="#F29111"/>
<path d="M40.0362 26.9158H40.289V25.9185H40.6199V25.7148H39.6926V25.9185H40.0362V26.9158ZM41.9599 26.9158H42.1982V25.7148H41.8398L41.5481 26.5335L41.2306 25.7148H40.8852V26.9158H41.1107V26.0017H41.1235L41.456 26.9158H41.6278L41.9599 26.0017V26.9158Z" fill="#F29111"/>
<path fillRule="evenodd" clipRule="evenodd" d="M40.8633 13.8306C39.9412 13.8069 39.2271 13.9015 38.6283 14.1623C38.4555 14.2332 38.1793 14.2332 38.1557 14.4583C38.2485 14.5529 38.2595 14.7067 38.3408 14.8376C38.4786 15.0745 38.7201 15.3938 38.9394 15.56C39.1813 15.7496 39.4233 15.9384 39.6771 16.1042C40.1261 16.3897 40.6331 16.5548 41.0703 16.8392C41.3246 17.0048 41.5771 17.2178 41.8314 17.3959C41.9577 17.4906 42.0377 17.6449 42.1996 17.7035V17.6676C42.1184 17.5613 42.0957 17.4073 42.0155 17.2882C41.9006 17.1707 41.7851 17.0634 41.6697 16.9455C41.3354 16.4836 40.9201 16.0813 40.4719 15.7496C40.1029 15.4884 39.2961 15.133 39.1469 14.6961C39.1469 14.6961 39.1348 14.6835 39.1235 14.6719C39.377 14.6478 39.6771 14.5529 39.9188 14.4811C40.3099 14.3748 40.6671 14.3988 41.0703 14.2925C41.2549 14.2448 41.4393 14.1852 41.6244 14.127V14.0196C41.4159 13.8069 41.2667 13.5222 41.0479 13.321C40.4608 12.8001 39.8149 12.2911 39.1469 11.8641C38.7892 11.6271 38.3285 11.4739 37.9482 11.2721C37.8106 11.2009 37.5804 11.1658 37.4994 11.0467C37.2919 10.7862 37.1762 10.4432 37.0268 10.1347C36.693 9.48404 36.3699 8.76179 36.0824 8.0737C35.8751 7.61211 35.7483 7.15052 35.4948 6.72385C34.3076 4.70996 33.0178 3.49068 31.0363 2.29419C30.61 2.04517 30.1032 1.93863 29.5621 1.80831C29.2737 1.79591 28.9859 1.77288 28.6979 1.76124C28.5133 1.67798 28.3287 1.45275 28.1677 1.34621C27.5107 0.920046 25.818 -0.00364304 25.3338 1.21613C25.0227 1.98646 25.7946 2.74414 26.0597 3.13513C26.2554 3.40718 26.5092 3.71566 26.6468 4.02314C26.7275 4.22458 26.7506 4.43816 26.8316 4.65099C27.0157 5.17205 27.1883 5.75259 27.4307 6.23847C27.557 6.48723 27.6951 6.74815 27.8563 6.97211C27.9494 7.10319 28.1101 7.16165 28.1448 7.37549C27.9841 7.61211 27.9715 7.96741 27.8795 8.26375C27.465 9.60222 27.6259 11.2603 28.2137 12.2432C28.3976 12.5393 28.836 13.1909 29.4236 12.9416C29.9419 12.7288 29.8268 12.0536 29.9764 11.4618C30.0109 11.3186 29.9877 11.2247 30.0567 11.1301V11.154C30.2179 11.4852 30.3796 11.8042 30.5293 12.1369C30.8869 12.7167 31.5084 13.3209 32.0273 13.7232C32.303 13.9373 32.5221 14.3038 32.8677 14.4345V14.3987H32.845C32.7756 14.2924 32.6722 14.2447 32.5799 14.1622C32.3727 13.9488 32.1428 13.6881 31.9808 13.4514C31.4971 12.7884 31.0703 12.0536 30.691 11.2957C30.5061 10.9277 30.3451 10.5253 30.1952 10.1584C30.1263 10.0169 30.1263 9.8031 30.0109 9.73222C29.8376 9.9925 29.5848 10.2179 29.4583 10.5367C29.2392 11.0466 29.2163 11.6742 29.1351 12.3259C29.0893 12.3383 29.1124 12.3259 29.0893 12.3495C28.7211 12.2548 28.5943 11.864 28.4557 11.5334C28.1101 10.6914 28.052 9.34121 28.3521 8.36987C28.4323 8.12161 28.7789 7.33989 28.6401 7.10302C28.5704 6.87704 28.3403 6.74797 28.2137 6.56956C28.0643 6.34458 27.9021 6.0609 27.7995 5.81163C27.5228 5.1486 27.3837 4.41395 27.0852 3.75091C26.9468 3.44243 26.7044 3.12255 26.5092 2.83887C26.2898 2.51899 26.0481 2.29402 25.8751 1.91543C25.818 1.78485 25.7372 1.57152 25.8291 1.4298C25.8517 1.3349 25.8985 1.29922 25.9908 1.27543C26.1397 1.1451 26.5665 1.3106 26.7159 1.38172C27.1425 1.55886 27.4997 1.72563 27.8563 1.97389C28.0178 2.09257 28.1906 2.31755 28.3976 2.37727H28.6401C29.0085 2.45952 29.4236 2.4003 29.7694 2.50735C30.3796 2.70854 30.9324 3.00462 31.4282 3.3245C32.9368 4.30766 34.1811 5.70559 35.0217 7.37532C35.1603 7.64736 35.2184 7.89638 35.3449 8.18006C35.5869 8.76161 35.8867 9.35378 36.1281 9.92174C36.3699 10.4785 36.6007 11.0465 36.9468 11.5091C37.1191 11.7575 37.8106 11.8878 38.1217 12.0181C38.3516 12.1244 38.7092 12.2193 38.9167 12.3494C39.3084 12.5977 39.6992 12.8824 40.0685 13.1553C40.2523 13.2974 40.8286 13.5932 40.8633 13.8304" fill="#00758F"/>
<path fillRule="evenodd" clipRule="evenodd" d="M29.1121 3.53664C28.9167 3.53664 28.7788 3.56094 28.6398 3.59612V3.6199H28.6622C28.7552 3.80894 28.9167 3.94028 29.0309 4.10579C29.1237 4.29534 29.2044 4.48412 29.2965 4.67392C29.3078 4.66228 29.3189 4.64988 29.3189 4.64988C29.4813 4.53195 29.5618 4.34265 29.5618 4.05796C29.4922 3.97444 29.4813 3.8922 29.4233 3.80894C29.3543 3.69076 29.2044 3.63154 29.1121 3.53664Z" fill="#00758F"/>
</g>
<defs>
<clipPath id="clip0_33_159">
<rect width="43" height="30" fill="white"/>
</clipPath>
</defs>
</svg>
