<svg width="72" height="9" viewBox="0 0 72 9" fill="none" xmlns="http://www.w3.org/2000/svg">
<g clipPath="url(#clip0_33_157)">
<path d="M29.9711 5.85532H34.5585L32.1328 1.96365L27.6809 9H25.6547L31.0698 0.547833C31.3052 0.206318 31.6976 0 32.1328 0C32.5537 0 32.9461 0.199206 33.1744 0.533598L38.6109 8.99999H36.5847L35.6287 7.42765H30.9841L29.9711 5.85532ZM51.0176 7.42765V0.0853788H49.2982V8.14623C49.2982 8.3668 49.3839 8.58023 49.548 8.74386C49.712 8.9075 49.9332 8.99999 50.1758 8.99999H58.0165L59.0296 7.42765H51.0176ZM22.5726 6.11146C24.2421 6.11146 25.5977 4.7668 25.5977 3.10197C25.5977 1.43716 24.2421 0.0853788 22.5727 0.0853788H15.0508V8.99999H16.7695V1.6577H22.4585C23.2576 1.6577 23.8997 2.30513 23.8997 3.10197C23.8997 3.89881 23.2576 4.54625 22.4585 4.54625L17.6114 4.53912L22.7439 8.99998H25.2409L21.7879 6.11144L22.5726 6.11146ZM4.47049 8.99999C2.00263 8.99999 0 7.00788 0 4.54625C0 2.08458 2.00265 0.0853788 4.47047 0.0853788H9.66644C12.135 0.0853788 14.1362 2.08458 14.1362 4.54625C14.1362 7.00789 12.135 8.99999 9.66644 8.99999H4.47049ZM9.55088 7.42765C11.1497 7.42765 12.4446 6.1399 12.4446 4.54625C12.4446 2.95256 11.1497 1.6577 9.55088 1.6577H4.58532C2.98721 1.6577 1.69156 2.95256 1.69156 4.54625C1.69156 6.1399 2.98721 7.42765 4.58532 7.42765H9.55088ZM42.1995 8.99999C39.731 8.99999 37.7262 7.00789 37.7262 4.54625C37.7262 2.08458 39.731 0.0853788 42.1995 0.0853788H48.3708L47.3648 1.6577H42.3136C40.7155 1.6577 39.4171 2.95256 39.4171 4.54625C39.4171 6.1399 40.7155 7.42765 42.3136 7.42765H48.5134L47.5004 8.99999H42.1995ZM63.2247 7.42765C61.9048 7.42765 60.7847 6.54544 60.4422 5.32885H67.7907L68.8038 3.75651H60.4422C60.7847 2.54703 61.9048 1.6577 63.2247 1.6577H68.2687L69.2889 0.0853788H63.1105C60.642 0.0853788 58.6372 2.08458 58.6372 4.54625C58.6372 7.00789 60.642 8.99999 63.1105 8.99999H68.4114L69.4245 7.42765H63.2247ZM70.2093 1.03162C70.209 0.928767 70.2291 0.826865 70.2684 0.731779C70.3077 0.636693 70.3655 0.550299 70.4385 0.477567C70.5114 0.404835 70.598 0.347199 70.6934 0.307975C70.7887 0.268751 70.8909 0.248713 70.994 0.249013C71.4364 0.249013 71.7859 0.597629 71.7859 1.03162C71.7859 1.47272 71.4364 1.82134 70.994 1.82134C70.5588 1.82134 70.2093 1.47272 70.2093 1.03162ZM70.994 2.04189C71.5505 2.04189 72 1.59367 72 1.03874C72 0.483791 71.5505 0.0355717 70.994 0.0355717C70.4447 0.0355717 69.9952 0.483791 69.9952 1.03874C69.9952 1.59367 70.4447 2.04189 70.994 2.04189ZM70.9013 0.441107C71.0582 0.441107 71.1225 0.448219 71.1938 0.476667C71.3936 0.54071 71.415 0.718569 71.415 0.789723C71.415 0.803947 71.415 0.839519 71.4007 0.882203C71.3936 0.924898 71.365 1.01027 71.2652 1.0743C71.2509 1.08142 71.2438 1.08853 71.2152 1.10277L71.4721 1.56521H71.2224L70.994 1.13834H70.8371V1.56521H70.6159V0.441107H70.9013ZM70.9798 0.953358C71.0511 0.946245 71.1225 0.946245 71.1653 0.882203C71.1866 0.853755 71.1938 0.825295 71.1938 0.782611C71.1938 0.725692 71.1581 0.675885 71.1082 0.647425C71.0582 0.626089 71.0083 0.626089 70.9013 0.626089H70.8371V0.953358H70.9798Z" fill="#F80000"/>
</g>
<defs>
<clipPath id="clip0_33_157">
<rect width="72" height="9" fill="white"/>
</clipPath>
</defs>
</svg>
