<svg width="65" height="32" viewBox="0 0 65 32" fill="none" xmlns="http://www.w3.org/2000/svg">
<path d="M4.76448 21.6226C4.1615 21.6226 3.67212 21.14 3.67212 20.5447V17.5088C3.67212 16.9136 4.16228 16.431 4.76448 16.431C5.05435 16.432 5.33203 16.5459 5.53686 16.7479C5.74168 16.9498 5.857 17.2234 5.85761 17.5088V20.5455C5.85761 21.1407 5.36745 21.6226 4.76448 21.6226ZM8.28119 22.787C7.67743 22.787 7.18883 22.3044 7.18883 21.7092V16.3467C7.18883 15.7507 7.67743 15.2689 8.28119 15.2689C8.88494 15.2689 9.37432 15.7515 9.37432 16.3467V21.7092C9.37432 22.3052 8.88416 22.787 8.28119 22.787ZM11.7979 23.9254C11.1941 23.9254 10.7055 23.4428 10.7055 22.8475V15.2022C10.7055 14.6062 11.1957 14.1244 11.7979 14.1244C12.4001 14.1244 12.8903 14.607 12.8903 15.2022V22.846C12.8903 23.442 12.4016 23.9238 11.7979 23.9238V23.9254ZM21.0176 11.4385L5.76658 6.93716C5.01812 6.70734 4.34278 7.16698 4.34278 7.88172V15.3945C4.48189 15.3671 4.62339 15.3532 4.76525 15.3531C4.90737 15.3532 5.04914 15.3671 5.18851 15.3945V7.88708C5.18851 7.83652 5.1885 7.71855 5.37523 7.71855C5.42596 7.71892 5.47634 7.72693 5.52461 7.74229L20.7764 12.2437C21.1078 12.3417 21.3537 12.6742 21.3537 12.9063V22.5357C21.3537 22.5909 21.3537 22.7027 21.167 22.7027C21.1165 22.7027 21.0663 22.6946 21.0184 22.679L17.5001 21.6425V22.512L20.7678 23.4795C20.8947 23.5175 21.0265 23.5374 21.1592 23.5385C21.2953 23.5446 21.4312 23.5229 21.5584 23.4748C21.6856 23.4267 21.8013 23.3532 21.8982 23.259C21.9952 23.1647 22.0713 23.0518 22.1218 22.9272C22.1723 22.8026 22.1961 22.669 22.1916 22.535V12.8971C22.1916 12.2728 21.6727 11.6308 21.009 11.4355L21.0176 11.4385ZM15.3146 25.1204C14.7108 25.1204 14.2222 24.6378 14.2222 24.0426V14.0095C14.2222 13.4142 14.7124 12.9308 15.3146 12.9308C15.9168 12.9308 16.407 13.4135 16.407 14.0095V24.051C16.407 24.647 15.9184 25.1289 15.3146 25.1289V25.1204Z" fill="#333333"/>
<path d="M27.2691 16.7589V19.28H26.4756V12.6091H28.3373C29.0615 12.6091 29.6227 12.7829 30.0165 13.1301C30.4103 13.4773 30.6139 13.9675 30.6139 14.6C30.6139 15.2325 30.3929 15.7504 29.9498 16.1536C29.5068 16.5568 28.9098 16.7584 28.1623 16.7584H27.2697L27.2691 16.7589ZM27.2691 13.3163V16.0512H28.1006C28.6488 16.0512 29.0669 15.9285 29.3545 15.6816C29.6422 15.4347 29.7868 15.0869 29.7868 14.6373C29.7868 13.7573 29.2581 13.3163 28.1997 13.3163H27.2691ZM33.5833 19.392C32.8683 19.392 32.2974 19.1691 31.8706 18.7243C31.4438 18.2795 31.2303 17.6896 31.2303 16.9547C31.2303 16.1547 31.447 15.5291 31.8966 15.08C32.3462 14.6309 32.9355 14.4 33.6917 14.4C34.4132 14.4 34.9754 14.6133 35.3806 15.056C35.7858 15.4987 35.9873 16.0997 35.9873 16.8693C35.9873 17.6299 35.769 18.2379 35.3329 18.6955C34.8969 19.1531 34.3119 19.3813 33.5833 19.3813V19.392ZM33.6397 15.0475C33.1413 15.0475 32.7486 15.2144 32.4588 15.5477C32.169 15.8811 32.0244 16.3408 32.0244 16.9269C32.0244 17.4912 32.1707 17.9365 32.4578 18.2619C32.7448 18.5872 33.143 18.7504 33.6343 18.7504C34.1353 18.7504 34.5199 18.5904 34.7891 18.2704C35.0583 17.9504 35.1932 17.4971 35.1932 16.9077C35.1932 16.3125 35.0578 15.8533 34.7891 15.5307C34.5204 15.208 34.1353 15.0469 33.6343 15.0469L33.6397 15.0475ZM43.1909 14.5163L41.7403 19.2789H40.9375L39.9409 15.8693C39.903 15.7392 39.878 15.592 39.865 15.4267H39.8461C39.8282 15.5719 39.795 15.7149 39.747 15.8533L38.6653 19.2667H37.8907L36.426 14.504H37.2385L38.2406 18.0864C38.272 18.1947 38.2948 18.3371 38.3067 18.5141H38.3446C38.3565 18.3657 38.385 18.2191 38.4296 18.0768L39.5444 14.5035H40.2529L41.255 18.0944C41.2864 18.2091 41.3102 18.352 41.3254 18.5227H41.3633C41.3698 18.4016 41.3958 18.2592 41.4435 18.0944L42.426 14.5035H43.1914L43.1909 14.5163ZM47.8384 17.0891H44.4167C44.4291 17.6192 44.5792 18.0288 44.8511 18.3168C45.123 18.6048 45.5092 18.7435 45.9886 18.7435C46.5335 18.7435 47.034 18.5675 47.4912 18.2128V18.9291C47.066 19.2331 46.5037 19.3851 45.8044 19.3851C45.1208 19.3851 44.584 19.1685 44.1935 18.736C43.803 18.3035 43.6074 17.696 43.6074 16.9109C43.6074 16.1643 43.8208 15.5653 44.2477 15.0987C44.6745 14.632 45.2043 14.3989 45.8375 14.3989C46.4707 14.3989 46.9603 14.6005 47.307 15.0032C47.6537 15.4059 47.827 15.9664 47.827 16.6832V17.0832L47.8384 17.0891ZM47.0438 16.4427C47.0405 16.0027 46.9333 15.6587 46.7204 15.4149C46.5075 15.1712 46.2123 15.0416 45.8348 15.0416C45.6609 15.0387 45.4884 15.0715 45.3282 15.1379C45.168 15.2043 45.0236 15.3028 44.9042 15.4272C44.6496 15.6848 44.4914 16.0213 44.4313 16.4368L47.0438 16.4427ZM51.4854 15.2885C51.35 15.1861 51.1604 15.1349 50.8993 15.1349C50.5743 15.1349 50.2927 15.2885 50.0706 15.5952C49.8485 15.9019 49.7375 16.3205 49.7375 16.8517V19.2795H48.9629V14.5168H49.7375V15.4981H49.7564C49.8664 15.1632 50.0354 14.9024 50.2618 14.7141C50.4882 14.5259 50.7417 14.4331 51.0228 14.4331C51.2243 14.4331 51.3782 14.4544 51.486 14.4981L51.4854 15.2885ZM55.081 19.28V12.6091H57.0093C57.5954 12.6091 58.0602 12.7504 58.403 13.0325C58.7459 13.3147 58.9176 13.6821 58.9176 14.1349C58.9176 14.5083 58.8136 14.8416 58.6056 15.1216C58.3976 15.4016 58.1116 15.5989 57.746 15.7173V15.7355C58.2026 15.7888 58.5677 15.9579 58.8418 16.2448C59.1159 16.5317 59.2524 16.9045 59.2524 17.3632C59.2524 17.9339 59.0449 18.3957 58.6295 18.7499C58.214 19.104 57.6891 19.28 57.0559 19.28H55.081ZM55.8751 13.3173V15.4667H56.6876C57.122 15.4667 57.4643 15.3632 57.713 15.1573C57.9616 14.9515 58.0921 14.6603 58.0921 14.2848C58.0921 13.6368 57.6588 13.3125 56.7921 13.3125L55.8751 13.3173ZM55.8751 16.1739V18.5739H56.9584C57.4243 18.5739 57.7861 18.4651 58.0428 18.2539C58.2996 18.0427 58.422 17.7397 58.422 17.3611C58.422 16.5733 57.8771 16.1792 56.7873 16.1792L55.8751 16.1739ZM61.3221 19.28H60.5285V12.6091H61.3221V19.28Z" fill="#333333"/>
</svg>
