<svg width="15" height="15" viewBox="0 0 15 15" fill="none" xmlns="http://www.w3.org/2000/svg">
<path d="M8.125 1.25H6.875C6.52982 1.25 6.25 1.52982 6.25 1.875V13.125C6.25 13.4702 6.52982 13.75 6.875 13.75H8.125C8.47018 13.75 8.75 13.4702 8.75 13.125V1.875C8.75 1.52982 8.47018 1.25 8.125 1.25Z" fill="#00B2D6"/>
<path d="M3.125 8.75H1.875C1.52982 8.75 1.25 9.02982 1.25 9.375V13.125C1.25 13.4702 1.52982 13.75 1.875 13.75H3.125C3.47018 13.75 3.75 13.4702 3.75 13.125V9.375C3.75 9.02982 3.47018 8.75 3.125 8.75Z" fill="#00B2D6"/>
<path d="M13.125 5H11.875C11.5298 5 11.25 5.27982 11.25 5.625V13.125C11.25 13.4702 11.5298 13.75 11.875 13.75H13.125C13.4702 13.75 13.75 13.4702 13.75 13.125V5.625C13.75 5.27982 13.4702 5 13.125 5Z" fill="#00B2D6"/>
</svg>
