<svg width="78" height="16" viewBox="0 0 78 16" fill="none" xmlns="http://www.w3.org/2000/svg">
<g clipPath="url(#clip0_33_114)">
<path d="M8.1759 0.739623V1.48226H6.8031V1.96528H8.1759V3.44453H8.71254V1.96528H10.1197V1.48226H8.71254V0H8.1759V0.739623Z" fill="#7099A6"/>
<path d="M3.68937 2.6234V3.70113H1.61145V4.37736H3.68937V6.56604H4.46001V4.37736H6.56913V3.70113H4.46001V1.54566H3.68937V2.6234Z" fill="#EB912C"/>
<path d="M12.3974 2.6234V3.70113H10.3195V4.41057H12.3974V6.56604H13.1992V4.41057H15.2771V3.70113H13.1992V1.54566H12.3974V2.6234Z" fill="#59879B"/>
<path fillRule="evenodd" clipRule="evenodd" d="M50.3084 3.21812H51.3786V12.3955H50.3084V3.21812ZM41.4476 4.18415H42.5365V5.45812C42.5365 6.65359 42.5428 6.72604 42.5958 6.71095C42.6301 6.69887 42.7924 6.65661 42.9577 6.61132C43.1543 6.56 43.3914 6.5268 43.6441 6.5117C43.9312 6.49963 44.0996 6.50868 44.3118 6.54793C44.4928 6.58114 44.708 6.65359 44.8984 6.74415C45.0637 6.82264 45.2821 6.95547 45.3851 7.04302C45.4849 7.12755 45.644 7.30566 45.7345 7.43849C45.8281 7.57132 45.9436 7.78264 45.9935 7.91246C46.0465 8.03925 46.112 8.27774 46.1432 8.44378C46.1807 8.66114 46.19 8.84831 46.1776 9.14415C46.1682 9.36453 46.1339 9.63925 46.1027 9.75397C46.0746 9.86868 45.9997 10.0649 45.9404 10.1887C45.8812 10.3125 45.7626 10.5026 45.6784 10.6083C45.5972 10.714 45.4319 10.8709 45.3133 10.9585C45.1979 11.046 44.9857 11.1668 44.8484 11.2272C44.7112 11.2906 44.4834 11.3691 44.3461 11.4053C44.1308 11.4626 43.9936 11.4717 43.3758 11.4747C42.7924 11.4777 42.602 11.4657 42.3712 11.4174C42.2152 11.3842 41.9562 11.3208 41.8002 11.2785C41.6442 11.2362 41.5069 11.1879 41.4944 11.1759C41.482 11.1638 41.4664 9.58793 41.4601 7.67095L41.4476 4.18415ZM42.8048 7.61963L42.5552 7.70415V10.3819C43.0794 10.5147 43.1917 10.5238 43.5412 10.5147C43.8844 10.5057 43.9967 10.4906 44.162 10.4302C44.2712 10.3879 44.4241 10.3094 44.4959 10.2521C44.5708 10.1977 44.6768 10.0951 44.733 10.0257C44.7892 9.95623 44.8703 9.81132 44.9108 9.70566C44.9545 9.6 45.0044 9.39774 45.0232 9.25585C45.0512 9.06264 45.0512 8.92981 45.02 8.72453C44.9951 8.54038 44.942 8.37434 44.864 8.21736C44.8016 8.08755 44.6924 7.92755 44.6238 7.86114C44.5552 7.79472 44.4304 7.70114 44.3461 7.65585C44.265 7.60755 44.1059 7.54717 43.9936 7.52C43.8844 7.48981 43.6878 7.46868 43.5599 7.4717C43.432 7.47472 43.2635 7.48981 43.1917 7.50491C43.1168 7.52 42.9452 7.57132 42.8048 7.61963ZM23.7167 4.50717H24.7868V7.43547H27.6666V8.40151H24.7868V11.5562H23.7167V8.40151H20.8369V7.43547H23.7167V4.50717Z" fill="#1F447E"/>
<path d="M7.97623 6.29434V7.50189H5.66431V8.40151H7.97623V10.8166H8.91223V8.40151H11.2241V7.50189H8.91223V5.08679H7.97623V6.29434Z" fill="#E8762C"/>
<path d="M14.7748 6.90415V7.66189H13.3677V8.27472H14.7748V9.78717H15.4768V8.27472H16.8839V7.66189H15.4768V6.14944H14.7748V6.90415Z" fill="#5B6591"/>
<path d="M1.37732 6.97057V7.6951H0.0045166V8.2083H1.37732V9.65736H1.91396V8.2083L3.32108 8.16V7.6951H1.91396V6.24604H1.37732V6.97057Z" fill="#7099A6"/>
<path fillRule="evenodd" clipRule="evenodd" d="M35.2045 6.46944H36.2747V8.37736C36.2747 9.42793 36.2622 10.4936 36.2248 11.206L35.9565 11.2845C35.8098 11.3268 35.5009 11.3932 35.2701 11.4325C34.9175 11.4898 34.7584 11.4959 34.2498 11.4838C33.7787 11.4717 33.5884 11.4536 33.3793 11.4023C33.2296 11.363 32.9737 11.2694 32.8084 11.1909C32.6337 11.1064 32.4246 10.9736 32.3061 10.874C32.1969 10.7774 32.0409 10.6053 31.966 10.4936C31.888 10.3789 31.785 10.1977 31.7413 10.0921C31.6977 9.98642 31.6321 9.7751 31.6009 9.62717C31.5573 9.40981 31.5479 9.24981 31.5604 8.86944C31.576 8.50415 31.5978 8.32604 31.6509 8.14491C31.6914 8.01208 31.785 7.79472 31.8568 7.66189C31.9285 7.52906 32.0721 7.32679 32.1781 7.2151C32.2873 7.10038 32.4652 6.94944 32.5744 6.87698C32.6836 6.80755 32.8645 6.71396 32.9769 6.6717C33.0861 6.62944 33.2857 6.57208 33.4199 6.54793C33.5541 6.52378 33.8037 6.50264 33.9721 6.50264C34.1437 6.50264 34.3871 6.5268 34.5181 6.55095C34.6461 6.57812 34.8489 6.64453 34.9705 6.69887C35.0891 6.75019 35.1921 6.79547 35.1952 6.79246C35.1983 6.79246 35.2045 6.72 35.2045 6.63246V6.46944ZM33.3825 7.65585C33.292 7.70415 33.1609 7.80378 33.0892 7.87925C33.0174 7.95472 32.9207 8.08755 32.877 8.17812C32.8302 8.26566 32.7709 8.42868 32.7429 8.54038C32.7148 8.64906 32.6929 8.8483 32.6929 8.98113C32.6929 9.11396 32.7085 9.31019 32.7273 9.41585C32.7491 9.52151 32.8053 9.69661 32.8583 9.80227C32.9207 9.92906 33.0205 10.0589 33.1485 10.1736C33.2733 10.2853 33.4199 10.3789 33.5478 10.4272C33.7038 10.4876 33.8286 10.5057 34.15 10.5208C34.3777 10.5298 34.6648 10.5177 34.8177 10.4966C34.9643 10.4755 35.1016 10.4483 35.1234 10.4362C35.1484 10.4211 35.1671 10.0015 35.1827 9.10189L35.2045 7.7917C34.93 7.64679 34.7771 7.58038 34.6835 7.55019C34.593 7.51698 34.3809 7.4868 34.2155 7.48076C34.0096 7.4717 33.8567 7.48378 33.7288 7.52C33.6289 7.54717 33.4729 7.60755 33.3825 7.65585ZM68.3265 6.46944H69.3966V8.08755C69.3966 8.97812 69.3873 10.0438 69.3467 11.206L69.0784 11.2845C68.9317 11.3268 68.6353 11.3932 68.4169 11.4264C68.1393 11.4747 67.8741 11.4928 67.5153 11.4928C67.2313 11.4928 66.9037 11.4777 66.7852 11.4596C66.6666 11.4385 66.4326 11.3811 66.2673 11.3298C66.0894 11.2755 65.8585 11.1698 65.715 11.0792C65.5746 10.9917 65.3812 10.8377 65.2813 10.7321C65.1846 10.6294 65.0473 10.4483 64.9818 10.3336C64.9163 10.2189 64.8258 10.0075 64.7821 9.86868C64.7166 9.66642 64.6979 9.50944 64.6823 9.14415C64.6729 8.85132 64.6823 8.5917 64.7073 8.44981C64.7291 8.32604 64.7853 8.11774 64.8321 7.98491C64.8757 7.85208 64.9787 7.64076 65.0598 7.51698C65.1378 7.39321 65.3063 7.19698 65.4342 7.08227C65.5777 6.95547 65.7649 6.82566 65.9178 6.75321C66.0551 6.68981 66.2548 6.61132 66.3671 6.58113C66.4763 6.55396 66.7477 6.52076 66.9693 6.5117C67.2657 6.49963 67.4373 6.5117 67.6213 6.54793C67.7617 6.57812 67.9708 6.64453 68.0925 6.69887C68.211 6.75019 68.314 6.79547 68.3171 6.79246C68.3233 6.79246 68.3265 6.72 68.3265 6.63246V6.46944ZM66.5044 7.65585C66.4139 7.70415 66.2829 7.80378 66.2111 7.87925C66.1393 7.95472 66.0457 8.08755 65.9989 8.17812C65.9521 8.26566 65.8929 8.42868 65.8648 8.54038C65.8367 8.64906 65.8149 8.8634 65.8149 9.01434C65.8149 9.16529 65.8367 9.37963 65.8648 9.4883C65.8929 9.6 65.9459 9.75095 65.9865 9.82642C66.027 9.90189 66.13 10.0347 66.2142 10.1192C66.2985 10.2068 66.4357 10.3094 66.5169 10.3487C66.6011 10.3909 66.7509 10.4483 66.8538 10.4755C66.9693 10.5087 67.1596 10.5268 67.3811 10.5268C67.5683 10.5268 67.8335 10.5117 67.9645 10.4936C68.0987 10.4755 68.2266 10.4483 68.2453 10.4362C68.2734 10.4211 68.289 10.0317 68.2984 9.09887L68.3077 7.77963C67.9708 7.61359 67.7836 7.54415 67.6713 7.51698C67.5621 7.48981 67.3749 7.46868 67.2532 7.4717C67.1346 7.4717 66.9537 7.49585 66.8538 7.52C66.7509 7.54717 66.5949 7.60755 66.5044 7.65585ZM58.2801 6.51774C58.4735 6.5268 58.72 6.55698 58.8323 6.58415C58.9415 6.61132 59.1225 6.67472 59.2317 6.72604C59.344 6.77434 59.5249 6.88 59.6341 6.96151C59.7465 7.04302 59.9025 7.19396 59.9836 7.29661C60.0647 7.39925 60.1801 7.58642 60.2425 7.71019C60.3049 7.83397 60.3861 8.05132 60.4235 8.19321C60.4609 8.3351 60.5046 8.62189 60.5389 9.20755H56.8386L56.8605 9.3283C56.8698 9.39472 56.9104 9.53661 56.9416 9.64227C56.9759 9.74793 57.0633 9.91397 57.1319 10.0076C57.2005 10.1011 57.3035 10.2128 57.3565 10.2521C57.4127 10.2913 57.525 10.3577 57.6093 10.4C57.6904 10.4392 57.8339 10.4906 57.9275 10.5147C58.0211 10.5389 58.2707 10.56 58.4953 10.56C58.7169 10.56 59.0351 10.5389 59.2005 10.5117C59.3658 10.4845 59.5998 10.4302 59.7184 10.394C59.8369 10.3577 59.9929 10.3004 60.0616 10.2672C60.1302 10.234 60.202 10.2038 60.2207 10.2038C60.2425 10.2038 60.255 10.3879 60.255 11.1698L60.0709 11.2513C59.968 11.2966 59.7558 11.3691 59.5936 11.4143C59.4313 11.4566 59.1349 11.5109 58.9321 11.5321C58.6545 11.5592 58.4673 11.5592 58.1771 11.5321C57.9649 11.5109 57.6561 11.4566 57.4907 11.4113C57.3253 11.366 57.0851 11.2755 56.9603 11.2091C56.8324 11.1426 56.6171 10.9887 56.4798 10.8649C56.3394 10.7411 56.1647 10.5389 56.0836 10.4151C56.0025 10.2913 55.9026 10.08 55.8558 9.94717C55.809 9.81434 55.7529 9.58189 55.731 9.43396C55.7061 9.26793 55.6998 9.03547 55.7123 8.85434C55.7217 8.68529 55.7622 8.4317 55.7997 8.28981C55.8371 8.14793 55.9276 7.91547 55.9993 7.77359C56.0711 7.6317 56.2053 7.42944 56.2926 7.32378C56.3831 7.21812 56.5609 7.0551 56.6889 6.96151C56.8168 6.86793 57.0321 6.75019 57.1662 6.69585C57.329 6.63351 57.4971 6.58503 57.6685 6.55095C57.8401 6.52076 58.0461 6.50868 58.2801 6.51774ZM57.5469 7.67095C57.447 7.7283 57.3066 7.84 57.2317 7.91849C57.16 8 57.0633 8.13283 57.0196 8.21736C56.9759 8.30189 56.9385 8.3834 56.9385 8.40151C56.9385 8.42264 57.3597 8.43472 58.1365 8.43472H59.3346C59.3003 8.19623 59.2691 8.07849 59.2441 8.0151C59.2161 7.95472 59.1349 7.84 59.0632 7.76453C58.9758 7.67095 58.8697 7.60453 58.7481 7.55925C58.6451 7.52604 58.4579 7.48981 58.33 7.48076C58.1802 7.47472 58.0273 7.48679 57.9088 7.51698C57.8089 7.54415 57.6467 7.61359 57.5469 7.67095ZM73.5462 6.59925H74.6569L74.6538 8.21736C74.6538 9.74189 74.6569 9.84755 74.7193 10.0438C74.7599 10.1645 74.8348 10.3064 74.8972 10.3789C74.9565 10.4453 75.0813 10.5359 75.1749 10.5781C75.2653 10.6204 75.4401 10.6687 75.5586 10.6838C75.6865 10.7019 75.8675 10.7019 75.9954 10.6838C76.114 10.6687 76.2887 10.6204 76.3792 10.5781C76.4728 10.5359 76.5976 10.4453 76.6569 10.3789C76.7193 10.3064 76.7973 10.1645 76.8347 10.0438C76.8971 9.84755 76.9002 9.74189 76.9002 6.59925H77.9953L77.9891 8.34717C77.986 10.0015 77.9829 10.1011 77.9205 10.2853C77.883 10.3909 77.805 10.5509 77.7457 10.6385C77.6865 10.7291 77.5835 10.8528 77.5117 10.9192C77.4431 10.9857 77.2933 11.0913 77.1841 11.1547C77.0749 11.2181 76.8628 11.3057 76.7161 11.3509C76.5477 11.4023 76.323 11.4415 76.114 11.4566C75.9268 11.4657 75.6273 11.4657 75.4432 11.4536C75.2341 11.4415 75.0064 11.4023 74.841 11.3509C74.678 11.2999 74.5203 11.2342 74.3699 11.1547C74.2607 11.0913 74.1141 10.9857 74.0423 10.9192C73.9737 10.8528 73.8676 10.7291 73.8083 10.6385C73.7521 10.5509 73.6741 10.3909 73.6367 10.2853C73.5712 10.1042 73.5681 9.99246 73.5587 8.34717L73.5462 6.59925Z" fill="#1F447E"/>
<path d="M3.68937 10.3819V11.4596H1.61145V12.1691H3.68937V14.3245H4.49121V12.1691H6.56913V11.4596H4.49121V9.30415H3.68937V10.3819Z" fill="#C72035"/>
<path d="M12.3974 10.3819V11.4596H10.3195V12.1359H12.3974V14.3245H13.1992V12.1359H15.2771V11.4596H13.1992V9.30415H12.3974V10.3819Z" fill="#1F447E"/>
<path d="M8.11049 13.12V13.8747H6.70337V14.4875H8.11049V16H8.81249V14.4875H10.2196V13.8747H8.81249V12.3623H8.11049V13.12Z" fill="#5B6591"/>
</g>
<defs>
<clipPath id="clip0_33_114">
<rect width="78" height="16" fill="white"/>
</clipPath>
</defs>
</svg>
