<svg width="16" height="16" viewBox="0 0 16 16" fill="none" xmlns="http://www.w3.org/2000/svg">
<g id="Add-s">
<g id="Union">
<mask id="path-1-inside-1_1330_1004" fill="white">
<path d="M8.5 3.5C8.5 3.22386 8.27614 3 8 3C7.72386 3 7.5 3.22386 7.5 3.5V7.5H3.5C3.22386 7.5 3 7.72386 3 8C3 8.27614 3.22386 8.5 3.5 8.5H7.5V12.5C7.5 12.7761 7.72386 13 8 13C8.27614 13 8.5 12.7761 8.5 12.5V8.5H12.5C12.7761 8.5 13 8.27614 13 8C13 7.72386 12.7761 7.5 12.5 7.5H8.5V3.5Z"/>
</mask>
<path d="M7.5 7.5V8.5H8.5V7.5H7.5ZM7.5 8.5H8.5V7.5H7.5V8.5ZM8.5 8.5V7.5H7.5V8.5H8.5ZM8.5 7.5H7.5V8.5H8.5V7.5ZM9.5 3.5C9.5 2.67157 8.82843 2 8 2V4C7.72386 4 7.5 3.77614 7.5 3.5H9.5ZM8 2C7.17157 2 6.5 2.67157 6.5 3.5H8.5C8.5 3.77614 8.27614 4 8 4V2ZM6.5 3.5V7.5H8.5V3.5H6.5ZM7.5 6.5H3.5V8.5H7.5V6.5ZM3.5 6.5C2.67157 6.5 2 7.17157 2 8H4C4 8.27614 3.77614 8.5 3.5 8.5V6.5ZM2 8C2 8.82843 2.67157 9.5 3.5 9.5V7.5C3.77614 7.5 4 7.72386 4 8H2ZM3.5 9.5H7.5V7.5H3.5V9.5ZM6.5 8.5V12.5H8.5V8.5H6.5ZM6.5 12.5C6.5 13.3284 7.17157 14 8 14V12C8.27614 12 8.5 12.2239 8.5 12.5H6.5ZM8 14C8.82843 14 9.5 13.3284 9.5 12.5H7.5C7.5 12.2239 7.72386 12 8 12V14ZM9.5 12.5V8.5H7.5V12.5H9.5ZM8.5 9.5H12.5V7.5H8.5V9.5ZM12.5 9.5C13.3284 9.5 14 8.82843 14 8H12C12 7.72386 12.2239 7.5 12.5 7.5V9.5ZM14 8C14 7.17157 13.3284 6.5 12.5 6.5V8.5C12.2239 8.5 12 8.27614 12 8H14ZM12.5 6.5H8.5V8.5H12.5V6.5ZM9.5 7.5V3.5H7.5V7.5H9.5Z" fill="url(#paint0_linear_1330_1004)" mask="url(#path-1-inside-1_1330_1004)"/>
</g>
</g>
<defs>
<linearGradient id="paint0_linear_1330_1004" x1="3" y1="8" x2="13" y2="8" gradientUnits="userSpaceOnUse">
<stop stop-color="#F42494"/>
<stop offset="1" stop-color="#FFA200"/>
</linearGradient>
</defs>
</svg>
