<svg width="25" height="25" viewBox="0 0 25 25" fill="none" xmlns="http://www.w3.org/2000/svg">
<g id="AI Avatar">
<ellipse id="Ellipse 136" cx="12.5" cy="11.9412" rx="12.5" ry="11.9412" fill="url(#paint0_linear_1266_1966)"/>
<g id="Vector" filter="url(#filter0_ddi_1266_1966)">
<path d="M15.9625 10.062C15.9215 10.062 15.8867 10.0542 15.858 10.0385C15.8293 10.0229 15.8067 9.99549 15.7903 9.95637L15.4336 9.15819L14.5357 8.78258C14.4947 8.76693 14.466 8.74541 14.4496 8.71802C14.4332 8.69063 14.425 8.65737 14.425 8.61825C14.425 8.57912 14.4332 8.54586 14.4496 8.51847C14.466 8.49108 14.4947 8.46957 14.5357 8.45391L15.4336 8.09004L15.7903 7.32708C15.8067 7.28795 15.8293 7.26056 15.858 7.24491C15.8867 7.22926 15.9215 7.22144 15.9625 7.22144C16.0035 7.22144 16.0384 7.22926 16.0671 7.24491C16.0958 7.26056 16.1183 7.28795 16.1347 7.32708L16.4914 8.09004L17.3893 8.45391C17.4303 8.46957 17.459 8.49108 17.4754 8.51847C17.4918 8.54586 17.5 8.57912 17.5 8.61825C17.5 8.65737 17.4918 8.69063 17.4754 8.71802C17.459 8.74541 17.4303 8.76693 17.3893 8.78258L16.4914 9.15819L16.1347 9.95637C16.1183 9.99549 16.0958 10.0229 16.0671 10.0385C16.0384 10.0542 16.0035 10.062 15.9625 10.062ZM15.9625 17.0578C15.9297 17.0578 15.8969 17.05 15.8641 17.0343C15.8313 17.0187 15.8067 16.9913 15.7903 16.9522L15.4336 16.1892L14.548 15.8253C14.507 15.8097 14.4783 15.7881 14.4619 15.7608C14.4455 15.7334 14.4373 15.7001 14.4373 15.661C14.4373 15.6219 14.4455 15.5886 14.4619 15.5612C14.4783 15.5338 14.507 15.5123 14.548 15.4967L15.4336 15.1328L15.7903 14.3229C15.8067 14.2837 15.8293 14.2563 15.858 14.2407C15.8867 14.225 15.9215 14.2172 15.9625 14.2172C16.0035 14.2172 16.0384 14.225 16.0671 14.2407C16.0958 14.2563 16.1183 14.2837 16.1347 14.3229L16.4914 15.1328L17.377 15.4967C17.418 15.5123 17.4467 15.5338 17.4631 15.5612C17.4795 15.5886 17.4877 15.6219 17.4877 15.661C17.4877 15.7001 17.4795 15.7334 17.4631 15.7608C17.4467 15.7881 17.418 15.8097 17.377 15.8253L16.4914 16.1892L16.1347 16.9522C16.1183 16.9913 16.0937 17.0187 16.0609 17.0343C16.0281 17.05 15.9953 17.0578 15.9625 17.0578ZM10.5628 15.0271C10.4972 15.0271 10.4337 15.0095 10.3722 14.9743C10.3107 14.9391 10.2635 14.8902 10.2307 14.8276L9.43122 13.196L7.70922 12.4565C7.64362 12.4252 7.59237 12.3802 7.55547 12.3216C7.51857 12.2629 7.50012 12.2022 7.50012 12.1396C7.50012 12.077 7.51857 12.0164 7.55547 11.9577C7.59237 11.899 7.64362 11.854 7.70922 11.8227L9.43122 11.0832L10.2307 9.46337C10.2635 9.39295 10.3107 9.34013 10.3722 9.30491C10.4337 9.2697 10.4972 9.25209 10.5628 9.25209C10.6284 9.25209 10.692 9.2697 10.7535 9.30491C10.815 9.34013 10.8621 9.38903 10.8949 9.45164L11.7067 11.0832L13.4164 11.8227C13.4902 11.854 13.5456 11.899 13.5825 11.9577C13.6194 12.0164 13.6378 12.077 13.6378 12.1396C13.6378 12.2022 13.6194 12.2629 13.5825 12.3216C13.5456 12.3802 13.4902 12.4252 13.4164 12.4565L11.7067 13.196L10.8949 14.8276C10.8621 14.898 10.815 14.9489 10.7535 14.9802C10.692 15.0115 10.6284 15.0271 10.5628 15.0271Z" fill="url(#paint1_linear_1266_1966)" shape-rendering="crispEdges"/>
</g>
</g>
<defs>
<filter id="filter0_ddi_1266_1966" x="1.13335" y="1.65966" width="22.0016" height="22.9358" filterUnits="userSpaceOnUse" color-interpolation-filters="sRGB">
<feFlood flood-opacity="0" result="BackgroundImageFix"/>
<feColorMatrix in="SourceAlpha" type="matrix" values="0 0 0 0 0 0 0 0 0 0 0 0 0 0 0 0 0 0 127 0" result="hardAlpha"/>
<feOffset dx="-1.31726" dy="2.48816"/>
<feGaussianBlur stdDeviation="2.52475"/>
<feComposite in2="hardAlpha" operator="out"/>
<feColorMatrix type="matrix" values="0 0 0 0 0.0506089 0 0 0 0 0.0159861 0 0 0 0 0.191833 0 0 0 0.25 0"/>
<feBlend mode="normal" in2="BackgroundImageFix" result="effect1_dropShadow_1266_1966"/>
<feColorMatrix in="SourceAlpha" type="matrix" values="0 0 0 0 0 0 0 0 0 0 0 0 0 0 0 0 0 0 127 0" result="hardAlpha"/>
<feOffset dx="1.24408" dy="-1.1709"/>
<feGaussianBlur stdDeviation="2.19544"/>
<feComposite in2="hardAlpha" operator="out"/>
<feColorMatrix type="matrix" values="0 0 0 0 1 0 0 0 0 1 0 0 0 0 1 0 0 0 0.35 0"/>
<feBlend mode="normal" in2="effect1_dropShadow_1266_1966" result="effect2_dropShadow_1266_1966"/>
<feBlend mode="normal" in="SourceGraphic" in2="effect2_dropShadow_1266_1966" result="shape"/>
<feColorMatrix in="SourceAlpha" type="matrix" values="0 0 0 0 0 0 0 0 0 0 0 0 0 0 0 0 0 0 127 0" result="hardAlpha"/>
<feOffset dy="3.07361"/>
<feGaussianBlur stdDeviation="1.9393"/>
<feComposite in2="hardAlpha" operator="arithmetic" k2="-1" k3="1"/>
<feColorMatrix type="matrix" values="0 0 0 0 1 0 0 0 0 1 0 0 0 0 1 0 0 0 1 0"/>
<feBlend mode="normal" in2="shape" result="effect3_innerShadow_1266_1966"/>
</filter>
<linearGradient id="paint0_linear_1266_1966" x1="25" y1="11.9412" x2="0" y2="11.9412" gradientUnits="userSpaceOnUse">
<stop stop-color="#FFA200"/>
<stop offset="1" stop-color="#F42494"/>
</linearGradient>
<linearGradient id="paint1_linear_1266_1966" x1="14.2481" y1="11.8514" x2="12.8289" y2="18.7578" gradientUnits="userSpaceOnUse">
<stop stop-color="white" stop-opacity="0.96"/>
<stop offset="1" stop-color="white" stop-opacity="0.23"/>
</linearGradient>
</defs>
</svg>
