<svg width="12" height="11" viewBox="0 0 12 11" fill="none" xmlns="http://www.w3.org/2000/svg">
<g id="alarm 2">
<g id="Group">
<path id="Vector" d="M6.40172 9.89581C6.47689 9.89581 6.5491 9.91346 6.60984 9.94217C6.65672 9.96431 6.68974 9.98961 6.71058 10.0105C6.52659 10.1734 6.27249 10.2708 6 10.2708C5.72751 10.2708 5.47341 10.1734 5.28942 10.0105C5.31026 9.98961 5.34328 9.96431 5.39016 9.94217C5.4509 9.91346 5.52311 9.89581 5.59828 9.89581H6.40172Z" fill="white" stroke="url(#paint0_linear_1215_2744)"/>
<path id="Vector_2" d="M1.47586 9.38936L1.48643 9.38317L1.47586 9.38936ZM1.47586 9.38936L1.46589 9.39519L1.47586 9.38936ZM2.75006 6.19552L2.75012 6.19552V6.18749V3.66666C2.75012 2.90232 3.08097 2.15947 3.68633 1.60455C4.29316 1.0483 5.12481 0.729156 6.00012 0.729156C6.87544 0.729156 7.70709 1.0483 8.31391 1.60455C8.91928 2.15947 9.25012 2.90232 9.25012 3.66666V6.18749H9.25007L9.25018 6.19489C9.26533 7.21847 9.53665 8.22066 10.0376 9.12499H1.96206C2.46217 8.22054 2.73361 7.21877 2.75006 6.19552Z" fill="white" stroke="url(#paint1_linear_1215_2744)"/>
</g>
</g>
<defs>
<linearGradient id="paint0_linear_1215_2744" x1="4.21429" y1="9.54055" x2="7.86534" y2="10.021" gradientUnits="userSpaceOnUse">
<stop stop-color="#F42494"/>
<stop offset="1" stop-color="#FFA200"/>
</linearGradient>
<linearGradient id="paint1_linear_1215_2744" x1="0.345223" y1="1.21819" x2="12.0637" y2="1.93287" gradientUnits="userSpaceOnUse">
<stop stop-color="#F42494"/>
<stop offset="1" stop-color="#FFA200"/>
</linearGradient>
</defs>
</svg>
