<svg width="60" height="60" viewBox="0 0 60 60" fill="none" xmlns="http://www.w3.org/2000/svg">
<path d="M19.6168 46.4402H18.0735C18.0192 42.6044 17.8688 38.9975 17.6229 35.6188H17.6093L15.2594 46.4402H14.0844L11.7488 35.6188H11.735C11.5617 38.8636 11.4527 42.4705 11.4072 46.4402H10C10.0909 41.6124 10.3185 37.0868 10.6827 32.8622H12.5956L14.8222 42.8389H14.8359L17.0762 32.8622H18.9065C19.3073 37.8099 19.5441 42.337 19.6168 46.4402Z" fill="#00758F"/>
<path d="M26.3116 36.4224C25.6831 41.4438 24.8541 45.0927 23.8252 47.3691C23.0234 49.1231 22.1451 50.0001 21.1887 50.0001C20.9338 50.0001 20.6194 49.887 20.2463 49.6623V48.4519C20.4286 48.4911 20.6424 48.5121 20.8884 48.5121C21.3346 48.5121 21.6942 48.3305 21.9677 47.9681C22.2953 47.5265 22.4593 47.0302 22.4593 46.4801C22.4593 46.1044 22.3314 45.3335 22.0768 44.1674L20.383 36.4224H21.8992L23.1148 42.2149C23.3879 43.5301 23.5018 44.4482 23.4563 44.9715C24.1212 42.3565 24.5856 39.5067 24.8499 36.4224H26.3116Z" fill="#00758F"/>
<path d="M33.0722 42.6765C33.0722 43.828 32.7849 44.7734 32.2121 45.513C31.6389 46.2494 30.8688 46.6186 29.9044 46.6186C29.0025 46.6186 28.1283 46.1937 27.2816 45.3508L27.6777 44.1845C28.4064 44.7208 29.0658 44.9886 29.6578 44.9886C30.2132 44.9886 30.6479 44.8066 30.9623 44.4471C31.2761 44.0849 31.4642 43.5798 31.4642 42.9391C31.4642 42.1329 31.0823 41.4438 30.3817 40.8657C29.7349 40.343 28.4423 39.2519 28.4423 39.2519C27.742 38.4996 27.3909 37.6924 27.3909 36.3625C27.3909 35.2626 27.6527 34.3735 28.1757 33.6971C28.6999 33.0193 29.3762 32.6805 30.2044 32.6805C31.0604 32.6805 31.8388 33.0169 32.5399 33.6872L32.1838 34.8525C31.5839 34.478 30.9923 34.29 30.4091 34.29C29.9359 34.29 29.5712 34.4573 29.3169 34.7939C29.0613 35.1276 28.9032 35.557 28.9032 36.0803C28.9032 36.8844 29.2934 37.582 30.0137 38.1713C30.6686 38.6942 31.9929 39.8064 31.9929 39.8064C32.7132 40.5573 33.0722 41.3579 33.0722 42.6765Z" fill="#F29111"/>
<path fill-rule="evenodd" clip-rule="evenodd" d="M35.8313 43.724C35.4578 42.8389 35.2707 41.4186 35.2707 39.4602C35.2707 36.0412 35.9767 34.3306 37.3881 34.3306C38.1261 34.3306 38.6677 34.7397 39.014 35.5571C39.3871 36.4426 39.5742 37.8506 39.5742 39.7817C39.5742 43.2281 38.8681 44.952 37.4567 44.952C36.719 44.952 36.1772 44.5431 35.8313 43.724ZM41.3227 46.7677L39.6277 45.537C39.7787 45.3548 39.922 45.1582 40.0517 44.9306C40.7713 43.6848 41.1315 41.841 41.1315 39.4C41.1315 34.908 39.9339 32.6607 37.5388 32.6607C36.364 32.6607 35.4485 33.2303 34.7929 34.3712C34.073 35.6184 33.7136 37.4553 33.7136 39.8825C33.7136 42.2692 34.0321 44.0202 34.6696 45.1324C35.2504 46.1377 36.1289 46.6411 37.3048 46.6411C37.7436 46.6411 38.1461 46.5615 38.512 46.4024L40.7192 48.2938L41.321 46.7676" fill="#F29111"/>
<path d="M46.8556 46.4402H42.4709V32.8622H43.9463V44.77H46.8556V46.4402Z" fill="#F29111"/>
<path d="M47.9077 46.4388H48.1522V45.0573H48.4721V44.7751H47.5754V45.0573H47.9077V46.4388ZM49.7681 46.4388H49.9985V44.7751H49.6519L49.3698 45.9091L49.0627 44.7751H48.7287V46.4388H48.9468V45.1726H48.9592L49.2808 46.4388H49.4469L49.7681 45.1726V46.4388Z" fill="#F29111"/>
<path fill-rule="evenodd" clip-rule="evenodd" d="M48.7076 28.314C47.8159 28.2811 47.1253 28.4121 46.5461 28.7734C46.379 28.8717 46.1119 28.8717 46.089 29.1834C46.1788 29.3145 46.1895 29.5276 46.2681 29.7088C46.4014 30.0369 46.6349 30.4792 46.847 30.7095C47.081 30.9721 47.315 31.2336 47.5604 31.4632C47.9947 31.8587 48.485 32.0874 48.9078 32.4813C49.1537 32.7106 49.398 33.0057 49.6439 33.2524C49.766 33.3836 49.8434 33.5972 50 33.6784V33.6287C49.9214 33.4815 49.8995 33.2682 49.8219 33.1032C49.7108 32.9404 49.5991 32.7918 49.4875 32.6285C49.1642 31.9888 48.7626 31.4315 48.3291 30.9721C47.9723 30.6102 47.1919 30.118 47.0477 29.5128C47.0477 29.5128 47.036 29.4954 47.0251 29.4792C47.2703 29.4459 47.5604 29.3145 47.7942 29.215C48.1725 29.0677 48.5179 29.101 48.9078 28.9538C49.0864 28.8877 49.2647 28.8051 49.4437 28.7245V28.5758C49.242 28.2811 49.0978 27.8868 48.8862 27.6081C48.3184 26.8865 47.6938 26.1816 47.0477 25.5901C46.7018 25.2619 46.2562 25.0497 45.8884 24.7701C45.7553 24.6715 45.5327 24.6229 45.4544 24.4579C45.2537 24.0971 45.1418 23.622 44.9973 23.1948C44.6745 22.2934 44.362 21.293 44.0839 20.3399C43.8835 19.7006 43.7609 19.0612 43.5157 18.4702C42.3676 15.6807 41.1202 13.9919 39.2039 12.3346C38.7916 11.9897 38.3014 11.8421 37.7782 11.6616C37.4992 11.6444 37.2209 11.6125 36.9424 11.5964C36.7638 11.4811 36.5853 11.1691 36.4296 11.0215C35.7943 10.4312 34.1572 9.15181 33.6889 10.8414C33.388 11.9084 34.1346 12.9578 34.3909 13.4994C34.5802 13.8762 34.8256 14.3035 34.9587 14.7294C35.0368 15.0084 35.0591 15.3043 35.1375 15.5991C35.3155 16.3208 35.4824 17.1249 35.7169 17.7979C35.839 18.1425 35.9726 18.5039 36.1285 18.8141C36.2185 18.9957 36.3739 19.0766 36.4075 19.3728C36.252 19.7006 36.2399 20.1927 36.1509 20.6032C35.75 22.4571 35.9057 24.7538 36.4741 26.1152C36.652 26.5253 37.0759 27.4279 37.6442 27.0826C38.1455 26.7878 38.0341 25.8526 38.1788 25.0329C38.2121 24.8346 38.1898 24.7045 38.2564 24.5734V24.6066C38.4123 25.0653 38.5687 25.5071 38.7135 25.9681C39.0594 26.7711 39.6605 27.608 40.1623 28.1653C40.4289 28.4617 40.6408 28.9694 40.975 29.1505V29.1009H40.9531C40.8859 28.9537 40.786 28.8876 40.6967 28.7732C40.4963 28.4777 40.2739 28.1167 40.1173 27.7887C39.6495 26.8704 39.2367 25.8526 38.8699 24.8028C38.6911 24.293 38.5354 23.7358 38.3904 23.2275C38.3238 23.0315 38.3238 22.7354 38.2121 22.6372C38.0446 22.9977 37.8001 23.3099 37.6777 23.7515C37.4658 24.4578 37.4437 25.3271 37.3652 26.2298C37.3209 26.247 37.3433 26.2298 37.3209 26.2624C36.9648 26.1313 36.8422 25.59 36.7081 25.1321C36.3739 23.9658 36.3177 22.0956 36.6079 20.7502C36.6855 20.4063 37.0207 19.3235 36.8864 18.9954C36.8191 18.6824 36.5965 18.5036 36.4741 18.2565C36.3296 17.9449 36.1728 17.552 36.0735 17.2067C35.8059 16.2883 35.6714 15.2707 35.3827 14.3523C35.2489 13.9251 35.0144 13.482 34.8256 13.089C34.6135 12.646 34.3797 12.3344 34.2124 11.81C34.1572 11.6291 34.0791 11.3336 34.1679 11.1373C34.1898 11.0059 34.235 10.9564 34.3243 10.9235C34.4683 10.743 34.8811 10.9722 35.0256 11.0707C35.4381 11.3161 35.7835 11.5471 36.1285 11.8909C36.2846 12.0553 36.4517 12.367 36.652 12.4497H36.8864C37.2428 12.5636 37.6441 12.4816 37.9786 12.6299C38.5687 12.9085 39.1034 13.3186 39.5828 13.7617C41.0419 15.1235 42.2452 17.0598 43.0582 19.3726C43.1922 19.7494 43.2484 20.0943 43.3707 20.4873C43.6047 21.2928 43.8947 22.113 44.1282 22.8997C44.362 23.6709 44.5853 24.4577 44.92 25.0985C45.0866 25.4424 45.7553 25.6229 46.0562 25.8035C46.2785 25.9507 46.6244 26.0821 46.8251 26.2623C47.2038 26.6063 47.5819 27.0006 47.9389 27.3785C48.1168 27.5754 48.674 27.9853 48.7076 28.314Z" fill="#00758F"/>
<path fill-rule="evenodd" clip-rule="evenodd" d="M37.343 14.0555C37.154 14.0555 37.0207 14.0892 36.8862 14.1379V14.1708H36.9078C36.9978 14.4327 37.154 14.6146 37.2644 14.8439C37.3542 15.1064 37.4323 15.3679 37.5213 15.6308C37.5322 15.6147 37.543 15.5975 37.543 15.5975C37.7001 15.4342 37.7779 15.172 37.7779 14.7776C37.7106 14.6619 37.7001 14.548 37.6439 14.4327C37.5772 14.269 37.4323 14.187 37.343 14.0555Z" fill="#00758F"/>
</svg>
