<svg xmlns="http://www.w3.org/2000/svg" width="1040" height="756" stroke="none" stroke-linecap="round" stroke-linejoin="round" fill="#00546b" fill-rule="nonzero"><path d="M957.3737 584.6396c-56.5548-1.046-100.3857 3.146-137.1452 14.6667-10.6029 3.1413-27.5686 3.144-28.9874 13.0939 5.6646 4.192 6.3686 11 11.3186 16.76 8.4838 10.4714 23.3239 24.616 36.7582 31.9507 14.843 8.3783 29.6928 16.7547 45.2362 24.0893 27.5766 12.5701 58.6783 19.9027 85.5395 32.473 15.5573 7.327 31.1041 16.76 46.6581 24.616 7.7771 4.1851 12.7199 10.9977 22.6188 13.616v-1.5703c-4.95-4.7166-6.3646-11.5246-11.3104-16.76-7.0623-5.2377-14.1352-9.952-21.2056-15.1907-20.5029-20.423-45.9495-38.232-73.5196-52.895-22.6185-11.5236-72.105-27.2343-81.2944-46.6149l-1.4146-1.0434c15.5515-1.0493 33.9282-5.2387 48.7781-8.3827 24.0351-4.7146 45.9471-3.6666 70.6896-8.3773 11.3088-2.0973 22.6233-4.7173 33.9314-7.3347v-4.712c-12.7162-9.4306-21.9121-21.9979-35.3432-30.9026-36.0542-23.0484-75.6424-45.5664-116.6413-64.418-21.9148-10.474-50.193-17.2864-73.5196-26.1884-8.4771-3.146-22.6229-4.714-27.566-9.952-12.7303-11.522-19.7961-26.7076-28.9875-40.3289-20.493-28.808-40.2938-60.7511-57.9637-91.128-12.7223-20.4261-20.5001-40.8527-36.0541-59.7051-72.809-89.0356-151.9837-142.9796-273.5735-195.88-26.1545-10.998-57.2552-15.712-90.4817-21.472l-53.0175-2.096c-11.3105-3.6663-22.6229-13.616-32.5228-18.3296C138.0719 13.7669 34.1509-27.0811 4.4594 26.8629c-19.0869 34.0423 28.2765 67.5607 44.5345 84.8443 12.023 12.046 27.5705 25.662 36.0578 39.2824 4.95 8.8973 6.358 18.33 11.308 27.756 11.3108 23.0396 21.9121 48.708 36.7582 70.1826 7.7808 10.9974 16.2555 22.52 26.1547 32.4694 5.6548 5.76 15.5502 8.3807 17.6733 17.808-9.893 10.4746-10.6039 26.1866-16.262 39.2813-25.4474 59.1803-15.5498 132.504 20.5007 175.9723 11.3088 13.0924 38.1772 41.9024 74.2245 30.9024 31.8119-9.426 24.7425-39.28 33.9346-65.466 2.1232-6.2887.7068-10.4764 4.95-14.6647v1.0487l28.9779 43.4676c21.9191 25.662 60.0892 52.3744 91.8973 70.1824 16.973 9.424 30.3996 25.6626 51.6076 31.4247v-1.5727h-1.4108c-4.2458-4.716-10.604-6.808-16.2618-10.4753-12.723-9.4267-26.8653-20.9487-36.7581-31.4251-29.6888-29.3296-55.847-61.7996-79.1753-95.32-11.3104-16.2336-21.208-34.0416-30.3956-50.278-4.2459-6.2889-4.2459-15.7129-11.3153-18.8516-10.6032 11.5193-26.1506 21.472-33.9277 35.6116-13.424 22.52-14.8455 50.2784-19.7955 79.0844-2.8207.526-1.4125 0-2.8278 1.048-22.6195-4.192-30.3966-21.472-38.8778-36.1404-21.208-37.184-24.7429-96.89-6.3619-139.834 4.95-11.001 26.1555-45.5669 17.6726-56.041-4.2377-9.952-18.381-15.712-26.1569-23.567-9.1886-9.953-19.0885-22.521-25.4466-33.521-16.9661-29.3286-25.4515-61.8006-43.8243-91.133-8.4881-13.618-23.3308-27.7563-35.3493-40.3236-13.4285-14.1424-28.2745-24.0944-38.8786-40.8544-3.5308-5.76-8.4849-15.1856-2.8271-21.472 1.4108-4.19 4.2353-5.76 9.8962-6.808 9.189-5.7623 35.3469 1.57 44.5321 4.711 26.1579 7.8534 48.0699 15.1907 69.9856 26.1861 9.8962 5.2379 20.5001 15.1909 33.22 17.808h14.8489c22.6242 3.664 48.0676 1.0489 69.2755 5.7609 37.4696 8.901 71.3944 21.998 101.7941 36.1404 92.609 43.4676 168.949 105.2726 220.5607 179.1193 8.4811 12.0407 12.0121 23.0434 19.7892 35.6123 14.8498 25.664 33.2269 51.8524 48.0699 76.9904 14.8427 24.6133 28.981 49.7536 50.189 70.1826 10.6079 10.993 53.0167 16.755 72.1025 22.5194 14.1414 4.712 36.0561 8.9046 48.7805 14.664 24.031 10.9936 48.0699 23.568 70.6886 35.6116 11.3162 6.2844 46.6554 19.3804 48.7822 29.8524h0 0zM236.3231 129.5109c-12.0225 0-20.5033 1.0556-28.9846 2.6238 0-.0002 0 .5205 0 1.048h1.4185c5.6546 8.3763 15.5436 14.1438 22.6163 21.472 5.6544 8.3763 10.6039 16.76 16.2584 25.1438l1.4081-1.048c9.9103-5.2473 14.8499-13.6236 14.8499-26.1915-4.2459-3.6643-4.95-7.3358-8.4813-11-4.2354-5.2401-13.4312-7.8561-19.0853-12.0481h0 0z"/></svg>