<svg width="91" height="60" viewBox="0 0 91 60" fill="none" xmlns="http://www.w3.org/2000/svg">
<path d="M40.6378 31.3553H45.2252L42.7996 27.4636L38.3476 34.5H36.3215L41.7365 26.0478C41.972 25.7063 42.3643 25.5 42.7996 25.5C43.2205 25.5 43.6129 25.6992 43.8412 26.0336L49.2776 34.5H47.2514L46.2954 32.9277H41.6509L40.6378 31.3553ZM61.6844 32.9277V25.5854H59.965V33.6462C59.965 33.8668 60.0506 34.0802 60.2147 34.2439C60.3788 34.4075 60.6 34.5 60.8425 34.5H68.6833L69.6964 32.9277H61.6844ZM33.2394 31.6115C34.9089 31.6115 36.2644 30.2668 36.2644 28.602C36.2644 26.9372 34.9089 25.5854 33.2394 25.5854H25.7175V34.5H27.4363V27.1577H33.1252C33.9243 27.1577 34.5664 27.8051 34.5664 28.602C34.5664 29.3988 33.9243 30.0462 33.1252 30.0462L28.2781 30.0391L33.4106 34.5H35.9077L32.4546 31.6114L33.2394 31.6115ZM15.1372 34.5C12.6694 34.5 10.6667 32.5079 10.6667 30.0462C10.6667 27.5846 12.6694 25.5854 15.1372 25.5854H20.3332C22.8017 25.5854 24.8029 27.5846 24.8029 30.0462C24.8029 32.5079 22.8017 34.5 20.3332 34.5H15.1372ZM20.2176 32.9277C21.8165 32.9277 23.1114 31.6399 23.1114 30.0462C23.1114 28.4526 21.8165 27.1577 20.2176 27.1577H15.2521C13.654 27.1577 12.3583 28.4526 12.3583 30.0462C12.3583 31.6399 13.654 32.9277 15.2521 32.9277H20.2176ZM52.8662 34.5C50.3977 34.5 48.393 32.5079 48.393 30.0462C48.393 27.5846 50.3977 25.5854 52.8662 25.5854H59.0375L58.0316 27.1577H52.9804C51.3823 27.1577 50.0838 28.4526 50.0838 30.0462C50.0838 31.6399 51.3823 32.9277 52.9804 32.9277H59.1802L58.1671 34.5H52.8662ZM73.8914 32.9277C72.5715 32.9277 71.4514 32.0454 71.109 30.8288H78.4574L79.4705 29.2565H71.109C71.4514 28.047 72.5715 27.1577 73.8914 27.1577H78.9355L79.9557 25.5854H73.7772C71.3087 25.5854 69.304 27.5846 69.304 30.0462C69.304 32.5079 71.3087 34.5 73.7772 34.5H79.0781L80.0912 32.9277H73.8914ZM80.876 26.5316C80.8757 26.4288 80.8958 26.3269 80.9352 26.2318C80.9745 26.1367 81.0323 26.0503 81.1052 25.9776C81.1781 25.9048 81.2648 25.8472 81.3601 25.808C81.4555 25.7688 81.5577 25.7487 81.6608 25.749C82.1032 25.749 82.4527 26.0976 82.4527 26.5316C82.4527 26.9727 82.1032 27.3213 81.6608 27.3213C81.2256 27.3213 80.876 26.9727 80.876 26.5316ZM81.6608 27.5419C82.2173 27.5419 82.6667 27.0937 82.6667 26.5387C82.6667 25.9838 82.2173 25.5356 81.6608 25.5356C81.1114 25.5356 80.662 25.9838 80.662 26.5387C80.662 27.0937 81.1114 27.5419 81.6608 27.5419ZM81.568 25.9411C81.725 25.9411 81.7892 25.9482 81.8606 25.9767C82.0603 26.0407 82.0817 26.2186 82.0817 26.2897C82.0817 26.3039 82.0817 26.3395 82.0674 26.3822C82.0603 26.4249 82.0318 26.5103 81.9319 26.5743C81.9176 26.5814 81.9105 26.5885 81.882 26.6028L82.1388 27.0652H81.8891L81.6608 26.6383H81.5039V27.0652H81.2827V25.9411H81.568ZM81.6465 26.4534C81.7179 26.4462 81.7892 26.4462 81.832 26.3822C81.8534 26.3538 81.8606 26.3253 81.8606 26.2826C81.8606 26.2257 81.8249 26.1759 81.775 26.1474C81.725 26.1261 81.6751 26.1261 81.568 26.1261H81.5039V26.4534H81.6465Z" fill="#F80000"/>
</svg>
