<svg width="60" height="60" viewBox="0 0 60 60" fill="none" xmlns="http://www.w3.org/2000/svg">
<path d="M37.1897 33.6311C37.3964 31.9036 37.3346 31.6502 38.616 31.9299L38.9414 31.9588C39.9269 32.0037 41.2162 31.7995 41.9732 31.4463C43.6035 30.6869 44.5701 29.4184 42.9626 29.7516C39.2955 30.511 39.0434 29.2648 39.0434 29.2648C42.9159 23.4963 44.5348 16.1739 43.1376 14.3814C39.3269 9.49241 32.7303 11.8043 32.6198 11.8644L32.5845 11.8712C31.8599 11.7199 31.0493 11.63 30.1383 11.6152C28.4789 11.5879 27.2197 12.0521 26.2645 12.7793C26.2645 12.7793 14.4967 7.91166 15.0441 18.9007C15.1605 21.2386 18.3816 36.59 22.2233 31.9532C23.6274 30.2579 24.9844 28.8242 24.9844 28.8242C25.6583 29.2736 26.465 29.5028 27.3112 29.4204L27.3766 29.3646C27.3563 29.575 27.3652 29.7808 27.4031 30.0244C26.4133 31.1351 26.7043 31.3301 24.7254 31.7388C22.7236 32.1531 23.8998 32.8905 24.6672 33.0832C25.5985 33.3173 27.7517 33.6485 29.2071 31.6029L29.1492 31.8363C29.5376 32.1482 29.5112 34.0776 29.5661 35.4561C29.621 36.8346 29.7132 38.1209 29.9931 38.8799C30.273 39.6383 30.6033 41.592 33.2038 41.0326C35.3769 40.5644 37.0383 39.8914 37.1897 33.6311Z" fill="black"/>
<path d="M32.3569 42.395C31.2066 42.395 30.4578 41.9485 30.0026 41.5171C29.316 40.8668 29.0436 40.0286 28.8811 39.528L28.8108 39.3189C28.4831 38.4308 28.3723 37.1524 28.3065 35.5063C28.2969 35.249 28.2887 34.9916 28.282 34.7342C28.2765 34.5369 28.2696 34.2893 28.2598 34.0297C27.8454 34.2281 27.4055 34.3678 26.9528 34.4446C26.1419 34.5838 25.2702 34.5385 24.3612 34.3104C23.7199 34.1495 23.0535 33.8159 22.6739 33.3005C21.5671 34.2739 20.5112 34.1416 19.9361 33.9492C18.9214 33.6094 18.0134 32.6551 17.1597 31.0307C16.5518 29.8741 15.9635 28.3665 15.4113 26.5507C14.4499 23.3882 13.8391 20.0573 13.7848 18.9641C13.6142 15.541 14.5317 13.0932 16.5119 11.689C19.6362 9.47337 24.3693 10.7761 26.0948 11.3676C27.254 10.6661 28.6178 10.3243 30.1592 10.3493C30.9872 10.3627 31.7752 10.4359 32.5073 10.5666C33.2708 10.3256 34.7795 9.9796 36.5063 10.0009C39.6879 10.039 42.3244 11.2839 44.1303 13.601C45.4189 15.2544 44.782 18.7258 44.2873 20.6483C43.5918 23.3518 42.3724 26.228 40.8748 28.7316C41.2816 28.7346 41.8705 28.6853 42.7082 28.512C44.3608 28.1692 44.8438 29.0589 44.9749 29.4571C45.5004 31.055 43.2164 32.2621 42.5039 32.594C41.5909 33.0198 40.1028 33.2788 38.8838 33.2227L38.8305 33.2191L38.5104 33.1909L38.4787 33.4588L38.4483 33.7211C38.3666 36.8937 37.915 38.9029 36.986 40.2309C36.0126 41.6225 34.6592 42.0129 33.4673 42.2693C33.1027 42.3505 32.7304 42.3926 32.3569 42.395ZM29.9366 30.8475C30.6791 31.444 30.7442 32.5664 30.8021 34.6643C30.8093 34.9259 30.8162 35.1738 30.8253 35.4052C30.8534 36.1058 30.9192 37.7466 31.1749 38.44C31.2112 38.5378 31.2435 38.6376 31.2775 38.7427C31.5627 39.6199 31.7059 40.0595 32.9389 39.7942C33.9745 39.5716 34.5065 39.3717 34.9231 38.7762C35.5287 37.9101 35.8674 36.1692 35.9295 33.5999L37.1891 33.6308L35.938 33.4801L35.9747 33.1666C36.0947 32.1331 36.181 31.3859 36.8693 30.8921C37.4212 30.4959 38.0507 30.5343 38.552 30.6249C38.0013 30.2076 37.8489 29.7172 37.8084 29.5162L37.7034 28.9969L37.9984 28.5569C39.6987 26.0238 41.1011 22.9106 41.846 20.0153C42.6111 17.0403 42.3777 15.4602 42.1445 15.1614C39.0558 11.1986 33.6988 12.8345 33.1397 13.0206L33.0449 13.0718L32.5708 13.1608L32.3278 13.1102C31.6585 12.9707 30.9149 12.8936 30.1174 12.8804C28.8647 12.8594 27.8543 13.1565 27.0257 13.7878L26.4509 14.2255L25.7835 13.9494C24.3585 13.3643 20.1718 12.1881 17.9627 13.759C16.7365 14.6309 16.178 16.3397 16.3023 18.8377C16.3432 19.6624 16.9017 22.7842 17.8218 25.8124C19.0941 29.9969 20.2503 31.3865 20.7329 31.5484C20.817 31.577 21.0357 31.4062 21.2532 31.1443C22.6677 29.4361 24.0129 28.0123 24.0695 27.9522L24.799 27.1817L25.6809 27.77C26.0363 28.0074 26.4283 28.1417 26.8312 28.1669L28.9347 26.3659L28.6299 29.488C28.6231 29.5583 28.6198 29.6535 28.6473 29.8307L28.7388 30.4227L28.2964 30.92L29.452 31.4558L29.9366 30.8475Z" fill="black"/>
<path d="M42.9636 29.7516C39.2962 30.511 39.0441 29.2644 39.0441 29.2644C42.9162 23.4959 44.5348 16.1733 43.1379 14.3811C39.3269 9.49208 32.7303 11.8043 32.6201 11.8644L32.5845 11.8706C31.8599 11.7199 31.0496 11.63 30.1383 11.6152C28.4789 11.5879 27.2197 12.0518 26.2645 12.779C26.2645 12.779 14.4967 7.91166 15.0441 18.9007C15.1605 21.2386 18.3816 36.59 22.2233 31.9532C23.6274 30.2579 24.9837 28.8242 24.9837 28.8242C25.6576 29.2736 26.4643 29.5028 27.3102 29.4204L27.376 29.3646C27.3557 29.575 27.3648 29.7808 27.4021 30.0244C26.4127 31.1351 26.703 31.3301 24.7248 31.7388C22.7226 32.1531 23.8988 32.8905 24.6669 33.0832C25.5978 33.3173 27.7513 33.6485 29.2064 31.6029L29.1482 31.8363C29.536 32.1482 29.8084 33.8649 29.7626 35.421C29.7168 36.9771 29.6864 38.0454 29.9922 38.8799C30.2979 39.7141 30.6023 41.592 33.2031 41.0326C35.3763 40.5647 36.5024 39.353 36.6594 37.332C36.7705 35.895 37.022 36.1075 37.038 34.8225L37.2401 34.2142C37.4726 32.266 37.277 31.6374 38.616 31.9299L38.9414 31.9588C39.9269 32.0041 41.2165 31.7995 41.9735 31.4463C43.6039 30.6866 44.5708 29.4184 42.9636 29.7516Z" fill="#336791"/>
<path d="M32.4884 41.615C30.3201 41.6153 29.6335 39.8914 29.3522 39.1866C28.9412 38.1537 28.8523 34.1446 28.9438 30.8567C28.9499 30.7469 28.9985 30.6439 29.0791 30.5694C29.1597 30.495 29.266 30.4551 29.3755 30.4582C29.4849 30.4613 29.5889 30.5071 29.6652 30.5859C29.7415 30.6647 29.7842 30.7704 29.7842 30.8803C29.6786 34.6725 29.8287 38.1088 30.1328 38.873C30.6079 40.0654 31.3282 41.1084 33.3657 40.6705C35.2998 40.2538 36.024 39.5175 36.3464 37.6403C36.5943 36.1994 37.0835 32.1006 37.1436 31.2917C37.1519 31.1801 37.204 31.0764 37.2884 31.0034C37.3729 30.9303 37.4828 30.894 37.5939 30.9023C37.705 30.9106 37.8083 30.9629 37.881 31.0477C37.9538 31.1325 37.99 31.2428 37.9817 31.3544C37.9189 32.1961 37.4317 36.2874 37.1744 37.7837C36.7934 40.0014 35.8089 41.0073 33.5416 41.4955C33.1956 41.5722 32.8426 41.6123 32.4884 41.615ZM20.7329 33.1958C20.5435 33.1956 20.3553 33.1644 20.1758 33.1035C18.7674 32.6318 17.4261 30.3291 16.1888 26.2589C15.2471 23.1604 14.6504 19.9267 14.5981 18.8758C14.4427 15.7603 15.2422 13.5557 16.9736 12.324C20.3991 9.88702 26.1619 12.2078 26.4055 12.3076C26.5077 12.3505 26.5889 12.4323 26.6313 12.535C26.6738 12.6378 26.6741 12.7533 26.6322 12.8563C26.5903 12.9593 26.5096 13.0415 26.4076 13.085C26.3056 13.1285 26.1906 13.1298 26.0876 13.0886V13.0889C26.032 13.0659 20.506 10.8434 17.4579 13.0137C15.9773 14.0679 15.2975 16.0258 15.4371 18.8341C15.4812 19.7192 16.0387 22.8758 16.9926 26.013C18.0971 29.6462 19.3544 31.9394 20.4416 32.3031C20.612 32.3606 21.1312 32.5343 21.8741 31.638C23.271 29.9506 24.5544 28.6039 24.5672 28.5904C24.6453 28.5144 24.7498 28.4718 24.8586 28.4715C24.9674 28.4711 25.0721 28.5132 25.1507 28.5888C25.2292 28.6643 25.2756 28.7676 25.2799 28.8767C25.2843 28.9859 25.2463 29.0925 25.174 29.1741C25.1613 29.1873 23.8975 30.5139 22.5202 32.1774C21.8679 32.9647 21.2424 33.1958 20.7329 33.1958ZM39.0179 29.6407C38.9416 29.6408 38.8667 29.62 38.8013 29.5806C38.7359 29.5412 38.6824 29.4846 38.6465 29.4169C38.6107 29.3493 38.594 29.2731 38.598 29.1966C38.6021 29.1201 38.6269 29.0462 38.6697 28.9827C42.584 23.1509 43.958 16.1046 42.7812 14.5951C41.2999 12.6949 39.2082 11.7022 36.5645 11.6454C34.6069 11.6027 33.0508 12.1047 32.7967 12.1923L32.7329 12.2183C32.4772 12.299 32.281 12.1582 32.2071 11.9937C32.165 11.8995 32.1587 11.793 32.1893 11.6944C32.2199 11.5958 32.2853 11.5118 32.3733 11.4583L32.4864 11.4116L32.4808 11.4133L32.4867 11.4113C32.9187 11.2527 34.4983 10.7767 36.4553 10.7994C39.3809 10.8302 41.7973 11.9632 43.4433 14.0748C44.2222 15.0741 44.2238 17.3765 43.4482 20.3912C42.6576 23.4647 41.1698 26.7684 39.3668 29.4545C39.3284 29.5119 39.2764 29.559 39.2156 29.5914C39.1547 29.6239 39.0868 29.6408 39.0179 29.6407ZM39.2177 32.3402C38.5493 32.3402 37.9503 32.246 37.5916 32.03C37.2228 31.8084 37.1525 31.5067 37.1433 31.3468C37.0426 29.5727 38.0177 29.2638 38.515 29.1229C38.4457 29.0179 38.3469 28.8941 38.2452 28.7664C37.9552 28.4026 37.5582 27.9043 37.2522 27.1591C37.2044 27.0428 37.054 26.772 36.8801 26.4588C35.9374 24.7618 33.9761 21.2303 35.236 19.4218C35.8193 18.5849 36.9801 18.2556 38.6909 18.4395C38.1877 16.9001 35.7909 12.0843 30.1046 11.9907C28.3942 11.9619 26.9914 12.4901 25.9375 13.5584C23.5777 15.9513 23.6634 20.2809 23.6644 20.3239C23.6658 20.3793 23.6564 20.4344 23.6366 20.4861C23.6168 20.5378 23.5871 20.5851 23.5491 20.6253C23.5111 20.6655 23.4656 20.6978 23.4152 20.7203C23.3648 20.7428 23.3105 20.7552 23.2553 20.7566C23.2001 20.7581 23.1452 20.7486 23.0937 20.7287C23.0422 20.7089 22.9951 20.679 22.9551 20.6409C22.9151 20.6027 22.8829 20.5571 22.8605 20.5065C22.8381 20.4558 22.8258 20.4013 22.8243 20.3459C22.8191 20.1539 22.7308 15.6106 25.3405 12.9645C26.5618 11.7261 28.1692 11.1149 30.1184 11.1467C33.7571 11.2068 36.0986 13.0636 37.4225 14.6112C38.8652 16.2974 39.5728 18.1575 39.631 18.778C39.6745 19.2395 39.3446 19.3321 39.2779 19.3456L39.1265 19.3492C37.4474 19.0793 36.3703 19.2665 35.925 19.9057C34.9666 21.2806 36.8219 24.621 37.6142 26.0478C37.8166 26.4115 37.9624 26.6745 38.0291 26.837C38.2894 27.4706 38.6288 27.8964 38.9015 28.2385C39.1412 28.5395 39.3491 28.8002 39.4237 29.1068C39.458 29.1676 39.9478 29.8944 42.8531 29.2923C43.5813 29.1416 44.0178 29.2707 44.1512 29.6758C44.4138 30.4732 42.9407 31.403 42.1252 31.7835C41.3934 32.1246 40.2271 32.3402 39.2177 32.3402ZM37.9814 31.2772C38.0732 31.3708 38.5343 31.5316 39.4894 31.4906C40.3383 31.4538 41.2339 31.2684 41.7714 31.0182C42.4588 30.6978 42.9172 30.3396 43.1549 30.095L43.0228 30.1193C41.1652 30.5044 39.8514 30.4532 39.118 29.9667C39.0686 29.934 39.0211 29.8986 38.9757 29.8606C38.8963 29.8921 38.8227 29.9128 38.7704 29.9276C38.3541 30.0448 37.9238 30.1659 37.9814 31.2772ZM25.982 33.6341C25.5206 33.6341 25.0351 33.5714 24.539 33.4463C24.0253 33.3173 23.1588 32.9289 23.1722 32.291C23.187 31.575 24.2238 31.3603 24.6146 31.2795C26.0245 30.988 26.1164 30.8711 26.5572 30.3094C26.6857 30.1456 26.8456 29.9417 27.0634 29.6971C27.3871 29.3337 27.7409 29.1492 28.1149 29.1492C28.3752 29.1492 28.5891 29.2382 28.73 29.2966C29.1799 29.4837 29.5553 29.9361 29.7096 30.4778C29.8489 30.9663 29.7826 31.4364 29.5226 31.8015C28.6698 33.0008 27.4456 33.6341 25.982 33.6341ZM24.0799 32.3274C24.2068 32.4256 24.4606 32.5569 24.7427 32.6282C25.1724 32.7358 25.589 32.7907 25.982 32.7907C27.1794 32.7907 28.1404 32.2926 28.8389 31.3114C28.9844 31.1065 28.9409 30.8468 28.902 30.7099C28.8202 30.4236 28.6175 30.1633 28.4086 30.076C28.2951 30.0287 28.2013 29.9926 28.1149 29.9926C28.0685 29.9926 27.9276 29.9926 27.6899 30.2595C27.4891 30.4847 27.3449 30.6686 27.217 30.8311C26.6684 31.5307 26.4169 31.768 24.7839 32.1058C24.3857 32.1886 24.1813 32.272 24.0799 32.3274ZM27.3112 30.3813C27.2109 30.3811 27.114 30.345 27.0379 30.2794C26.9618 30.2138 26.9116 30.123 26.8963 30.0235C26.8855 29.9534 26.8785 29.8828 26.8753 29.812C25.8048 29.7917 24.7722 29.3307 23.9884 28.5093C22.9973 27.4709 22.5461 26.0323 22.7508 24.5626C22.9731 22.9664 22.8901 21.5573 22.8453 20.8003C22.834 20.6446 22.8272 20.4886 22.8247 20.3325C22.8253 20.1992 22.8279 19.8449 24.0067 19.2451C24.4259 19.0317 25.2666 18.6594 26.1847 18.5639C27.7065 18.4063 28.7094 19.0866 29.0096 20.4799C29.8198 24.2421 29.0737 25.9063 28.5289 27.1213C28.4272 27.3472 28.3314 27.5612 28.2549 27.7681L28.1872 27.9509C27.8995 28.7257 27.6506 29.3951 27.7271 29.8954C27.7439 30.006 27.7164 30.1188 27.6505 30.209C27.5846 30.2992 27.4857 30.3596 27.3756 30.3767L27.3112 30.3813ZM23.6676 20.449L23.6843 20.7504C23.7307 21.5366 23.8171 23.0002 23.5829 24.6798C23.4142 25.8918 23.783 27.0753 24.5949 27.926C25.2365 28.5983 26.0814 28.9693 26.9496 28.9693H26.9675C27.065 28.5579 27.2262 28.1239 27.3998 27.6561L27.4672 27.4746C27.5538 27.2408 27.6552 27.0146 27.7624 26.7753C28.2869 25.6052 28.9396 24.1489 28.1879 20.6581C28.0387 19.9671 27.6778 19.5669 27.0843 19.4349C25.8653 19.1644 24.0489 20.0849 23.6676 20.449ZM26.2037 20.2701C26.1828 20.4191 26.4761 20.8173 26.858 20.8705C27.2396 20.924 27.5663 20.6128 27.5869 20.4638C27.6075 20.3144 27.3145 20.1502 26.9322 20.0967C26.5506 20.0432 26.224 20.1207 26.2037 20.2701ZM26.946 21.0176L26.8387 21.0101C26.6017 20.9769 26.362 20.8269 26.1982 20.6085C26.1406 20.5321 26.0464 20.383 26.0651 20.2504C26.0919 20.0557 26.328 19.9395 26.6971 19.9395C26.7799 19.9395 26.8655 19.9457 26.9522 19.9575C27.1536 19.9858 27.341 20.0442 27.4793 20.1217C27.719 20.2563 27.7366 20.406 27.7258 20.4838C27.6961 20.6982 27.3554 21.0176 26.946 21.0176ZM26.343 20.295C26.3551 20.3869 26.5817 20.6906 26.8773 20.7317L26.9456 20.7366C27.2183 20.7366 27.4224 20.5209 27.4463 20.4503C27.4211 20.4024 27.2458 20.2825 26.9129 20.2366C26.8414 20.2263 26.7691 20.221 26.6968 20.2208C26.4836 20.2205 26.3695 20.2688 26.343 20.295ZM37.827 19.9657C37.8476 20.1151 37.555 20.5133 37.1727 20.5665C36.7908 20.6197 36.4642 20.3088 36.4432 20.1594C36.423 20.0104 36.7159 19.8459 37.0979 19.7927C37.4798 19.7389 37.8061 19.817 37.827 19.9657ZM37.0848 20.6427C36.7169 20.6427 36.4001 20.3554 36.3739 20.1693C36.3438 19.9457 36.7104 19.7757 37.0884 19.7231C37.1714 19.7113 37.2538 19.7054 37.3333 19.7054C37.6593 19.7054 37.8751 19.8016 37.8967 19.9562C37.9107 20.0567 37.8342 20.2113 37.7021 20.3505C37.6151 20.4424 37.432 20.6017 37.1829 20.6361L37.0848 20.6427ZM37.333 19.8459C37.26 19.8459 37.1842 19.8515 37.1073 19.862C36.7274 19.9149 36.5014 20.0682 36.5122 20.1502C36.525 20.2402 36.7673 20.5022 37.0844 20.5022L37.1626 20.4966C37.3699 20.4674 37.5255 20.3318 37.5998 20.2533C37.7162 20.1302 37.7626 20.0147 37.7571 19.9749C37.7502 19.9234 37.6102 19.8459 37.333 19.8459ZM38.3773 28.5304C38.3012 28.5303 38.2266 28.5095 38.1613 28.4702C38.0961 28.4309 38.0427 28.3745 38.0069 28.3071C37.971 28.2397 37.9541 28.1637 37.9579 28.0874C37.9617 28.0111 37.9861 27.9373 38.0285 27.8738C38.9231 26.532 38.7593 25.1633 38.601 23.8403C38.5333 23.2763 38.4637 22.6936 38.482 22.1338C38.5003 21.5583 38.5729 21.0836 38.6435 20.624C38.7269 20.08 38.8057 19.5655 38.773 18.9556C38.7706 18.8459 38.8108 18.7397 38.885 18.6593C38.9593 18.5788 39.0618 18.5306 39.1708 18.5247C39.2799 18.5188 39.3869 18.5558 39.4693 18.6277C39.5518 18.6997 39.603 18.801 39.6124 18.9103C39.6496 19.6076 39.5604 20.1893 39.474 20.7523C39.4073 21.1867 39.3384 21.6358 39.3217 22.1607C39.3057 22.6561 39.3688 23.1824 39.4355 23.7392C39.6042 25.1466 39.7948 26.7418 38.7269 28.3429C38.6458 28.4644 38.5127 28.5304 38.3773 28.5304Z" fill="white"/>
<path d="M10 42.5309C10.4695 42.4545 10.9445 42.4173 11.4201 42.4199C12.1509 42.4199 12.6868 42.5907 13.0269 42.898C13.3415 43.1711 13.5285 43.5893 13.5285 44.1018C13.5285 44.6225 13.3751 45.0322 13.0861 45.331C12.695 45.7492 12.0574 45.9626 11.3348 45.9626C11.1137 45.9626 10.9097 45.9541 10.74 45.9114V48.2164H10V42.5309ZM10.74 45.305C10.9015 45.3477 11.1055 45.3648 11.3521 45.3648C12.2444 45.3648 12.7889 44.9295 12.7889 44.1356C12.7889 43.3759 12.2532 43.0089 11.4371 43.0089C11.114 43.0089 10.8675 43.0345 10.74 43.0687V45.305ZM18.0088 46.1159C18.0088 47.6438 16.9543 48.3099 15.9596 48.3099C14.8459 48.3099 13.9872 47.4905 13.9872 46.1842C13.9872 44.8014 14.8884 43.9905 16.0276 43.9905C17.2097 43.9902 18.0088 44.8526 18.0088 46.1159ZM14.7442 46.1586C14.7442 47.0634 15.2628 47.7462 15.994 47.7462C16.7081 47.7462 17.2434 47.0719 17.2434 46.1415C17.2434 45.4416 16.8951 44.5539 16.0106 44.5539C15.1261 44.5539 14.7442 45.3733 14.7442 46.1586ZM18.8502 47.4475C19.0712 47.5926 19.4623 47.7462 19.8363 47.7462C20.3804 47.7462 20.6355 47.4731 20.6355 47.1317C20.6355 46.7732 20.4233 46.5768 19.8704 46.372C19.1307 46.1074 18.7821 45.6977 18.7821 45.2026C18.7821 44.5368 19.3177 43.9905 20.2019 43.9905C20.6185 43.9905 20.9844 44.11 21.2139 44.2466L21.0269 44.7929C20.7739 44.6363 20.4824 44.5536 20.1852 44.5539C19.7432 44.5539 19.4966 44.81 19.4966 45.1172C19.4966 45.4587 19.7435 45.6123 20.2791 45.8172C20.9932 46.0903 21.3588 46.4488 21.3588 47.0634C21.3588 47.7889 20.7977 48.3011 19.82 48.3011C19.3694 48.3011 18.9528 48.1901 18.6638 48.0194L18.8502 47.4475ZM23.2203 42.8976V44.0841H24.2912V44.656H23.2203V46.8838C23.2203 47.396 23.3645 47.6862 23.7814 47.6862C23.9276 47.6883 24.0733 47.6711 24.215 47.6349L24.249 48.1983C24.1048 48.2581 23.8749 48.3007 23.5862 48.3007C23.2376 48.3007 22.9568 48.1898 22.7782 47.9849C22.566 47.763 22.4892 47.396 22.4892 46.9094V44.656H21.8516V44.0841H22.4892V43.0939L23.2203 42.8976ZM28.6273 44.0844C28.61 44.3832 28.5933 44.7161 28.5933 45.2197V47.6182C28.5933 48.5657 28.4063 49.1461 28.0067 49.5049C27.6071 49.8805 27.029 50 26.5104 50C26.0173 50 25.4732 49.8805 25.1413 49.6586L25.3284 49.0867C25.6004 49.2574 26.0255 49.411 26.5356 49.411C27.3007 49.411 27.8619 49.0099 27.8619 47.9685V47.5076H27.8448C27.6153 47.8917 27.1732 48.199 26.5356 48.199C25.5154 48.199 24.7843 47.3283 24.7843 46.1842C24.7843 44.7843 25.6939 43.9905 26.6376 43.9905C27.3521 43.9905 27.7432 44.3661 27.9217 44.7075H27.9387L27.9727 44.0844H28.6273ZM27.8537 45.7147C27.8537 45.5867 27.8452 45.4757 27.8112 45.3733C27.6751 44.938 27.3096 44.5795 26.7655 44.5795C26.051 44.5795 25.5412 45.1855 25.5412 46.1415C25.5412 46.9524 25.9493 47.6267 26.757 47.6267C27.2161 47.6267 27.6326 47.3365 27.7942 46.8585C27.8367 46.7305 27.854 46.5854 27.854 46.4573L27.8537 45.7147ZM29.7832 45.3733C29.7832 44.8868 29.7747 44.4685 29.7492 44.0844H30.4042L30.4293 44.8953H30.4633C30.6504 44.3405 31.101 43.9905 31.6026 43.9905C31.6876 43.9905 31.7468 43.9991 31.8148 44.0161V44.7246C31.7311 44.7063 31.6456 44.6977 31.56 44.699C31.0329 44.699 30.6585 45.1002 30.5569 45.6635C30.5359 45.779 30.5245 45.8961 30.5229 46.0135V48.2157H29.7832V45.3733ZM32.8951 46.2866C32.9121 47.3024 33.5579 47.7206 34.3061 47.7206C34.842 47.7206 35.1647 47.6267 35.4453 47.5072L35.5728 48.045C35.3092 48.1645 34.8587 48.3011 34.204 48.3011C32.9373 48.3011 32.1807 47.4646 32.1807 46.2183C32.1807 44.9721 32.9118 43.9902 34.1105 43.9902C35.4538 43.9902 35.8108 45.1767 35.8108 45.9363C35.8108 46.09 35.7938 46.2095 35.7853 46.2863L32.8951 46.2866ZM35.0885 45.7489C35.0967 45.2709 34.8927 44.5283 34.0513 44.5283C33.2947 44.5283 32.9631 45.2282 32.9033 45.7489H35.0885Z" fill="black"/>
<path d="M36.661 47.3109C37.0618 47.5526 37.5197 47.6823 37.9872 47.6865C38.7439 47.6865 39.186 47.2853 39.186 46.7049C39.186 46.1671 38.8799 45.8598 38.1063 45.5611C37.1711 45.2282 36.593 44.7417 36.593 43.9308C36.593 43.0345 37.3326 42.3687 38.4463 42.3687C39.0329 42.3687 39.458 42.5053 39.7131 42.6504L39.509 43.2565C39.1746 43.0759 38.8005 42.982 38.4208 42.9833C37.6387 42.9833 37.3411 43.4528 37.3411 43.8454C37.3411 44.3832 37.6894 44.6478 38.4803 44.9551C39.4495 45.331 39.9426 45.8001 39.9426 46.6451C39.9426 47.5328 39.288 48.3011 37.9362 48.3011C37.3836 48.3011 36.78 48.1389 36.4736 47.934L36.661 47.3109ZM45.6812 49.0607C44.9421 48.866 44.2105 48.6439 43.4878 48.395C43.3688 48.3523 43.2497 48.3096 43.1392 48.3096C41.779 48.2584 40.6142 47.2512 40.6142 45.3989C40.6142 43.5552 41.7365 42.3687 43.2837 42.3687C44.8395 42.3687 45.8515 43.5808 45.8515 45.2794C45.8515 46.7561 45.1714 47.7036 44.2192 48.0365V48.0706C44.7888 48.2157 45.4095 48.3523 45.8941 48.4376L45.6812 49.0607ZM45.0691 45.3136C45.0691 44.1612 44.4743 42.9744 43.2582 42.9744C42.0085 42.9744 41.3964 44.1353 41.4049 45.3818C41.3964 46.6025 42.068 47.7036 43.2242 47.7036C44.4063 47.7036 45.0691 46.6281 45.0691 45.3136ZM46.8116 42.4626H47.5515V47.5926H50V48.2157H46.8116V42.4626Z" fill="#336791"/>
</svg>
