<svg width="19" height="17" viewBox="0 0 19 17" fill="none" xmlns="http://www.w3.org/2000/svg">
<path d="M3.54998 5.23111C4.64535 5.23111 5.53332 4.28394 5.53332 3.11556C5.53332 1.94717 4.64535 1 3.54998 1C2.45462 1 1.56665 1.94717 1.56665 3.11556C1.56665 4.28394 2.45462 5.23111 3.54998 5.23111Z" stroke="#E2E3E4" stroke-miterlimit="10"/>
<path d="M8.36667 10.9733C5.53333 9.46222 5.53333 6.74222 3.26667 6.74222C2.66959 6.75608 2.10058 7.01527 1.67828 7.46572C1.25598 7.91617 1.013 8.52311 1 9.16V16.1111H5.53333V11.2756" stroke="#E2E3E4" stroke-miterlimit="10" stroke-linecap="square"/>
<path d="M15.45 5.23111C16.5454 5.23111 17.4333 4.28394 17.4333 3.11556C17.4333 1.94717 16.5454 1 15.45 1C14.3546 1 13.4667 1.94717 13.4667 3.11556C13.4667 4.28394 14.3546 5.23111 15.45 5.23111Z" stroke="#E2E3E4" stroke-miterlimit="10"/>
<path d="M10.6334 10.9733C13.4667 9.46222 13.4667 6.74222 15.7334 6.74222C16.3304 6.75608 16.8995 7.01527 17.3217 7.46572C17.744 7.91617 17.987 8.52311 18 9.16V16.1111H13.4667V11.2756" stroke="#E2E3E4" stroke-miterlimit="10" stroke-linecap="square"/>
</svg>
