<svg width="121" height="56" viewBox="0 0 121 56" fill="none" xmlns="http://www.w3.org/2000/svg">
<path d="M63.836 10.2064C63.7673 10.2289 63.4063 10.3602 63.0248 10.4952C60.9829 11.2227 59.5357 12.0664 59.1782 12.7377C59.0407 12.9927 59.0167 13.2027 59.0957 13.4089C59.1851 13.6414 59.3501 13.8214 59.8038 14.1702C60.017 14.3352 60.3779 14.6727 60.6151 14.9277C61.7392 16.1502 62.2823 17.6502 62.2204 19.3452C62.1517 21.2539 61.3301 23.1627 59.7626 25.0677C59.216 25.7352 58.6523 26.2902 57.5763 27.2314C56.6792 28.0152 56.191 28.5252 55.8576 29.0164C54.8367 30.5314 55.1117 31.8814 56.6654 33.0102C58.037 34.0077 60.4535 34.8364 63.3067 35.2864C64.2623 35.4364 65.3417 35.5339 65.6029 35.4927L65.7851 35.4627L66.0704 34.9002C67.5176 32.0614 68.2463 29.3802 68.3357 26.6089C68.3735 25.3714 68.2326 23.9089 67.9885 23.0539C67.9438 22.9002 67.9129 22.7689 67.9163 22.7652C67.9198 22.7614 68.3254 22.6264 68.8135 22.4689C71.3882 21.6327 73.8804 20.9727 75.9395 20.5827C76.3417 20.5077 76.682 20.4289 76.6992 20.4102C76.8092 20.2939 76.4895 19.7464 75.967 19.1614C74.042 16.9939 70.6388 15.3439 66.6445 14.6389C65.8745 14.5039 65.7817 14.4552 65.4963 14.0427C65.0426 13.3864 64.6163 12.2689 64.0354 10.2177C64.0182 10.1502 64.001 10.1502 63.836 10.2064ZM64.1007 10.9789C64.3242 11.6464 64.4617 12.1677 64.4617 12.3514V12.4977L64.2726 12.4752C63.2448 12.3439 61.6017 12.0664 61.251 11.9652C61.1617 11.9389 61.1101 11.9014 61.1273 11.8714C61.1548 11.8264 61.502 11.6427 62.5401 11.1289C63.506 10.6489 63.8738 10.4727 63.9048 10.4689C63.9185 10.4652 64.0045 10.6977 64.1007 10.9789ZM61.9248 12.3852C63.1795 12.6739 64.0973 12.8539 64.2967 12.8539C64.4926 12.8539 64.472 12.8727 63.5473 13.4877C62.8357 13.9602 62.7532 14.0052 62.5745 14.0052H62.3785L61.8492 13.4239C61.2098 12.7189 60.7767 12.2014 60.7767 12.1414C60.7767 12.1189 60.7904 12.1114 60.8076 12.1227C60.8248 12.1264 61.3301 12.2464 61.9248 12.3852ZM60.9967 13.0339C61.306 13.4277 61.5432 13.7577 61.5295 13.7689C61.502 13.7952 60.622 13.5589 60.0857 13.3789C59.6148 13.2214 59.5598 13.1689 59.6835 12.9927C59.766 12.8764 60.371 12.3252 60.4157 12.3214C60.4295 12.3214 60.6873 12.6402 60.9967 13.0339ZM65.0048 13.8439C65.1285 14.1627 65.2213 14.4214 65.2179 14.4252C65.211 14.4289 63.561 14.1514 63.4167 14.1214C63.3857 14.1139 63.6642 13.9077 64.0423 13.6564C64.4204 13.4052 64.7367 13.2177 64.7538 13.2364C64.771 13.2552 64.881 13.5252 65.0048 13.8439ZM61.4057 14.4514C61.4367 14.4852 61.832 15.8689 61.8148 15.8877C61.8079 15.8952 61.6223 15.6589 61.3988 15.3589C61.1754 15.0589 60.8385 14.6352 60.6426 14.4177L60.292 14.0164L60.8351 14.2227C61.1376 14.3314 61.392 14.4364 61.4057 14.4514ZM62.9835 14.6352C63.6676 14.7402 64.2348 14.8377 64.2451 14.8489C64.2554 14.8602 63.8395 15.2127 63.3273 15.6289C62.8117 16.0452 62.3888 16.3827 62.382 16.3752C62.3751 16.3677 62.3235 16.1952 62.2651 15.9852C62.2067 15.7789 62.0623 15.3477 61.942 15.0252C61.8217 14.7027 61.7254 14.4402 61.7323 14.4402C61.7357 14.4402 62.2995 14.5302 62.9835 14.6352ZM64.7023 15.2314C64.8535 15.6177 64.912 15.9852 64.936 16.7239C64.9498 17.1214 64.9498 17.4439 64.9395 17.4439C64.9257 17.4439 64.7092 17.3614 64.4582 17.2639C63.9563 17.0652 62.9732 16.7127 62.8563 16.6864C62.8048 16.6752 63.042 16.4277 63.6676 15.8427C64.1523 15.3852 64.5648 15.0139 64.5854 15.0139C64.6026 15.0139 64.6542 15.1114 64.7023 15.2314ZM66.4657 15.3252C67.222 15.4939 67.8854 15.6439 67.937 15.6589C68.0126 15.6777 67.8304 15.8014 67.0295 16.2814C66.4795 16.6114 65.8538 16.9864 65.6407 17.1177C65.4276 17.2489 65.2488 17.3502 65.2454 17.3464C65.242 17.3427 65.2626 17.2189 65.2935 17.0727C65.407 16.5364 65.3348 15.8689 65.1079 15.3364C65.0426 15.1827 64.9876 15.0439 64.9876 15.0364C64.991 14.9952 65.1285 15.0252 66.4657 15.3252ZM68.5317 16.3339C68.4938 16.5214 68.4079 16.8402 68.3426 17.0464C68.1982 17.5002 67.6688 18.6814 67.5967 18.7114C67.5692 18.7227 67.3182 18.5989 67.0467 18.4339C66.7751 18.2689 66.3798 18.0514 66.1735 17.9502L65.7954 17.7664L67.1807 16.7952C68.3288 15.9927 68.5695 15.8389 68.5832 15.9102C68.5935 15.9589 68.5695 16.1464 68.5317 16.3339ZM69.5457 15.9889C70.9826 16.4389 72.502 17.0464 72.4126 17.1364C72.3954 17.1552 72.2063 17.2227 71.9967 17.2864C70.9104 17.6202 69.4013 18.1902 68.6967 18.5314C68.4767 18.6364 68.2876 18.7152 68.2773 18.7002C68.267 18.6889 68.3529 18.3439 68.4698 17.9314C68.6967 17.1214 68.9613 16.0302 68.9613 15.8914C68.9613 15.8314 68.982 15.8089 69.0335 15.8239C69.0679 15.8389 69.2982 15.9139 69.5457 15.9889ZM63.3617 17.6164C63.6882 17.7327 64.0732 17.8939 64.2142 17.9727C64.4685 18.1114 64.472 18.1152 64.3998 18.2014C64.2692 18.3589 62.8426 19.8102 62.8013 19.8252C62.7807 19.8327 62.7635 19.6152 62.7635 19.2964C62.7635 18.7452 62.7051 17.7477 62.6604 17.5264C62.626 17.3577 62.6535 17.3614 63.3617 17.6164ZM72.4917 17.9052C72.1788 18.4714 71.6598 19.2777 71.2885 19.7877C70.907 20.3089 70.0992 21.2877 70.051 21.2877C70.0338 21.2877 69.917 21.1302 69.7898 20.9352C69.3292 20.2189 68.7963 19.6002 68.3288 19.2402C68.2842 19.2064 68.2567 19.1689 68.267 19.1577C68.2773 19.1464 69.0438 18.8389 69.9685 18.4714C71.8385 17.7327 72.6635 17.4327 72.7151 17.4702C72.722 17.4739 72.6223 17.6689 72.4917 17.9052ZM73.6604 17.8077C74.9529 18.7902 75.8295 19.5852 76.1457 20.0614C76.2248 20.1814 76.2832 20.2827 76.2763 20.2902C76.2695 20.2977 75.8535 20.3464 75.3517 20.4027C73.3476 20.6164 71.921 20.8377 71.1648 21.0477C70.962 21.1039 70.7935 21.1452 70.7901 21.1414C70.7867 21.1377 70.9207 20.9577 71.0892 20.7364C71.9623 19.5927 72.7529 18.4039 73.0451 17.7852C73.1242 17.6202 73.1998 17.4889 73.2135 17.4889C73.2307 17.4889 73.4301 17.6314 73.6604 17.8077ZM66.4279 19.0264C66.6754 19.1727 66.8645 19.3039 66.8542 19.3264C66.8335 19.3677 64.6576 20.6689 64.637 20.6502C64.6335 20.6464 64.7435 20.2564 64.8879 19.7802C65.0323 19.3039 65.1698 18.7864 65.1973 18.6289L65.2454 18.3402L65.6132 18.5539C65.816 18.6702 66.1804 18.8802 66.4279 19.0264ZM64.6026 19.1014C64.3929 19.8964 63.9667 20.9239 63.7707 21.1002C63.726 21.1414 63.6367 21.0852 63.3513 20.8302C63.1485 20.6539 62.9423 20.4777 62.8873 20.4364C62.8357 20.3952 62.7945 20.3539 62.8048 20.3427C62.956 20.1814 64.6885 18.6552 64.6988 18.6777C64.7023 18.6927 64.661 18.8839 64.6026 19.1014ZM68.5488 20.4852C68.8754 20.7252 69.6042 21.4339 69.5663 21.4789C69.556 21.4902 68.817 21.7527 67.9267 22.0602C67.0363 22.3677 66.0429 22.7164 65.7198 22.8327C65.3967 22.9527 65.1285 23.0427 65.1251 23.0389C65.1217 23.0352 65.3485 22.7539 65.627 22.4127C66.3557 21.5239 67.1051 20.5752 67.3732 20.2002L67.6035 19.8777L67.9026 20.0539C68.0642 20.1514 68.3563 20.3464 68.5488 20.4852ZM66.861 19.9752C66.8404 20.0052 66.6445 20.2752 66.4245 20.5789C66.2045 20.8827 65.6751 21.6214 65.2488 22.2214L64.472 23.3127L64.4479 23.1289C64.3998 22.7727 64.2245 22.0714 64.1248 21.8352L64.0251 21.5952L64.5201 21.3252C65.0288 21.0477 66.0945 20.4177 66.5929 20.0989C66.8988 19.9039 66.9195 19.8927 66.861 19.9752ZM62.736 21.2952C62.9388 21.4077 63.1279 21.5577 63.1279 21.6027C63.1279 21.6739 61.8113 22.7839 61.7735 22.7427C61.7667 22.7314 61.8835 22.4764 62.0382 22.1727C62.1929 21.8689 62.3476 21.5277 62.3854 21.4114C62.4232 21.2952 62.4782 21.2014 62.5092 21.2014C62.5401 21.1977 62.6398 21.2427 62.736 21.2952ZM63.8567 22.6602C63.946 22.8552 64.0423 23.3989 63.9942 23.4477C63.9735 23.4664 63.4304 23.7477 62.7842 24.0739C62.1379 24.3964 61.2957 24.8314 60.9107 25.0414C60.5257 25.2514 60.2335 25.3977 60.2645 25.3714C60.292 25.3452 60.7148 24.9552 61.2063 24.5127C62.1551 23.6539 63.2345 22.6264 63.4304 22.3977L63.5507 22.2589L63.6676 22.3789C63.7295 22.4464 63.8154 22.5739 63.8567 22.6602ZM62.7945 22.6489C62.7017 22.7427 62.1929 23.2227 61.6704 23.7177C61.1479 24.2127 60.5188 24.8089 60.2748 25.0414C59.7798 25.5102 59.7798 25.5102 60.4123 24.6139C60.9004 23.9202 61.1548 23.6614 61.856 23.1477C62.1963 22.9002 62.8735 22.4802 62.9423 22.4802C62.9526 22.4802 62.8873 22.5552 62.7945 22.6489ZM67.6998 23.1214C67.7238 23.2677 67.7582 23.7214 67.772 24.1264L67.796 24.8652L67.6379 24.7864C67.0948 24.5127 65.5685 23.5752 65.627 23.5489C65.9604 23.4027 67.607 22.8064 67.6276 22.8289C67.6413 22.8439 67.6757 22.9752 67.6998 23.1214ZM66.4073 24.4452C67.0432 24.8539 67.5692 25.1914 67.576 25.1989C67.5829 25.2064 67.5004 25.2814 67.3973 25.3639C67.1945 25.5252 65.0426 26.7402 65.0117 26.7102C65.0013 26.6989 65.0323 26.4964 65.077 26.2639C65.1663 25.7914 65.242 24.3814 65.2076 23.9352C65.1938 23.7777 65.2007 23.6652 65.2213 23.6802C65.2351 23.6914 65.7713 24.0364 66.4073 24.4452ZM64.6507 24.1452C64.6988 24.5839 64.6404 25.4652 64.5304 25.9264C64.4032 26.4664 64.3276 26.6914 64.2726 26.7102C64.197 26.7364 63.726 26.2714 63.4407 25.8814C63.152 25.4877 62.7704 24.7489 62.8288 24.6889C62.8632 24.6514 64.5407 23.8977 64.5957 23.8977C64.6095 23.8939 64.6335 24.0064 64.6507 24.1452ZM62.5917 25.2477C62.7704 25.6489 63.176 26.2264 63.6195 26.7177C63.9048 27.0327 63.977 27.1339 63.9323 27.1677C63.7329 27.3139 62.8392 27.7714 62.2754 28.0114C61.5913 28.3039 60.701 28.6414 60.6804 28.6114C60.6735 28.6002 60.8763 28.1952 61.1342 27.7114C61.691 26.6577 62.3957 25.1614 62.3957 25.0377C62.3992 24.8839 62.4576 24.9477 62.5917 25.2477ZM61.5363 25.2739C61.526 25.3039 61.4401 25.5364 61.3473 25.7914C60.952 26.8864 60.182 28.3752 60.0101 28.3752C59.876 28.3752 59.6801 27.5089 59.6251 26.6764L59.5976 26.2564L60.5395 25.7389C61.0585 25.4539 61.4985 25.2214 61.5192 25.2214C61.5398 25.2177 61.5467 25.2439 61.5363 25.2739ZM67.8235 26.2864C67.827 26.9164 67.5863 28.4427 67.4557 28.5964C67.4007 28.6602 66.806 28.4202 66.2663 28.1164C65.7851 27.8464 64.991 27.3102 64.991 27.2539C64.991 27.2389 65.1113 27.1714 65.2626 27.1039C65.5479 26.9727 66.8782 26.1964 67.442 25.8327L67.7651 25.6227L67.7926 25.7839C67.8063 25.8739 67.8201 26.1027 67.8235 26.2864ZM58.9513 27.0139C59.0063 27.5127 59.1473 28.1239 59.3226 28.6077C59.3948 28.8064 59.4463 28.9789 59.436 28.9864C59.3673 29.0539 56.5382 29.9052 56.1635 29.9689L55.9848 29.9989L56.0123 29.8489C56.0501 29.6352 56.3251 29.0277 56.5279 28.6977C56.7823 28.2889 57.4079 27.6027 57.8204 27.2839C58.1298 27.0477 58.8723 26.5714 58.8929 26.6014C58.9067 26.6052 58.9273 26.7889 58.9513 27.0139ZM65.3692 28.0677C66.2423 28.5252 66.5723 28.6827 66.9917 28.8402L67.3113 28.9602L67.1085 29.0727C65.9638 29.7064 63.9357 30.6064 63.4132 30.7189C63.2963 30.7452 63.2792 30.7377 63.3032 30.6739C63.3926 30.4189 64.6026 27.6927 64.6267 27.6927C64.6404 27.6927 64.9773 27.8614 65.3692 28.0677ZM63.8326 27.9664C63.7707 28.2889 63.4373 29.3277 63.2448 29.8002C63.0763 30.2127 62.6879 31.0114 62.6192 31.0864C62.5882 31.1202 61.8973 30.6964 61.5707 30.4414C61.2029 30.1564 60.3985 29.3089 60.4226 29.2302C60.4329 29.2002 60.921 28.9939 61.5123 28.7727C62.7567 28.3039 63.451 28.0227 63.6538 27.9064C63.8463 27.7939 63.8635 27.8014 63.8326 27.9664ZM67.3113 29.3989C67.301 29.4927 67.2288 29.9014 67.1532 30.3177C66.916 31.6152 66.6273 32.5039 66.4451 32.5039C66.1907 32.5039 64.4582 32.0464 63.8979 31.8289C63.5163 31.6827 63.1898 31.5139 63.0798 31.4127C63.011 31.3489 63.0488 31.3264 63.5438 31.1052C65.1457 30.3927 66.9951 29.4814 67.1945 29.3089C67.3148 29.2039 67.332 29.2189 67.3113 29.3989ZM59.1988 29.7964C59.0167 30.1527 58.6454 30.7377 57.9338 31.7839L57.3288 32.6764L57.1467 32.5339C56.8923 32.3352 56.4867 31.8552 56.3182 31.5514C56.136 31.2252 56.0123 30.8202 55.9985 30.5127L55.9882 30.2727L56.2873 30.2389C56.6929 30.1939 57.8307 29.9389 58.6385 29.7064C59.0063 29.6014 59.3123 29.5227 59.3192 29.5264C59.3226 29.5377 59.271 29.6577 59.1988 29.7964ZM60.9623 30.7152C61.1651 30.8727 61.4435 31.0752 61.5845 31.1652L61.8423 31.3302L61.7254 31.3827C61.6601 31.4127 60.7182 31.7877 59.6285 32.2152C57.7688 32.9464 57.6485 32.9914 57.597 32.9164C57.566 32.8714 57.5454 32.8264 57.5488 32.8114C57.5523 32.7964 58.0542 32.0877 58.666 31.2364L59.7763 29.6877L60.1854 30.0589C60.4157 30.2652 60.7595 30.5577 60.9623 30.7152ZM61.4195 33.0439C61.0138 33.7077 60.6701 34.2664 60.6563 34.2814C60.6254 34.3264 59.9757 34.1614 59.491 33.9814C58.9823 33.7939 58.3532 33.4489 58.1057 33.2164L57.927 33.0477L58.3292 32.9277C59.9688 32.4402 62.1379 31.8139 62.1482 31.8214C62.1551 31.8289 61.8251 32.3802 61.4195 33.0439ZM63.3685 32.0389C64.2382 32.3652 65.0288 32.5489 66.0567 32.6689L66.3385 32.7027L65.572 33.0027C63.6607 33.7564 62.1104 34.2852 61.3335 34.4502C61.1135 34.4952 60.9142 34.5364 60.8935 34.5364C60.8729 34.5364 61.0276 34.3039 61.2407 34.0189C61.8251 33.2427 62.4576 32.3577 62.626 32.0839C62.7085 31.9527 62.791 31.8402 62.8082 31.8402C62.8288 31.8439 63.0798 31.9302 63.3685 32.0389ZM66.2182 33.7939C65.8882 34.7202 65.6476 35.2864 65.5651 35.3202C65.4035 35.3876 63.1451 35.0276 62.4542 34.8214C61.997 34.6864 61.7048 34.5552 61.7907 34.5214C61.8251 34.5102 62.1517 34.4239 62.5195 34.3339C63.7123 34.0414 65.5342 33.4377 66.2904 33.0852C66.3867 33.0402 66.4726 33.0064 66.4795 33.0139C66.4863 33.0214 66.3695 33.3702 66.2182 33.7939ZM52.8635 34.5777C52.702 34.6527 52.6263 34.7989 52.6092 35.0727C52.592 35.3277 52.592 35.3314 52.4751 35.3314C52.3582 35.3314 52.3548 35.3389 52.3685 35.5189C52.3788 35.6877 52.3926 35.7064 52.4923 35.7214L52.6023 35.7364V37.1089L52.7913 37.0902L52.9838 37.0752L52.9976 36.4002L53.0113 35.7252H53.5751V36.2202C53.5751 36.8352 53.6335 36.9964 53.8776 37.0864C53.9876 37.1277 54.0907 37.1352 54.2007 37.1089C54.3554 37.0752 54.3623 37.0639 54.376 36.8839L54.3898 36.6927L54.2557 36.7189C54.022 36.7639 54.0082 36.7339 54.0151 36.1114L54.0185 35.7289H54.1354C54.3382 35.7289 54.3829 35.6877 54.3829 35.5039V35.3314H54.0185V35.1664C54.0185 34.9227 53.9807 34.8814 53.771 34.8964L53.5923 34.9077L53.5785 35.1177L53.5648 35.3277H53.0045V35.1777C53.0045 34.9714 53.1042 34.8702 53.276 34.9077C53.4067 34.9339 53.4101 34.9339 53.4101 34.7877C53.4101 34.7089 53.386 34.6152 53.362 34.5852C53.307 34.5327 52.9838 34.5252 52.8635 34.5777ZM43.9054 34.6489C43.7301 34.7839 43.816 35.0652 44.036 35.0652C44.2629 35.0652 44.3042 35.0314 44.3042 34.8402C44.3007 34.5964 44.1013 34.4989 43.9054 34.6489ZM40.9285 34.7689C40.8667 34.8176 40.8598 34.9302 40.8701 35.9502L40.8804 37.0752L41.0729 37.0902L41.2654 37.1052V36.1264C41.2654 35.5864 41.2757 35.1552 41.286 35.1664C41.2998 35.1777 41.4167 35.5339 41.5507 35.9577C41.6848 36.3814 41.8223 36.8127 41.8567 36.9177L41.922 37.1089L42.1248 37.0902L42.3276 37.0752L42.637 36.1377L42.9463 35.2002L42.967 36.1377C42.9807 36.6552 42.9945 37.0827 42.9979 37.0902C43.0013 37.0977 43.0942 37.0977 43.1973 37.0902L43.3898 37.0752L43.4001 35.9539C43.407 35.1627 43.3967 34.8139 43.3623 34.7689C43.2901 34.6714 42.8329 34.6902 42.7504 34.7914C42.716 34.8364 42.5717 35.2002 42.4342 35.5977C42.2967 35.9951 42.1729 36.3364 42.1592 36.3552C42.1454 36.3739 42.0251 36.0552 41.891 35.6502C41.757 35.2377 41.6092 34.8702 41.5576 34.8139C41.4854 34.7352 41.4235 34.7127 41.231 34.7127C41.1038 34.7127 40.9663 34.7389 40.9285 34.7689ZM45.0948 35.3314C44.7992 35.4364 44.6238 35.7702 44.6238 36.2389C44.6238 36.7639 44.806 37.0489 45.191 37.1202C45.3663 37.1539 45.6654 37.0789 45.7685 36.9776C45.8373 36.9102 45.8682 36.6589 45.8132 36.6026C45.7995 36.5877 45.7238 36.6139 45.6448 36.6627C45.3526 36.8352 45.136 36.7376 45.0673 36.4039C45.0226 36.1826 45.0707 35.8977 45.1773 35.7739C45.2632 35.6727 45.4763 35.6651 45.6413 35.7589C45.796 35.8451 45.8407 35.8152 45.8407 35.6202C45.8407 35.5114 45.8167 35.4514 45.7445 35.4027C45.6207 35.3089 45.2563 35.2752 45.0948 35.3314ZM46.6726 35.4214C46.5317 35.5564 46.5317 35.5564 46.5179 35.4552C46.5076 35.3689 46.4801 35.3502 46.3323 35.3389L46.1604 35.3239V37.0939H46.566V36.5464C46.566 35.9989 46.566 35.9989 46.6863 35.8564C46.786 35.7402 46.8307 35.7177 46.951 35.7327C47.1023 35.7514 47.1332 35.7139 47.1332 35.5077C47.1332 35.2527 46.8995 35.2077 46.6726 35.4214ZM47.7932 35.3389C47.4667 35.4439 47.2673 35.8602 47.3085 36.3514C47.3463 36.8052 47.5595 37.0639 47.9445 37.1239C48.6251 37.2251 49.0685 36.6176 48.876 35.8526C48.7592 35.4026 48.2917 35.1777 47.7932 35.3389ZM48.2676 35.6839C48.4807 35.8077 48.5357 36.3477 48.3604 36.6026C48.2504 36.7601 48.0063 36.7902 47.8585 36.6627C47.7692 36.5839 47.7623 36.5464 47.7623 36.2164C47.7623 35.8752 47.7692 35.8489 47.8757 35.7477C47.9926 35.6352 48.1438 35.6126 48.2676 35.6839ZM49.4638 35.3502C49.2576 35.4477 49.182 35.5789 49.182 35.8227C49.182 36.0852 49.2576 36.1827 49.6185 36.3702C49.8248 36.4789 49.8695 36.5202 49.8695 36.6139C49.8695 36.6927 49.8385 36.7376 49.756 36.7677C49.6529 36.8052 49.5567 36.7864 49.2301 36.6739C49.1682 36.6514 49.1579 36.6702 49.1682 36.8202C49.1785 36.9627 49.2026 37.0039 49.3023 37.0564C49.4707 37.1464 49.8763 37.1389 50.0448 37.0414C50.2888 36.8989 50.3645 36.4677 50.1857 36.2502C50.1445 36.2014 49.9967 36.1002 49.8488 36.0252C49.5807 35.8864 49.5154 35.7852 49.6082 35.6651C49.6701 35.5864 49.8523 35.5864 50.0345 35.6689C50.1548 35.7252 50.1788 35.7252 50.1995 35.6727C50.2407 35.5527 50.1926 35.4102 50.0929 35.3539C49.9588 35.2752 49.6151 35.2752 49.4638 35.3502ZM51.1035 35.3202C50.746 35.4589 50.5845 35.6952 50.5501 36.1152C50.5088 36.6327 50.6807 36.9627 51.052 37.0827C51.6742 37.2814 52.1588 36.8876 52.1554 36.1864C52.152 35.7626 51.9767 35.4514 51.6742 35.3389C51.5332 35.2864 51.2135 35.2752 51.1035 35.3202ZM51.5745 35.7477C51.681 35.8451 51.6879 35.8751 51.6879 36.1864C51.6879 36.4789 51.6776 36.5314 51.5882 36.6327C51.461 36.7789 51.2204 36.7902 51.1001 36.6589C50.997 36.5464 50.966 36.4002 50.9901 36.0964C51.0038 35.8977 51.0313 35.8302 51.1173 35.7439C51.2617 35.6089 51.4301 35.6126 51.5745 35.7477ZM43.8642 36.2014L43.8745 37.0789H44.2801V35.3539L44.067 35.3426L43.8538 35.3277L43.8642 36.2014ZM41.9288 38.1814C41.4098 38.3052 41.0179 38.6164 40.8117 39.0777C40.6845 39.3589 40.6776 39.4002 40.6776 39.8577C40.6776 40.3001 40.6879 40.3676 40.7876 40.5926C41.0042 41.0764 41.4029 41.4177 42.2348 41.8302C43.1423 42.2802 43.3898 42.5577 43.3898 43.1314C43.3898 43.6527 43.1663 43.9639 42.6748 44.1289C42.1867 44.2939 41.6985 44.2152 41.066 43.8702C40.8563 43.7539 40.6673 43.6527 40.6535 43.6452C40.6363 43.6377 40.5985 43.6639 40.5607 43.7014C40.4851 43.7877 40.4713 44.2151 40.5435 44.3577C40.6948 44.6689 41.4888 44.9577 42.1798 44.9577C43.4792 44.9577 44.3179 44.1139 44.2492 42.8727C44.2354 42.6026 44.2045 42.4714 44.1013 42.2464C43.8985 41.8002 43.6373 41.5676 42.8432 41.1439C42.4754 40.9489 42.0732 40.7127 41.946 40.6189C41.4442 40.2514 41.3273 39.6252 41.6813 39.1902C41.8773 38.9464 42.0767 38.8677 42.4857 38.8639C42.8742 38.8639 43.0323 38.9089 43.4792 39.1564C43.8642 39.3702 43.8985 39.3514 43.8985 38.9352C43.8985 38.5602 43.8779 38.5264 43.5273 38.3502C43.0632 38.1289 42.441 38.0614 41.9288 38.1814ZM47.3463 38.1551C46.5798 38.2901 45.9885 38.6952 45.5932 39.3589C45.3938 39.6964 45.2838 40.0114 45.1807 40.5439C45.0673 41.1252 45.0948 42.4189 45.2288 42.9514C45.5588 44.2602 46.2979 44.8901 47.5629 44.9501C48.2298 44.9801 48.4876 44.9277 49.1407 44.6239C49.1648 44.6127 49.2748 44.6877 49.3848 44.7889C49.8042 45.1864 50.7254 45.7564 51.0485 45.8239C51.2479 45.8652 51.3029 45.7939 51.3029 45.4864C51.3029 45.3439 51.2926 45.1977 51.2788 45.1564C51.2651 45.1152 51.0726 44.9839 50.8457 44.8602C50.4985 44.6727 49.8042 44.1852 49.8042 44.1289C49.8042 44.1176 49.8695 44.0201 49.9451 43.9076C50.2717 43.4426 50.4676 42.7939 50.5363 41.9539C50.5879 41.3127 50.5398 40.6264 50.4057 40.0939C50.1617 39.1302 49.567 38.4664 48.7282 38.2189C48.4498 38.1439 47.6523 38.1026 47.3463 38.1551ZM48.5632 38.9989C49.0445 39.1939 49.3642 39.5914 49.5498 40.2102C49.6426 40.5214 49.6598 40.6639 49.677 41.3239C49.701 42.2089 49.6392 42.6364 49.426 43.1314C49.0857 43.9264 48.3398 44.3239 47.4701 44.1777C46.3907 43.9977 45.9163 43.1089 45.9713 41.3652C46.0023 40.3639 46.1673 39.8389 46.5935 39.3964C46.8445 39.1339 47.0267 39.0177 47.3188 38.9389C47.6557 38.8414 48.2538 38.8714 48.5632 38.9989ZM58.3017 38.1852C57.8032 38.3164 57.3804 38.6539 57.1982 39.0589C56.992 39.5239 56.9851 40.1802 57.181 40.6039C57.4113 41.1027 57.7207 41.3614 58.6832 41.8602C59.412 42.2389 59.656 42.4602 59.7557 42.8314C59.8726 43.2702 59.7213 43.7276 59.3845 43.9677C58.8585 44.3389 58.1092 44.2789 57.3082 43.8027C56.9473 43.5889 56.8957 43.6114 56.8957 43.9902C56.8957 44.3427 56.9404 44.4477 57.1604 44.5864C57.8376 45.0214 58.9651 45.0777 59.6663 44.7177C60.512 44.2826 60.8935 43.1389 60.4948 42.2314C60.4432 42.1152 60.2988 41.9127 60.1682 41.7739C59.9688 41.5602 59.8107 41.4552 59.1438 41.0989C58.037 40.5064 57.817 40.2514 57.8823 39.6477C57.9167 39.3477 58.061 39.1264 58.3154 38.9876C58.4907 38.8902 58.587 38.8714 58.8551 38.8714C59.2538 38.8714 59.4154 38.9164 59.8176 39.1414C60.1613 39.3327 60.2335 39.3477 60.2713 39.2427C60.3195 39.1114 60.2954 38.6727 60.237 38.5789C60.1579 38.4589 59.7557 38.2639 59.4154 38.1852C59.0751 38.1064 58.6076 38.1026 58.3017 38.1852ZM52.0007 38.2564C51.9629 38.2977 51.9526 39.0739 51.9526 41.4814V44.6539L52.0523 44.7626L52.152 44.8714H53.5888C54.6888 44.8714 55.0326 44.8564 55.067 44.8152C55.1288 44.7289 55.1563 44.4702 55.122 44.2977L55.091 44.1439L53.9395 44.1214L52.7879 44.0989L52.7776 41.1852C52.7707 38.9239 52.757 38.2639 52.7192 38.2376C52.6332 38.1852 52.0557 38.1964 52.0007 38.2564ZM62.8048 39.9139C62.6088 39.9477 62.217 40.1164 62.0554 40.2364C61.667 40.5252 61.392 40.9864 61.2373 41.6052C61.141 41.9989 61.141 42.9702 61.2373 43.3714C61.4367 44.1927 61.8767 44.6914 62.5779 44.8939C62.8838 44.9802 63.6573 44.9802 64.0354 44.8939C64.3929 44.8114 64.7642 44.6614 64.8329 44.5751C64.8982 44.4926 64.8948 44.0464 64.8295 43.9752C64.7951 43.9377 64.6885 43.9639 64.4032 44.0689C63.3067 44.4739 62.461 44.2976 62.1345 43.5964C62.0382 43.3902 61.9488 42.9776 61.9488 42.7452V42.6214H63.341C64.221 42.6214 64.7779 42.6026 64.857 42.5727C65.0357 42.5051 65.0838 42.3364 65.0529 41.9014C64.991 41.0389 64.7263 40.4989 64.2073 40.1577C63.8773 39.9402 63.2654 39.8314 62.8048 39.9139ZM63.5473 40.6077C63.9598 40.7427 64.2142 41.1252 64.252 41.6539L64.2726 41.9577H61.942L61.9695 41.7739C62.0417 41.3164 62.217 40.9752 62.4885 40.7727C62.7945 40.5439 63.176 40.4839 63.5473 40.6077ZM67.5313 39.9251C67.3388 39.9926 67.0604 40.2364 66.861 40.5102L66.6685 40.7801L66.6479 40.3864L66.6273 39.9927L66.3867 39.9776C66.2526 39.9701 66.1048 39.9739 66.0532 39.9889L65.9604 40.0114V42.4151C65.9604 44.5676 65.9673 44.8189 66.0257 44.8451C66.1082 44.8789 66.586 44.8789 66.6651 44.8451C66.7235 44.8227 66.7304 44.6389 66.7304 43.2514V41.6839L66.9092 41.4102C67.1532 41.0352 67.4695 40.7314 67.6517 40.6939C67.7479 40.6752 67.8992 40.6902 68.0779 40.7389C68.2532 40.7877 68.3701 40.7989 68.3942 40.7727C68.4148 40.7502 68.4285 40.5702 68.4217 40.3827C68.4113 40.0452 68.4045 40.0302 68.291 39.9739C68.1501 39.8989 67.686 39.8689 67.5313 39.9251ZM74.5026 39.9289C74.1829 39.9889 73.7292 40.2439 73.4954 40.4989C73.052 40.9826 72.8663 41.6502 72.8973 42.6402C72.9248 43.5327 73.076 43.9752 73.5057 44.4139C73.9148 44.8377 74.3479 44.9764 75.1317 44.9501C75.7057 44.9277 76.2213 44.8039 76.4585 44.6314C76.5754 44.5452 76.5892 44.5114 76.5995 44.2939C76.6063 44.1627 76.5926 44.0239 76.572 43.9864C76.5307 43.9151 76.5651 43.9076 75.881 44.1439C75.6026 44.2377 75.4548 44.2602 75.111 44.2639C74.4304 44.2677 74.0798 44.0689 73.8495 43.5589C73.7532 43.3452 73.7188 43.1952 73.7017 42.9477L73.681 42.6214L75.1385 42.6102C76.8882 42.5952 76.7713 42.6364 76.7679 42.0477C76.7645 41.0127 76.3554 40.2927 75.6163 40.0114C75.3482 39.9139 74.8085 39.8727 74.5026 39.9289ZM75.2657 40.6114C75.6679 40.7427 75.9326 41.1327 75.9876 41.6839L76.0151 41.9577H73.6845L73.7085 41.7364C73.767 41.1964 74.1073 40.7314 74.5473 40.5852C74.7157 40.5289 75.0457 40.5439 75.2657 40.6114ZM79.2807 39.9214C79.0195 40.0152 78.6585 40.3452 78.4592 40.6714C78.3938 40.7802 78.3904 40.7727 78.3904 40.4277C78.3904 40.2102 78.3732 40.0527 78.3423 40.0227C78.277 39.9514 77.7751 39.9514 77.7098 40.0227C77.641 40.0977 77.641 44.7439 77.7098 44.8189C77.7751 44.8902 78.356 44.8902 78.4213 44.8189C78.4557 44.7814 78.4695 44.3614 78.4695 43.2177V41.6689L78.6207 41.4251C78.8442 41.0614 79.126 40.7764 79.322 40.7127C79.4904 40.6564 79.5557 40.6639 80.006 40.7914C80.1332 40.8289 80.171 40.7502 80.171 40.4539C80.171 40.1239 80.1435 40.0339 80.0163 39.9702C79.8857 39.9064 79.4148 39.8727 79.2807 39.9214ZM68.5145 40.0377C68.4732 40.0939 68.597 40.5064 69.2226 42.4114C69.6385 43.6789 70.0132 44.7551 70.0545 44.8039C70.2092 44.9764 70.9757 44.9352 71.0445 44.7514C71.096 44.6051 72.5157 40.3039 72.5432 40.2027C72.5913 40.0264 72.5054 39.9739 72.1582 39.9739C71.9554 39.9739 71.8282 39.9926 71.8042 40.0301C71.7835 40.0602 71.4948 40.9564 71.1648 42.0214C70.8348 43.0864 70.5529 43.9414 70.5357 43.9189C70.5185 43.9002 70.2367 43.0302 69.9101 41.9839C69.5835 40.9377 69.2948 40.0602 69.2707 40.0264C69.2088 39.9402 68.5763 39.9514 68.5145 40.0377Z" fill="black"/>
</svg>
