<svg width="18" height="18" viewBox="0 0 18 18" fill="none" xmlns="http://www.w3.org/2000/svg">
<g id="Vector">
<mask id="path-1-inside-1_1259_1865" fill="white">
<path d="M9.34347 14.2136L13.2809 16.7136C13.7887 17.0339 14.4137 16.5573 14.2653 15.9714L13.1247 11.487C13.0939 11.3627 13.0987 11.2322 13.1389 11.1106C13.1789 10.989 13.2525 10.8811 13.3513 10.7995L16.8825 7.85421C17.3434 7.47141 17.1091 6.69798 16.5075 6.65891L11.8981 6.36201C11.7724 6.35469 11.6514 6.3109 11.5502 6.23598C11.4489 6.16106 11.3716 6.05825 11.3278 5.94015L9.60905 1.61203C9.56358 1.48695 9.48065 1.37891 9.3717 1.30254C9.26268 1.22621 9.13275 1.18524 8.99969 1.18524C8.86656 1.18524 8.7367 1.22621 8.62768 1.30254C8.51866 1.37891 8.4358 1.48695 8.39033 1.61203L6.67158 5.94015C6.62779 6.05825 6.5505 6.16106 6.44918 6.23598C6.34794 6.3109 6.22702 6.35469 6.10128 6.36201L1.49191 6.65891C0.890331 6.69798 0.655956 7.47141 1.11685 7.85421L4.64811 10.7995C4.74684 10.8811 4.82046 10.989 4.86052 11.1106C4.90065 11.2322 4.90553 11.3627 4.87471 11.487L3.82002 15.6433C3.64035 16.3464 4.39032 16.9167 4.99189 16.5339L8.65591 14.2136C8.75868 14.1482 8.87792 14.1136 8.99969 14.1136C9.12146 14.1136 9.2407 14.1482 9.34347 14.2136Z"/>
<path fill-rule="evenodd" clip-rule="evenodd" d="M9.00807 14.741C9.00807 14.741 9.00423 14.7385 8.99969 14.7385C8.99969 14.7385 8.99514 14.7385 8.9913 14.741L5.32625 17.0619C5.32625 17.0619 4.93638 17.31 4.48618 17.2786C4.48618 17.2786 4.0719 17.2497 3.73474 16.9934C3.73474 16.9934 3.4018 16.7403 3.25692 16.3508C3.25692 16.3508 3.10113 15.932 3.21446 15.4885L4.26889 11.3333C4.26889 11.3333 4.27188 11.3212 4.26694 11.3062C4.26694 11.3062 4.26201 11.2912 4.24985 11.2812L0.716551 8.33417C0.716551 8.33417 0.396909 8.06871 0.292039 7.67066C0.292039 7.67066 0.1962 7.30689 0.308883 6.94284C0.308883 6.94284 0.422822 6.57473 0.711226 6.33097C0.711226 6.33097 1.02868 6.06266 1.45138 6.03521L6.06108 5.73831C6.06108 5.73831 6.07191 5.73767 6.07752 5.73352C6.07752 5.73352 6.08313 5.72937 6.08556 5.72283L6.09069 5.70947L7.80657 1.38856C7.80657 1.38856 7.94452 1.01798 8.26917 0.790612C8.26917 0.790612 8.5981 0.560242 8.99969 0.560242C8.99969 0.560242 9.40127 0.560242 9.7302 0.790612C9.7302 0.790612 10.0548 1.01798 10.1928 1.38856L11.9087 5.70947L11.9138 5.72283C11.9138 5.72283 11.9162 5.72937 11.9219 5.73352C11.9219 5.73352 11.9275 5.73767 11.9344 5.73807L16.5477 6.03519C16.5477 6.03519 16.9707 6.06266 17.2881 6.33097C17.2881 6.33097 17.5766 6.57473 17.6905 6.94284C17.6905 6.94284 17.8032 7.3069 17.7073 7.67066C17.7073 7.67066 17.6025 8.06871 17.2818 8.33501L13.7516 11.2795C13.7516 11.2795 13.7374 11.2912 13.7324 11.3062C13.7324 11.3062 13.7275 11.3212 13.7313 11.3365L14.871 15.8173C14.871 15.8173 14.9728 16.2192 14.8309 16.5985C14.8309 16.5985 14.6989 16.9516 14.3965 17.1806C14.3965 17.1806 14.09 17.4127 13.7128 17.4387C13.7128 17.4387 13.3036 17.4668 12.9475 17.2422L9.00807 14.741ZM13.6144 16.185L9.67892 13.6863C9.67892 13.6863 9.36779 13.4885 8.99969 13.4885C8.99969 13.4885 8.63137 13.4885 8.32057 13.6862L4.65749 16.0059C4.65749 16.0059 4.57243 16.06 4.4912 15.9982C4.4912 15.9982 4.39337 15.9239 4.42554 15.798L5.48049 11.6407C5.48049 11.6407 5.57191 11.2723 5.45414 10.915C5.45414 10.915 5.33637 10.5576 5.0464 10.3179L1.5172 7.37424C1.5172 7.37424 1.49068 7.35222 1.50299 7.31245C1.50299 7.31245 1.51182 7.28391 1.53237 7.28258L6.14142 6.98573C6.14142 6.98573 6.51608 6.96394 6.8209 6.73845C6.8209 6.73845 7.12241 6.51542 7.25467 6.16518L8.97119 1.84269L8.97766 1.82567C8.97766 1.82567 8.98019 1.81872 8.98624 1.81448C8.98624 1.81448 8.9923 1.81024 8.99969 1.81024C8.99969 1.81024 9.00708 1.81024 9.01313 1.81448C9.01313 1.81448 9.01919 1.81872 9.02171 1.82567L9.02819 1.84269L10.7447 6.16518C10.7447 6.16518 10.877 6.51542 11.1785 6.73845C11.1785 6.73845 11.4833 6.96394 11.8618 6.98596L16.4673 7.2826C16.4673 7.2826 16.4876 7.28391 16.4964 7.31245C16.4964 7.31245 16.5087 7.35222 16.4832 7.3734L12.9509 10.3196C12.9509 10.3196 12.663 10.5576 12.5452 10.915C12.5452 10.915 12.4275 11.2723 12.5181 11.6375L13.6596 16.1255C13.6596 16.1255 13.6692 16.1634 13.6419 16.1841C13.6419 16.1841 13.6288 16.194 13.6144 16.185Z"/>
</mask>
<path d="M9.34347 14.2136L13.2809 16.7136C13.7887 17.0339 14.4137 16.5573 14.2653 15.9714L13.1247 11.487C13.0939 11.3627 13.0987 11.2322 13.1389 11.1106C13.1789 10.989 13.2525 10.8811 13.3513 10.7995L16.8825 7.85421C17.3434 7.47141 17.1091 6.69798 16.5075 6.65891L11.8981 6.36201C11.7724 6.35469 11.6514 6.3109 11.5502 6.23598C11.4489 6.16106 11.3716 6.05825 11.3278 5.94015L9.60905 1.61203C9.56358 1.48695 9.48065 1.37891 9.3717 1.30254C9.26268 1.22621 9.13275 1.18524 8.99969 1.18524C8.86656 1.18524 8.7367 1.22621 8.62768 1.30254C8.51866 1.37891 8.4358 1.48695 8.39033 1.61203L6.67158 5.94015C6.62779 6.05825 6.5505 6.16106 6.44918 6.23598C6.34794 6.3109 6.22702 6.35469 6.10128 6.36201L1.49191 6.65891C0.890331 6.69798 0.655956 7.47141 1.11685 7.85421L4.64811 10.7995C4.74684 10.8811 4.82046 10.989 4.86052 11.1106C4.90065 11.2322 4.90553 11.3627 4.87471 11.487L3.82002 15.6433C3.64035 16.3464 4.39032 16.9167 4.99189 16.5339L8.65591 14.2136C8.75868 14.1482 8.87792 14.1136 8.99969 14.1136C9.12146 14.1136 9.2407 14.1482 9.34347 14.2136Z" stroke="url(#paint0_linear_1259_1865)" stroke-width="2" mask="url(#path-1-inside-1_1259_1865)"/>
<path fill-rule="evenodd" clip-rule="evenodd" d="M9.00807 14.741C9.00807 14.741 9.00423 14.7385 8.99969 14.7385C8.99969 14.7385 8.99514 14.7385 8.9913 14.741L5.32625 17.0619C5.32625 17.0619 4.93638 17.31 4.48618 17.2786C4.48618 17.2786 4.0719 17.2497 3.73474 16.9934C3.73474 16.9934 3.4018 16.7403 3.25692 16.3508C3.25692 16.3508 3.10113 15.932 3.21446 15.4885L4.26889 11.3333C4.26889 11.3333 4.27188 11.3212 4.26694 11.3062C4.26694 11.3062 4.26201 11.2912 4.24985 11.2812L0.716551 8.33417C0.716551 8.33417 0.396909 8.06871 0.292039 7.67066C0.292039 7.67066 0.1962 7.30689 0.308883 6.94284C0.308883 6.94284 0.422822 6.57473 0.711226 6.33097C0.711226 6.33097 1.02868 6.06266 1.45138 6.03521L6.06108 5.73831C6.06108 5.73831 6.07191 5.73767 6.07752 5.73352C6.07752 5.73352 6.08313 5.72937 6.08556 5.72283L6.09069 5.70947L7.80657 1.38856C7.80657 1.38856 7.94452 1.01798 8.26917 0.790612C8.26917 0.790612 8.5981 0.560242 8.99969 0.560242C8.99969 0.560242 9.40127 0.560242 9.7302 0.790612C9.7302 0.790612 10.0548 1.01798 10.1928 1.38856L11.9087 5.70947L11.9138 5.72283C11.9138 5.72283 11.9162 5.72937 11.9219 5.73352C11.9219 5.73352 11.9275 5.73767 11.9344 5.73807L16.5477 6.03519C16.5477 6.03519 16.9707 6.06266 17.2881 6.33097C17.2881 6.33097 17.5766 6.57473 17.6905 6.94284C17.6905 6.94284 17.8032 7.3069 17.7073 7.67066C17.7073 7.67066 17.6025 8.06871 17.2818 8.33501L13.7516 11.2795C13.7516 11.2795 13.7374 11.2912 13.7324 11.3062C13.7324 11.3062 13.7275 11.3212 13.7313 11.3365L14.871 15.8173C14.871 15.8173 14.9728 16.2192 14.8309 16.5985C14.8309 16.5985 14.6989 16.9516 14.3965 17.1806C14.3965 17.1806 14.09 17.4127 13.7128 17.4387C13.7128 17.4387 13.3036 17.4668 12.9475 17.2422L9.00807 14.741ZM13.6144 16.185L9.67892 13.6863C9.67892 13.6863 9.36779 13.4885 8.99969 13.4885C8.99969 13.4885 8.63137 13.4885 8.32057 13.6862L4.65749 16.0059C4.65749 16.0059 4.57243 16.06 4.4912 15.9982C4.4912 15.9982 4.39337 15.9239 4.42554 15.798L5.48049 11.6407C5.48049 11.6407 5.57191 11.2723 5.45414 10.915C5.45414 10.915 5.33637 10.5576 5.0464 10.3179L1.5172 7.37424C1.5172 7.37424 1.49068 7.35222 1.50299 7.31245C1.50299 7.31245 1.51182 7.28391 1.53237 7.28258L6.14142 6.98573C6.14142 6.98573 6.51608 6.96394 6.8209 6.73845C6.8209 6.73845 7.12241 6.51542 7.25467 6.16518L8.97119 1.84269L8.97766 1.82567C8.97766 1.82567 8.98019 1.81872 8.98624 1.81448C8.98624 1.81448 8.9923 1.81024 8.99969 1.81024C8.99969 1.81024 9.00708 1.81024 9.01313 1.81448C9.01313 1.81448 9.01919 1.81872 9.02171 1.82567L9.02819 1.84269L10.7447 6.16518C10.7447 6.16518 10.877 6.51542 11.1785 6.73845C11.1785 6.73845 11.4833 6.96394 11.8618 6.98596L16.4673 7.2826C16.4673 7.2826 16.4876 7.28391 16.4964 7.31245C16.4964 7.31245 16.5087 7.35222 16.4832 7.3734L12.9509 10.3196C12.9509 10.3196 12.663 10.5576 12.5452 10.915C12.5452 10.915 12.4275 11.2723 12.5181 11.6375L13.6596 16.1255C13.6596 16.1255 13.6692 16.1634 13.6419 16.1841C13.6419 16.1841 13.6288 16.194 13.6144 16.185Z" stroke="url(#paint1_linear_1259_1865)" stroke-width="2" mask="url(#path-1-inside-1_1259_1865)"/>
</g>
<defs>
<linearGradient id="paint0_linear_1259_1865" x1="0.254028" y1="9.00002" x2="17.746" y2="9.00002" gradientUnits="userSpaceOnUse">
<stop stop-color="#F42494"/>
<stop offset="1" stop-color="#FFA200"/>
</linearGradient>
<linearGradient id="paint1_linear_1259_1865" x1="0.254028" y1="9.00002" x2="17.746" y2="9.00002" gradientUnits="userSpaceOnUse">
<stop stop-color="#F42494"/>
<stop offset="1" stop-color="#FFA200"/>
</linearGradient>
</defs>
</svg>
