<svg width="25" height="25" viewBox="0 0 25 25" fill="none" xmlns="http://www.w3.org/2000/svg">
<path d="M13.5416 2.08333H11.4583C10.883 2.08333 10.4166 2.5497 10.4166 3.12499V21.875C10.4166 22.4503 10.883 22.9167 11.4583 22.9167H13.5416C14.1169 22.9167 14.5833 22.4503 14.5833 21.875V3.12499C14.5833 2.5497 14.1169 2.08333 13.5416 2.08333Z" fill="#00B2D6"/>
<path d="M5.20831 14.5833H3.12498C2.54968 14.5833 2.08331 15.0497 2.08331 15.625V21.875C2.08331 22.4503 2.54968 22.9167 3.12498 22.9167H5.20831C5.78361 22.9167 6.24998 22.4503 6.24998 21.875V15.625C6.24998 15.0497 5.78361 14.5833 5.20831 14.5833Z" fill="#00B2D6"/>
<path d="M21.875 8.33333H19.7917C19.2164 8.33333 18.75 8.7997 18.75 9.37499V21.875C18.75 22.4503 19.2164 22.9167 19.7917 22.9167H21.875C22.4503 22.9167 22.9167 22.4503 22.9167 21.875V9.37499C22.9167 8.7997 22.4503 8.33333 21.875 8.33333Z" fill="#00B2D6"/>
</svg>
