<svg width="17" height="15" viewBox="0 0 17 15" fill="none" xmlns="http://www.w3.org/2000/svg">
<path id="Vector" d="M3.875 12.625V13.25H1.25C1.21696 13.25 1.18524 13.2369 1.1617 13.2135C1.13814 13.19 1.125 13.1581 1.125 13.125V9.875H1.75M3.875 12.625H4.5V2.375H3.875M3.875 12.625H1.75M3.875 12.625V2.375M3.875 2.375V1.75H1.25C1.21686 1.75 1.18504 1.76314 1.16147 1.7867L0.808052 1.43305L1.1617 1.78647C1.13814 1.81004 1.125 1.84186 1.125 1.875V2.625H1.75M3.875 2.375H1.75M1.75 2.625V3.625H1.125V3.875H1.75V4.875M1.75 2.625V2.375M1.75 2.625H2.5C3.12132 2.625 3.625 3.12868 3.625 3.75C3.625 4.37132 3.12132 4.875 2.5 4.875H1.75M1.75 4.875H1.125V5.125H1.75M1.75 4.875V5.125M1.75 5.125V6.125H1.125V6.375H1.75V7.375M1.75 5.125H2.5C3.12132 5.125 3.625 5.62868 3.625 6.25C3.625 6.87132 3.12132 7.375 2.5 7.375H1.75M1.75 7.375H1.125V7.625H1.75M1.75 7.375V7.625M1.75 7.625V8.625H1.125V8.875H1.75V9.875M1.75 7.625H2.5C3.12132 7.625 3.625 8.12868 3.625 8.75C3.625 9.37132 3.12132 9.875 2.5 9.875H1.75M1.75 9.875V12.625M1.75 12.625H1.25V13.125H1.75V12.625ZM1.75 2.375V1.875H1.25V2.375H1.75ZM6.11813 1.125C6.12267 1.16604 6.125 1.20775 6.125 1.25V1.375H15H15.5V1.875V13.125V13.625H15H6.125V13.75C6.125 13.7923 6.12267 13.834 6.11813 13.875H15C15.1415 13.875 15.2747 13.8242 15.3834 13.7605C15.436 13.7297 15.4773 13.699 15.5041 13.6774C15.5172 13.6667 15.5264 13.6587 15.531 13.6545M6.11813 1.125L15.8839 14.0089C15.5303 13.6553 15.5305 13.6552 15.5306 13.6551L15.5308 13.6549L15.531 13.6545M6.11813 1.125H14.9957M15.531 13.6545C15.5318 13.6537 15.5326 13.6531 15.5331 13.6526C15.6315 13.5529 15.6889 13.424 15.7205 13.3033C15.7359 13.2443 15.7434 13.1934 15.747 13.1592C15.7488 13.1423 15.7496 13.1302 15.7499 13.124M15.7499 13.124L15.75 13.1243V13.1207M15.7499 13.124L15.75 13.1237L15.75 13.1226L15.75 13.1209L15.75 13.1194C15.75 13.1193 15.75 13.1198 15.75 13.1207M15.7499 13.124C15.7499 13.1226 15.75 13.1215 15.75 13.1207M15.75 13.1207V1.875C15.75 1.7335 15.6992 1.60032 15.6355 1.49162C15.6047 1.439 15.574 1.39767 15.5524 1.37095C15.5417 1.35776 15.5337 1.34865 15.5295 1.34403L15.5299 1.3442L15.5301 1.34443C15.5302 1.34455 15.5303 1.34467 15.879 0.996042L15.5303 1.34467C15.5294 1.34375 15.5285 1.34283 15.5276 1.34191C15.4279 1.24355 15.299 1.18608 15.1783 1.15453C15.1193 1.13912 15.0684 1.13157 15.0342 1.12796C15.0173 1.12619 15.0052 1.12544 14.999 1.12514M14.999 1.12514L14.9993 1.125L14.9997 1.125C14.9998 1.125 15 1.125 15 0.625V1.125H14.9957M14.999 1.12514L14.9987 1.125L14.9976 1.12499L14.9959 1.12498L14.9944 1.12496C14.9943 1.12496 14.9948 1.12497 14.9957 1.125M14.999 1.12514C14.9976 1.12507 14.9965 1.12503 14.9957 1.125M0.373091 14.0019C0.402673 13.9723 0.429727 13.9453 0.454476 13.9205L0.373091 14.0019ZM3.88187 13.875H1.25428L0.5 9.86813C0.541042 9.87267 0.582749 9.875 0.625 9.875H0.75V13.125V13.625V13.625H0.750038H1.25H3.875V13.75C3.875 13.7923 3.87733 13.834 3.88187 13.875ZM0.75 8.625V8.875V8.625Z" stroke="url(#paint0_linear_1215_2732)"/>
<defs>
<linearGradient id="paint0_linear_1215_2732" x1="0" y1="7.5" x2="16.25" y2="7.5" gradientUnits="userSpaceOnUse">
<stop stop-color="#F42494"/>
<stop offset="1" stop-color="#FFA200"/>
</linearGradient>
</defs>
</svg>
