<svg width="60" height="60" viewBox="0 0 60 60" fill="none" xmlns="http://www.w3.org/2000/svg">
<path d="M34.18 12.9375H21.2836C20.8562 12.9375 20.4463 13.1087 20.144 13.4133C19.8418 13.718 19.672 14.1312 19.672 14.5621V21.4688L34.18 30L41.434 33.0859L48.688 30V21.4688L34.18 12.9375Z" fill="#21A366"/>
<path d="M19.672 21.4688H34.18V30H19.672V21.4688Z" fill="#107C41"/>
<path d="M47.0765 12.9375H34.1801V21.4688H48.6881V14.5621C48.6881 14.1312 48.5183 13.718 48.216 13.4133C47.9138 13.1087 47.5039 12.9375 47.0765 12.9375Z" fill="#33C481"/>
<path d="M34.18 30H19.672V45.4379C19.672 45.8688 19.8418 46.282 20.144 46.5867C20.4463 46.8913 20.8562 47.0625 21.2836 47.0625H47.0764C47.5038 47.0625 47.9137 46.8913 48.216 46.5867C48.5182 46.282 48.688 45.8688 48.688 45.4379V38.5312L34.18 30Z" fill="#185C37"/>
<path d="M34.1801 30H48.6881V38.5312H34.1801V30Z" fill="#107C41"/>
<path opacity="0.1" d="M30.1504 19.0312H19.672V42.1875H30.1504C30.5774 42.1862 30.9866 42.0146 31.2886 41.7102C31.5905 41.4059 31.7607 40.9934 31.762 40.5629V20.6558C31.7607 20.2254 31.5905 19.8129 31.2886 19.5085C30.9866 19.2041 30.5774 19.0325 30.1504 19.0312Z" fill="black"/>
<path opacity="0.2" d="M28.9414 20.25H19.672V43.4062H28.9414C29.3684 43.405 29.7776 43.2334 30.0796 42.929C30.3815 42.6246 30.5517 42.2121 30.553 41.7817V21.8746C30.5517 21.4441 30.3815 21.0316 30.0796 20.7273C29.7776 20.4229 29.3684 20.2513 28.9414 20.25Z" fill="black"/>
<path opacity="0.2" d="M28.9414 20.25H19.672V40.9688H28.9414C29.3684 40.9675 29.7776 40.7959 30.0796 40.4915C30.3815 40.1871 30.5517 39.7746 30.553 39.3442V21.8746C30.5517 21.4441 30.3815 21.0316 30.0796 20.7273C29.7776 20.4229 29.3684 20.2513 28.9414 20.25Z" fill="black"/>
<path opacity="0.2" d="M27.7324 20.25H19.672V40.9688H27.7324C28.1594 40.9675 28.5686 40.7959 28.8706 40.4915C29.1725 40.1871 29.3427 39.7746 29.344 39.3442V21.8746C29.3427 21.4441 29.1725 21.0316 28.8706 20.7273C28.5686 20.4229 28.1594 20.2513 27.7324 20.25Z" fill="black"/>
<path d="M11.6116 20.25H27.7324C28.1598 20.25 28.5697 20.4212 28.872 20.7258C29.1742 21.0305 29.344 21.4437 29.344 21.8746V38.1254C29.344 38.5563 29.1742 38.9695 28.872 39.2742C28.5697 39.5788 28.1598 39.75 27.7324 39.75H11.6116C11.1842 39.75 10.7743 39.5788 10.472 39.2742C10.1698 38.9695 10 38.5563 10 38.1254V21.8746C10 21.4437 10.1698 21.0305 10.472 20.7258C10.7743 20.4212 11.1842 20.25 11.6116 20.25Z" fill="#107C41"/>
<path d="M14.2714 36.0938L18.1837 29.9829L14.6002 23.9062H17.4837L19.4398 27.7904C19.6196 28.1585 19.7433 28.4331 19.811 28.6143H19.8364C19.9653 28.3202 20.1004 28.0342 20.2414 27.7563L22.3318 23.9062H24.9783L21.3029 29.9488L25.0714 36.0938H22.2544L19.9948 31.8281C19.8883 31.6464 19.7981 31.4556 19.7252 31.2577H19.6913C19.6254 31.4512 19.5378 31.6364 19.4302 31.8098L17.1053 36.0938H14.2714Z" fill="white"/>
</svg>
