<svg width="11" height="11" viewBox="0 0 11 11" fill="none" xmlns="http://www.w3.org/2000/svg">
<g clip-path="url(#clip0_1215_2741)">
<path d="M5.61815 8.23474C5.98441 8.12295 6.3344 7.95773 6.65627 7.74266C7.30379 7.31 7.80847 6.69505 8.10649 5.97556C8.1551 5.85821 8.19785 5.73894 8.23471 5.61819C8.27829 6.00761 8.33076 6.3994 8.40371 6.77125C8.5877 7.70919 8.91991 8.65493 9.64959 9.3846L10.0972 9.83222C10.1301 9.86733 10.1482 9.91377 10.1478 9.96193C10.1473 10.0111 10.1276 10.0581 10.0928 10.0929C10.0581 10.1276 10.0111 10.1474 9.9619 10.1478C9.91374 10.1482 9.8673 10.1301 9.83218 10.0972L9.38457 9.64962C8.6549 8.91995 7.70916 8.58773 6.77122 8.40374C6.39936 8.33079 6.00757 8.27832 5.61815 8.23474Z" fill="white" stroke="url(#paint0_linear_1215_2741)"/>
</g>
<defs>
<linearGradient id="paint0_linear_1215_2741" x1="-0.666196" y1="1.40504" x2="12.0771" y2="2.17368" gradientUnits="userSpaceOnUse">
<stop stop-color="#F42494"/>
<stop offset="1" stop-color="#FFA200"/>
</linearGradient>
<clipPath id="clip0_1215_2741">
<rect width="11" height="11" fill="white"/>
</clipPath>
</defs>
</svg>
